<?xml version="1.0" encoding="UTF-8" standalone="no"?><!DOCTYPE svg PUBLIC "-//W3C//DTD SVG 1.1//EN" "http://www.w3.org/Graphics/SVG/1.1/DTD/svg11.dtd"><svg width="100%" height="100%" viewBox="0 0 5669 2169" version="1.1" xmlns="http://www.w3.org/2000/svg" xmlns:xlink="http://www.w3.org/1999/xlink" xml:space="preserve" xmlns:serif="http://www.serif.com/" style="fill-rule:evenodd;clip-rule:evenodd;stroke-linejoin:round;stroke-miterlimit:2;"><path id="path843" d="M299.949,2165.41c-0.122,-7.4 -4.603,-8.499 -22.783,-5.589c-25.967,4.157 -89.267,6.165 -94.642,3.002c-5.785,-3.404 -2.683,-7.778 7.698,-10.851c5.912,-1.751 9.966,-1.481 18.822,1.251c16.259,5.017 18.317,4.107 19.476,-8.611l0.964,-10.584l9.16,0.637c5.379,0.373 9.16,-0.266 9.16,-1.55c0,-2.825 -4.791,-3.956 -26.225,-6.193c-12.117,-1.265 -20.992,-3.566 -28.677,-7.435c-6.122,-3.081 -14.434,-5.603 -18.471,-5.603c-8.914,0 -15.997,-8.022 -14.166,-16.043c0.889,-3.895 -0.71,-6.89 -7.625,-14.279c-12.317,-13.164 -18.899,-15.854 -27.608,-11.287l-6.79,3.56l1.312,-8.541c1.95,-12.692 -2.924,-11.248 -17.701,5.242c-6.793,7.58 -13.597,13.783 -15.12,13.783c-3.577,-0 -8.189,10.372 -17.421,39.178l-7.459,23.275l-2.596,-9.492c-4.355,-15.916 -3.762,-22.294 2.997,-32.262c3.37,-4.97 8.532,-13.498 11.47,-18.95c3.719,-6.901 6.935,-10.263 10.585,-11.066c6.04,-1.329 13.077,-8.296 13.077,-12.948c0,-4.646 -3.655,-3.912 -11.934,2.397c-6.629,5.052 -18.921,22.304 -18.921,26.557c0,2.863 -18.628,12.308 -25.444,12.901c-5.649,0.491 -6.375,-0.048 -6.375,-4.747c-0,-5.721 -1.176,-5.897 -26.034,-3.884l-8.678,0.703l0.281,-7.422c0.155,-4.081 1.128,-18.598 2.163,-32.259c1.93,-25.471 4.983,-35.261 19.691,-63.128c2.144,-4.064 3.899,-9.214 3.899,-11.444c-0,-5.588 8.895,-17.132 49.314,-63.993c41.561,-48.186 49.134,-58.841 57.71,-81.201c3.587,-9.352 9.612,-21.943 13.388,-27.979c7.88,-12.597 8.639,-19.288 2.679,-23.639c-5.066,-3.698 -3.592,-7.095 3.781,-8.716c3.102,-0.682 6.373,-3.32 7.573,-6.106c1.162,-2.697 18.682,-23.836 38.934,-46.975c20.251,-23.139 36.821,-43.293 36.821,-44.787c-0,-6.645 20.785,-36.644 43.135,-62.259c13.398,-15.354 24.36,-29.437 24.36,-31.293c0,-4.753 21.842,-29.214 34.025,-38.106c12.259,-8.948 16.114,-14.546 16.114,-23.402c0,-9.302 5.778,-16.407 21.606,-26.572c8.035,-5.16 22.608,-18.209 35.53,-31.813c12.048,-12.687 22.775,-23.066 23.837,-23.066c1.062,-0 3.725,-4.199 5.919,-9.331c2.194,-5.132 10.495,-17.775 18.447,-28.096c7.951,-10.321 26.833,-34.987 41.959,-54.813c31.79,-41.669 43.242,-53.631 61.938,-64.7c10.471,-6.199 14.549,-10.034 18.178,-17.095c6.206,-12.074 25.683,-32.616 36.267,-38.25c6.42,-3.417 10.831,-4.266 18.148,-3.493c8.859,0.937 9.814,0.592 11.444,-4.123c0.978,-2.829 1.778,-8.241 1.778,-12.027c0,-7.411 5.311,-15.281 12.238,-18.138c2.285,-0.941 11.097,-2.356 19.582,-3.143c22.949,-2.127 25.674,-3.024 28.432,-9.357c1.358,-3.119 6.439,-8.057 11.29,-10.973c4.851,-2.915 11.632,-7.925 15.07,-11.132c3.437,-3.207 7.02,-5.831 7.963,-5.831c6.424,-0 33.549,-36.135 31.765,-42.316c-2.179,-7.55 25.069,-42.488 33.156,-42.513c9.853,-0.036 41.062,-30.51 41.062,-40.101c-0,-11.007 -18.127,-40.39 -39.879,-64.642c-11.708,-13.053 -19.93,-18.225 -29.001,-18.243l-5.365,-0.011l5.564,-4.895c6.93,-6.098 6.427,-7.366 -14.011,-35.341c-20.046,-27.437 -43.898,-53.113 -55.338,-59.57c-8.497,-4.795 -9.558,-6.183 -10.094,-13.199c-0.463,-6.065 -1.43,-7.84 -4.271,-7.84c-4.009,0 -7.656,5.851 -6.28,10.072c1.432,4.391 -2.349,2.993 -7.171,-2.65c-2.631,-3.08 -6.68,-5.301 -9.662,-5.301c-3.272,-0 -9.489,-3.844 -17.148,-10.603c-6.607,-5.831 -13.258,-10.602 -14.779,-10.602c-1.691,0 -2.765,-2.138 -2.765,-5.504c0,-7.275 -6.701,-17.367 -12.092,-18.209c-2.643,-0.413 -4.111,-1.957 -3.811,-4.007c0.591,-4.038 -5.335,-10.385 -19.347,-20.72c-5.781,-4.263 -15.723,-14.431 -22.093,-22.595c-17.392,-22.287 -20.999,-25.565 -24.559,-22.316c-2.489,2.271 -2.949,1.99 -2.949,-1.803c-0,-7.362 -12.937,-20.965 -26.754,-28.133c-7.029,-3.646 -16.396,-9.841 -20.817,-13.766c-8.084,-7.177 -14.75,-9.076 -17.113,-4.873c-0.7,1.246 -2.542,1.73 -4.092,1.076c-1.67,-0.705 -5.124,1.586 -8.475,5.619l-5.655,6.809l-5.894,-3.828c-3.278,-2.129 -7.347,-3.212 -9.168,-2.44c-2.312,0.979 -5.084,-0.978 -9.427,-6.657c-7.31,-9.559 -10.629,-7.906 -5.432,2.705c3.735,7.626 13.091,14.728 16.422,12.464c3.098,-2.106 8.434,2.448 13.432,11.465c2.677,4.831 7.119,9.507 10.124,10.659c6.322,2.423 6.931,6.009 1.403,8.257c-3.626,1.475 -2.938,2.912 8.347,17.426c6.764,8.7 13.749,17.128 15.522,18.728c4.488,4.053 4.04,7.262 -0.629,4.514c-6.155,-3.621 -39.369,-39.325 -45.22,-48.609c-3.159,-5.013 -7.875,-9.387 -11.562,-10.725c-3.424,-1.243 -8.755,-5.167 -11.847,-8.721c-3.091,-3.553 -9.799,-8.771 -14.905,-11.594c-9.202,-5.088 -32.177,-23.421 -32.177,-25.676c-0,-0.645 3.037,-0.545 6.749,0.22c3.712,0.765 6.75,0.594 6.75,-0.383c-0,-2.608 -15.222,-18.356 -23.893,-24.719c-4.125,-3.028 -9.264,-5.505 -11.419,-5.505c-2.154,0 -5.445,-1.519 -7.311,-3.376c-1.866,-1.858 -6.2,-4.959 -9.631,-6.892c-11.578,-6.525 -16.656,-26.255 -10.705,-41.598l2.435,-6.276l6.249,9.987c4.321,6.905 7.587,9.987 10.586,9.987c4.561,0 20.282,-15.842 18.101,-18.24c-0.678,-0.745 -5.394,-2.187 -10.481,-3.205c-15.579,-3.117 -23.121,-17.124 -13.106,-24.339c6.494,-4.679 6.078,-6.866 -2.014,-10.583c-7.665,-3.522 -10.521,-2.577 -10.521,3.481c-0,5.614 -3.078,5.166 -8.962,-1.305c-3.672,-4.037 -4.574,-6.608 -3.535,-10.072c0.767,-2.558 1.805,-8.625 2.306,-13.481c0.583,-5.655 2.579,-10.552 5.551,-13.622c2.552,-2.636 4.64,-5.668 4.64,-6.737c-0,-1.069 -3.05,-5.862 -6.778,-10.65c-3.727,-4.789 -7.666,-12.336 -8.752,-16.771c-1.086,-4.435 -2.83,-8.064 -3.876,-8.064c-1.046,-0 -11.74,-6.574 -23.766,-14.608c-28.434,-18.996 -28.594,-19.045 -32.606,-9.793c-3.49,8.046 -8.032,9.38 -17.898,5.255c-5.157,-2.156 -5.182,-2.124 -2.069,2.651c7.21,11.061 13.114,22.952 12.463,25.1c-0.383,1.264 -3.849,-1.069 -7.703,-5.184c-6.82,-7.284 -15.919,-11.687 -18.434,-8.922c-1.631,1.794 20.157,26.147 26.882,30.047c8.827,5.119 22.755,2.667 22.755,-4.005c0,-1.449 1.736,-4.269 3.857,-6.266c2.121,-1.997 3.857,-5.072 3.857,-6.833c-0,-5.636 3.534,-3.511 17.355,10.435c7.432,7.5 15.463,13.962 17.846,14.36l4.332,0.723l-4.514,2.781c-5.956,3.671 -15.324,-0.337 -16.897,-7.228c-1.31,-5.738 -5.799,-10.473 -11.855,-12.502c-5.122,-1.717 -6.073,3.091 -1.446,7.314c4.754,4.338 3.31,6.169 -3.857,4.89c-5.942,-1.06 -6.749,-0.665 -6.749,3.308c-0,2.482 2.975,8.134 6.612,12.56c3.637,4.426 7.239,10.793 8.004,14.147c0.766,3.355 7.759,13.427 15.541,22.383c12.166,14.002 21.857,30.416 19.493,33.016c-0.394,0.432 -4.53,-3.488 -9.193,-8.711c-4.662,-5.224 -9.533,-9.498 -10.824,-9.498c-1.29,0 -4.378,-4.055 -6.862,-9.012c-3.021,-6.029 -12.063,-15.679 -27.322,-29.156c-12.543,-11.079 -23.705,-22.053 -24.803,-24.385c-9.79,-20.79 -70.716,-70.41 -92.881,-75.646c-9.822,-2.32 -56.632,-1.261 -64.342,1.456c-3.383,1.192 -4.339,0.706 -4.339,-2.206c0,-3.318 -1.41,-3.59 -12.651,-2.436l-12.65,1.299l4.038,-5.763c8.09,-11.545 10.191,-15.465 8.994,-16.78c-0.672,-0.739 -8.556,-1.425 -17.521,-1.524c-10.264,-0.115 -17.192,-1.164 -18.71,-2.833c-1.928,-2.12 1.12,-2.65 15.24,-2.65c19.492,-0 26.003,-2.184 29.149,-9.776c1.155,-2.787 3.529,-5.067 5.275,-5.067c2.507,-0 2.929,1.353 2.006,6.428c-1.012,5.564 -0.477,6.719 3.971,8.579c9.328,3.899 12.901,1.844 15.029,-8.646c2.486,-12.255 3.659,-14.082 10.113,-15.744c2.927,-0.754 10.013,-3.417 15.747,-5.917c10.159,-4.43 10.664,-4.452 19.867,-0.858l9.442,3.688l8.908,-6.488c4.899,-3.568 10.061,-6.488 11.47,-6.488c3.495,0 3.249,-9.456 -0.331,-12.723c-1.591,-1.451 -2.892,-4.351 -2.892,-6.444c-0,-2.092 -2.387,-5.762 -5.303,-8.155l-5.304,-4.35l7.018,-0.068c3.87,-0.036 8.991,-1.823 11.416,-3.982l4.398,-3.916l-8.137,-16.586c-11.935,-24.331 -18.969,-33.445 -24.61,-31.889c-3.283,0.906 -4.548,0.36 -4.548,-1.966c0,-2.344 -2.1,-3.221 -7.714,-3.221c-8.514,0 -10.641,-4.489 -3.983,-8.407c5.358,-3.154 7.204,-2.768 11.602,2.422c2.151,2.539 4.469,4.003 5.151,3.253c0.682,-0.75 2.666,-7.359 4.408,-14.686c4.682,-19.688 13.422,-23.151 25.345,-10.041c2.014,2.214 5.636,4.468 8.05,5.007c2.413,0.54 6.761,1.533 9.662,2.207c3.523,0.819 5.673,2.974 6.476,6.494c0.741,3.245 2.578,5.269 4.783,5.269c4.194,0 7.964,6.736 7.483,13.369c-0.186,2.56 -0.242,5.829 -0.124,7.263c0.28,3.418 14.672,11.451 18,10.046c1.421,-0.599 5.546,2.272 9.168,6.381c9.842,11.165 11.614,10.033 11.614,-7.418c0,-13.823 0.345,-15.061 4.821,-17.304c6.173,-3.092 6.075,-6.112 -0.482,-14.789c-8.261,-10.933 -13.919,-16.043 -27.93,-25.228c-13.656,-8.953 -16.906,-13.16 -16.906,-21.886c-0,-13.482 6.569,-9.376 36.165,22.603c12.997,14.043 24.141,24.973 24.764,24.288c2.127,-2.338 -1.432,-10.151 -9.008,-19.775c-4.162,-5.288 -7.567,-10.532 -7.567,-11.653c-0,-1.122 3.524,-6.243 7.831,-11.38c4.306,-5.138 8.699,-12.803 9.762,-17.034c1.062,-4.231 3.179,-8.116 4.704,-8.635c9.873,-3.358 9.831,-3.113 1.808,-10.574c-4.242,-3.946 -12.023,-8.88 -17.291,-10.964c-13.262,-5.248 -11.386,-8.182 4.669,-7.304l13.296,0.728l0.627,-5.975c0.525,-4.996 2.176,-6.605 10.085,-9.823c5.202,-2.117 14.201,-3.911 19.999,-3.987c11.897,-0.157 9.981,-1.422 49.145,32.455c38.453,33.26 76.323,71.92 174.042,177.669c75.857,82.092 97.131,104.126 114.866,118.971c27.683,23.172 63.2,72.322 97.214,134.53c18.086,33.079 79.28,127.215 105.971,163.018c10.539,14.136 25.167,34.603 32.507,45.481c18.404,27.273 33.808,44.86 49.847,56.911l13.609,10.224l74.536,-83.028c40.995,-45.666 80.688,-88.279 88.206,-94.695c13.578,-11.588 23.935,-23.288 23.935,-27.038c-0,-1.078 2.103,-1.958 4.673,-1.958c9.176,-0 25.9,-21.766 30.354,-39.506c1.655,-6.588 2.32,-7.348 3.832,-4.378c4.769,9.37 7.965,5.554 66.051,-78.878c23.755,-34.528 45.48,-65.125 48.279,-67.994c3.185,-3.265 7.045,-5.063 10.319,-4.807c8.039,0.628 11.581,-2.627 8.605,-7.907c-1.326,-2.353 -2.411,-5.721 -2.411,-7.487c0,-4.427 5.076,-4.047 6.687,0.502c1.185,3.349 1.676,3.222 5.027,-1.295c2.043,-2.754 3.714,-6.856 3.714,-9.118c-0,-6.64 4.844,-14.9 14.794,-25.225c16.05,-16.655 17.521,-17.158 10.509,-3.591c-3.505,6.781 -5.3,12.193 -4.044,12.193c3.787,0 29.212,-28.173 32.052,-35.517c1.466,-3.79 4.453,-8.084 6.638,-9.542c7.537,-5.028 38.383,-53.521 38.396,-60.362c0.004,-1.675 -2.389,-1.026 -6.827,1.853c-13.284,8.618 -9.262,1.232 10.942,-20.096c11.247,-11.873 24.045,-27.514 28.439,-34.758c8.766,-14.449 24.434,-35.849 34.37,-46.944c7.542,-8.421 7.684,-9.389 2.023,-13.731c-6.287,-4.822 -0.434,-4.396 9.807,0.714c5.951,2.97 9.352,3.589 11.801,2.148c3.951,-2.326 9.729,-14.629 9.729,-20.718c-0,-3.858 -0.7,-3.735 -10.878,1.911c-5.983,3.318 -12.709,5.99 -14.946,5.938c-3.352,-0.078 -2.373,-1.783 5.575,-9.7c11.032,-10.988 25.626,-19.891 32.606,-19.891c2.624,-0 5.292,-0.927 5.928,-2.059c1.648,-2.931 -3.503,-12.975 -9.652,-18.821c-4.488,-4.266 -5.09,-6.156 -4.224,-13.252c1.312,-10.756 -0.93,-11.977 -7.126,-3.88c-5.829,7.617 -5.965,9.015 -2.067,21.164c3.245,10.112 1.409,14.809 -3.47,8.881c-3.204,-3.893 -9.923,-39.749 -8.067,-43.051c0.559,-0.995 2.419,-1.217 4.133,-0.494c2.608,1.101 2.88,0.309 1.666,-4.863c-0.798,-3.398 -1.577,-9.996 -1.732,-14.661l-0.281,-8.481l10.607,-1.061c9.973,-0.997 10.644,-1.423 11.238,-7.134c0.453,-4.358 -0.875,-7.802 -4.7,-12.192c-5.104,-5.857 -5.154,-6.119 -1.185,-6.119c2.28,-0 8.549,1.908 13.931,4.241c5.382,2.332 11.561,4.241 13.731,4.241c6.86,-0 2.791,5.188 -5.91,7.535c-9.716,2.621 -13.606,7.554 -13.606,17.255c-0,9.274 5.765,15.498 14.354,15.498c8.728,0 12.644,-6.14 12.644,-19.829l-0,-10.405l11.282,1.403c8.914,1.109 11.797,0.722 13.735,-1.846c1.363,-1.806 5.562,-3.271 9.449,-3.297c3.847,-0.026 10.466,-1.775 14.709,-3.888c4.243,-2.113 10.1,-4.496 13.017,-5.295c9.181,-2.516 6.274,4.291 -4.821,11.288c-15.675,9.884 -5.9,8.156 30.97,-5.476c36.612,-13.536 39.989,-15.208 46.65,-23.088c5.601,-6.627 15.427,-12.771 15.427,-9.645c-0,1.169 -2.17,3.689 -4.821,5.599c-7.597,5.474 -5.764,7.227 7.556,7.227c17.471,-0 18.478,0.699 18.478,12.824c-0,10.187 2.94,15.562 5.764,10.538c0.812,-1.445 1.048,-4.43 0.524,-6.633c-0.724,-3.044 0.082,-4.006 3.348,-4.006c2.717,-0 8.943,-5.079 16.898,-13.783c11.78,-12.89 15.891,-16.04 15.891,-12.178c-0,0.883 -3.905,6.84 -8.678,13.238c-8.694,11.653 -10.185,14.843 -6.941,14.843c2.108,0 23.754,-17.713 27.159,-22.224c1.337,-1.772 3.541,-3.221 4.897,-3.221c2.691,-0 20.203,18.682 20.203,21.553c0,2.465 -3.377,2.221 -4.821,-0.349c-0.655,-1.166 -4.012,-2.12 -7.459,-2.12c-3.447,-0 -7.951,-1.401 -10.01,-3.114c-5.249,-4.365 -8.565,-3.983 -8.565,0.987c0,2.329 -3.138,8.054 -6.974,12.723l-6.974,8.488l4.932,-0c5.796,-0 8.731,3.914 4.924,6.566c-1.461,1.018 -5.984,1.865 -10.05,1.883c-5.078,0.023 -7.123,0.862 -6.532,2.683c0.474,1.458 -0.358,5.303 -1.846,8.544c-2.635,5.737 -2.094,10.01 1.267,10.01c0.913,0 10.957,-7.671 22.318,-17.047c11.362,-9.376 21.628,-16.697 22.814,-16.27c1.185,0.427 2.402,3.566 2.704,6.975c0.642,7.255 -2.567,12.545 -22.419,36.961c-9.795,12.046 -13.538,18.089 -12.151,19.614c2.833,3.116 10.93,-3.136 15.152,-11.699l3.389,-6.871l0.649,5.98c0.358,3.29 -0.281,8.919 -1.42,12.509c-3.097,9.772 -2.536,11.357 2.27,6.407c4.118,-4.243 13.098,-8.993 16.999,-8.993c3.432,-0 1.717,5.331 -4.013,12.48c-7.006,8.74 -7.058,9.165 -0.803,6.55c2.723,-1.139 8.191,-1.501 12.151,-0.805c6.757,1.188 7.646,0.666 14.48,-8.504c4.005,-5.374 8.025,-9.265 8.933,-8.648c2.909,1.977 -3.85,19.335 -11.212,28.795c-5.053,6.493 -6.005,8.638 -3.27,7.371c8.957,-4.151 23.673,-7.553 32.673,-7.553l9.656,0l-14.311,15.842c-13.736,15.206 -17.057,22.486 -6.927,15.188c3.172,-2.285 4.457,-4.739 3.759,-7.179c-0.903,-3.159 -0.609,-3.098 1.991,0.41c1.677,2.264 3.05,7.384 3.05,11.379c-0,6.605 -0.437,7.172 -4.821,6.25c-6.115,-1.285 -6.05,-0.483 0.482,5.928c4.899,4.809 5.041,5.378 1.865,7.464c-2.659,1.748 -3.164,3.863 -2.228,9.348c1.047,6.132 0.271,8.19 -5.74,15.23c-6.572,7.698 -7.097,7.928 -9.683,4.236c-3.704,-5.289 -7.658,-3.545 -21.427,9.451c-6.314,5.96 -15.157,12.676 -19.651,14.924c-8.595,4.299 -13.108,10.625 -11.293,15.827c0.612,1.752 0.047,2.954 -1.298,2.764c-10.289,-1.455 -19.468,7.432 -24.099,23.332c-1.843,6.327 -4.519,11.924 -5.948,12.438c-2.094,0.753 -2.16,0.034 -0.342,-3.703c2.212,-4.543 2.16,-4.567 -2.543,-1.178c-6.161,4.439 -7.561,8.582 -3.997,11.835c2.426,2.214 2.445,3.062 0.13,5.986c-1.483,1.874 -3.256,6.746 -3.939,10.828c-0.684,4.082 -3.85,11.652 -7.037,16.823c-3.187,5.17 -5.489,10.406 -5.117,11.634c0.372,1.229 -2.428,3.769 -6.224,5.645c-9.314,4.603 -18.841,13.715 -24.323,23.264c-2.49,4.337 -11.827,16.344 -20.749,26.681c-8.921,10.337 -19.67,24.287 -23.885,30.998c-15.082,24.012 -42.275,56.712 -47.162,56.712c-2.778,0 -1.868,-15.863 1.163,-20.269c4.442,-6.458 3.759,-11.958 -1.385,-11.155c-3.077,0.48 -4.352,2.127 -4.386,5.663c-0.035,3.902 -1.714,5.606 -7.713,7.838c-17.165,6.384 -44.791,52.439 -27.925,46.553c2.296,-0.802 3.866,-0.387 3.866,1.021c0,3.387 -12.159,8.517 -20.187,8.517c-4.769,-0 -6.811,0.953 -6.811,3.18c-0,1.75 -1.45,3.181 -3.222,3.181c-1.771,0 -8.214,5.663 -14.317,12.585c-6.102,6.922 -13.7,14.066 -16.883,15.876c-4.494,2.556 -6.467,5.862 -8.829,14.798c-1.783,6.743 -6.246,15.753 -10.779,21.762c-4.255,5.641 -12.063,15.933 -17.35,22.873c-11.084,14.545 -12.595,21.37 -4.348,19.637c4.926,-1.036 5.027,-0.915 1.56,1.873c-2.039,1.639 -5.576,2.98 -7.86,2.98c-3.667,0 -10.537,5.802 -10.537,8.899c-0,0.628 -8.335,10.096 -18.522,21.037c-10.187,10.942 -26.694,31.055 -36.683,44.695c-10.608,14.485 -23.157,28.95 -30.172,34.778c-6.605,5.488 -12.66,11.18 -13.455,12.649c-0.795,1.468 -5.332,4.738 -10.082,7.267c-8.885,4.729 -23.109,20.455 -31.187,34.48c-4.29,7.448 -8.054,9.733 -10.892,6.613c-1.781,-1.958 1.932,-8.695 12.462,-22.608c10.286,-13.591 10.785,-15.294 6.134,-20.946c-2.97,-3.608 -2.97,-3.878 -0,-3.878c2.119,0 3.192,-1.782 3.192,-5.301c-0,-6.816 3.311,-6.816 6.136,0c1.208,2.916 3.229,5.301 4.49,5.301c6.262,0 30.859,-25.436 26.235,-27.131c-1.181,-0.432 -5.926,0.801 -10.546,2.741c-4.62,1.94 -10.912,3.212 -13.983,2.826l-5.583,-0.7l8.485,-6.892c4.667,-3.79 10.81,-6.891 13.651,-6.891c7.004,-0 22.394,-11.563 29.257,-21.981c4.779,-7.254 5.176,-8.794 2.663,-10.34c-1.874,-1.153 -2.952,-4.877 -2.952,-10.193c-0,-9.05 0.971,-9.843 6.455,-5.274c4.915,4.095 8.399,2.051 10.942,-6.421c1.982,-6.603 17.586,-24.248 21.443,-24.248c3.38,0 1.43,4.187 -7.021,15.074c-10.589,13.64 -11.151,17.123 -1.392,8.624c9.693,-8.442 61.274,-66.733 63.992,-72.316c1.945,-3.995 1.608,-4.393 -3.715,-4.393c-3.219,-0 -5.853,-0.54 -5.853,-1.2c0,-5.452 21.631,-35.963 28.166,-39.728c4.624,-2.664 20.045,-23.543 20.045,-27.14c-0,-9.862 -24.127,11.807 -73.37,65.897c-78.36,86.072 -112.831,127.457 -130.907,157.162c-8.163,13.413 -10.986,16.29 -21.522,21.933c-15.568,8.338 -19.113,15.161 -19.113,36.784c0,9.305 -1.103,17.858 -2.758,21.377c-2.825,6.006 -15.864,17.249 -20.005,17.249c-4.098,-0 -2.458,-3.834 3.704,-8.658c6.382,-4.997 13.161,-18.834 13.232,-27.007c0.07,-7.968 -7.907,-5.235 -11.883,4.071c-1.794,4.2 -9.662,15.173 -17.484,24.386c-20.593,24.253 -27.08,35.793 -14.65,26.061l6.08,-4.76l-1.307,5.723c-1.702,7.459 2.211,9.202 10.316,4.594c10.576,-6.014 10.516,-2.394 -0.19,11.45c-5.705,7.377 -11.641,15.336 -13.191,17.687c-2.627,3.986 -2.53,4.175 1.446,2.787c2.346,-0.819 4.264,-0.645 4.264,0.385c0,3.833 -22.68,27.828 -33.491,35.432c-9.764,6.868 -11.047,8.536 -10.02,13.034c0.991,4.343 -1.435,8.19 -15.361,24.348c-18.764,21.77 -34.192,43.86 -32.605,46.684c0.588,1.045 2.419,1.901 4.069,1.901c4.712,-0 33.051,-31.406 42.094,-46.65c4.497,-7.581 18.714,-27.142 31.593,-43.47c12.879,-16.327 28.995,-38.294 35.813,-48.814c6.817,-10.521 14.62,-21.427 17.34,-24.236l4.944,-5.108l-4.197,-4.912c-3.832,-4.485 -3.959,-5.407 -1.457,-10.58c3.733,-7.72 16.154,-17.275 24.663,-18.971c11.486,-2.289 19.493,-7.991 39.606,-28.201c19.839,-19.935 25.092,-23.475 28.796,-19.402c3.017,3.317 -4.145,17.828 -9.331,18.905c-4.708,0.976 -6.681,4.057 -6.72,10.492c-0.023,3.481 -1.656,5.505 -5.703,7.056c-4.666,1.788 -6.581,4.785 -10.778,16.862c-2.808,8.078 -11.386,24.464 -19.063,36.413c-7.678,11.949 -30.159,47.013 -49.959,77.918c-38.755,60.492 -52.747,81.376 -70.773,105.629c-6.34,8.531 -11.527,16.807 -11.527,18.391c-0,1.585 2.277,5.858 5.061,9.496c2.783,3.637 4.729,6.978 4.323,7.425c-0.407,0.446 -4.897,-1.168 -9.98,-3.587c-12.011,-5.717 -15.202,-3.054 -9.179,7.661c5.275,9.385 16.801,19.514 31.775,27.924c7.119,3.998 12.765,8.889 14.693,12.728c1.722,3.429 5.02,6.539 7.329,6.912c2.308,0.374 5.094,2.52 6.189,4.771c1.225,2.517 4.03,4.093 7.282,4.093c7.083,0 29.442,11.992 51.122,27.419c21.034,14.967 25.023,16.774 42.294,19.159c8.627,1.191 18.345,4.544 28.049,9.678c8.167,4.32 20.947,9.058 28.398,10.528c17.501,3.452 39.805,13.731 57.76,26.619c14.644,10.512 19.102,15.882 21.281,25.636c0.687,3.077 5.62,11.188 10.962,18.024c12.367,15.826 27.677,41.199 29.391,48.708c1.579,6.916 14.962,29.95 25.08,43.167c5.06,6.609 6.463,9.748 4.644,10.39c-1.433,0.505 -3.244,1.969 -4.023,3.252c-2.453,4.038 -1.597,29.554 1.417,42.279c3.823,16.141 3.705,17.617 -1.833,22.913c-2.6,2.485 -5.209,7.011 -5.798,10.058c-1.317,6.814 1.721,27.944 5.122,35.614c3.676,8.293 7.33,8.716 7.33,0.849c0,-7.215 3.664,-8.723 7.819,-3.218c3.895,5.161 12.594,9.403 19.281,9.403c7.479,-0 35.936,10.328 54.647,19.834c7.651,3.887 19.507,12.255 26.346,18.596c6.839,6.341 21.546,19.605 32.683,29.476c11.137,9.871 24.798,22.469 30.358,27.996c5.56,5.527 13.153,11.448 16.874,13.157c7.109,3.267 9.077,7.566 3.462,7.566c-4.493,-0 11.777,18.136 29.475,32.856c7.5,6.238 15.889,14.588 18.641,18.556c2.752,3.967 11.235,11.852 18.852,17.522c20.106,14.968 42.225,38.411 46.437,49.217c1.946,4.992 4.277,9.076 5.18,9.076c0.904,-0 3.521,3.676 5.818,8.17c2.297,4.493 8.965,14.071 14.818,21.284c5.854,7.213 10.643,14.033 10.643,15.155c-0,3.053 -6.233,2.335 -10.493,-1.207c-2.059,-1.713 -7.51,-3.114 -12.114,-3.114c-10.114,0 -12.602,4.311 -6.564,11.377c4.448,5.206 5.705,19.09 1.959,21.636c-1.179,0.8 -4.075,-1.21 -6.438,-4.468c-5.463,-7.534 -7.728,-4.225 -5.964,8.714c0.739,5.411 0.518,9.391 -0.52,9.391c-0.991,0 -5.894,-1.99 -10.896,-4.423c-5.609,-2.728 -14.132,-4.646 -22.241,-5.005c-9.371,-0.415 -15.066,-1.886 -19.824,-5.119c-6.354,-4.318 -12.97,-5.988 -12.97,-3.274c0,0.695 1.794,4.033 3.986,7.418c4.687,7.237 4.383,17.451 -0.549,18.479c-1.983,0.414 -8.731,-4.903 -16.798,-13.234c-7.416,-7.659 -14.445,-13.926 -15.619,-13.926c-4.824,0 4.499,19.845 16.686,35.518c7.91,10.172 5.706,11.861 -6.585,5.043c-3.935,-2.183 -9.107,-4.633 -11.494,-5.444c-3.944,-1.341 -4.339,-0.781 -4.339,6.157c0,16.737 -9.588,31.914 -35.366,55.978l-16.357,15.269l-14.153,-3.51c-16.823,-4.171 -34.403,-11.078 -34.403,-13.516c0,-2.715 5.336,-4.315 14.385,-4.315c5.2,-0 9.227,-1.249 10.815,-3.352c2.189,-2.902 0.513,-5.444 -12.459,-18.899c-8.243,-8.55 -17.298,-16.183 -20.121,-16.962c-5.664,-1.563 -9.975,-4.861 -9.975,-7.63c-0,-0.988 1.301,-1.245 2.892,-0.574c1.591,0.671 2.893,0.267 2.893,-0.9c-0,-2.985 -4.689,-4.613 -9.391,-3.261c-8.783,2.525 -56.176,-17.586 -56.176,-23.838c-0,-1.707 -2.82,-5.039 -6.267,-7.403c-6.148,-4.218 -13.765,-4.59 -21.213,-1.036c-2.793,1.333 -3.375,0.504 -3.375,-4.805c-0,-10.466 -1.82,-13.074 -16.19,-23.2c-7.535,-5.309 -17.606,-13.218 -22.379,-17.574c-4.773,-4.357 -11.281,-9.395 -14.463,-11.197c-3.182,-1.801 -12.294,-9.661 -20.249,-17.465c-7.954,-7.805 -24.86,-23.803 -37.568,-35.551c-24.246,-22.414 -30.712,-29.602 -36.077,-40.102c-4.769,-9.334 -11.237,-16.352 -19.22,-20.854c-9.041,-5.098 -14.455,-12.759 -17.819,-25.215c-3.476,-12.871 -11.116,-29.496 -21.476,-46.733c-10.977,-18.262 -15.742,-22.847 -27.115,-26.091c-15.694,-4.476 -55.234,-31.959 -61.777,-42.939c-1.794,-3.01 -3.15,-8.748 -3.013,-12.751c0.36,-10.519 -6.391,-18.707 -71.529,-86.762c-39.925,-41.713 -44.865,-48.856 -46.622,-67.417c-2.145,-22.662 -3.056,-25.06 -14.808,-38.95c-6.567,-7.762 -11.898,-16.189 -12.567,-19.865c-0.804,-4.421 -2.591,-6.779 -5.813,-7.668c-2.793,-0.771 -6.131,-4.47 -8.35,-9.253c-2.034,-4.383 -5.131,-8.574 -6.883,-9.313c-2.507,-1.059 -2.91,-2.961 -1.892,-8.928c1.197,-7.016 0.99,-7.477 -2.775,-6.164c-3.094,1.08 -6.115,-0.654 -12.611,-7.237c-4.697,-4.761 -9.408,-8.657 -10.468,-8.657c-2.675,-0 -8.376,9.985 -7.05,12.345c0.597,1.061 3.372,1.449 6.166,0.861c4.422,-0.929 4.918,-0.502 3.824,3.289c-1.028,3.56 -0.571,4.16 2.492,3.279c2.719,-0.782 4.124,0.287 5.107,3.887c0.747,2.731 5.265,10.505 10.041,17.276c8.792,12.463 9.93,18.539 1.984,10.58c-13.783,-13.802 -32.451,-11.63 -42.71,4.971c-5.966,9.654 -6.929,17.363 -1.155,9.246l3.771,-5.301l0.047,5.756c0.048,6.137 -4.459,10.147 -11.401,10.147c-5.02,0 -4.995,0.293 0.838,9.744c7.153,11.59 6.446,13.581 -4.821,13.581c-8.357,0 -9.642,0.566 -9.642,4.241c-0,2.825 -1.286,4.241 -3.852,4.241c-5.48,-0 -18.354,13.5 -23.053,24.173c-3.853,8.752 -26.45,34.237 -41.172,46.436c-3.94,3.264 -9.45,10.898 -12.246,16.963c-2.795,6.066 -9.026,14.846 -13.847,19.511c-4.821,4.665 -22.194,27.089 -38.607,49.83c-34.701,48.082 -52.642,71.454 -82.996,108.119c-12.08,14.591 -32.905,41.32 -46.277,59.397c-13.372,18.077 -36.815,49.089 -52.094,68.915c-15.28,19.826 -44.511,58.949 -64.958,86.939c-20.447,27.99 -49.885,66.635 -65.418,85.878c-15.533,19.243 -41.409,52.107 -57.503,73.031c-41.369,53.784 -43.055,55.729 -45.758,52.786c-1.738,-1.893 -1.475,-4.756 1.125,-12.24c1.866,-5.373 2.9,-10.312 2.297,-10.974c-0.603,-0.663 -4.911,2.661 -9.574,7.387c-8.516,8.631 -20.219,29.121 -18.017,31.543c0.649,0.713 3.772,-0.812 6.941,-3.387c3.169,-2.577 5.761,-4.04 5.761,-3.253c0,0.786 -4.772,11.215 -10.606,23.173c-11.62,23.821 -12.748,27.823 -6.867,24.362c2.631,-1.548 4.129,-1.51 5.05,0.129c1.924,3.424 -2.81,7.242 -12.646,10.2c-4.773,1.436 -23.519,10.761 -41.657,20.723l-32.978,18.113l-21.018,1.781c-11.56,0.979 -21.207,1.829 -21.438,1.888c-0.232,0.06 -1.715,2.732 -3.298,5.94c-2.659,5.389 -2.883,5.478 -2.954,1.165l-0.003,0.001Zm-116.747,-65.338c-0,-2.753 -1.503,-4.446 -4.339,-4.889c-3.196,-0.499 -4.339,0.386 -4.339,3.357c-0,2.219 0.608,4.704 1.352,5.522c2.558,2.813 7.326,0.216 7.326,-3.99Zm-112.188,-37.609c13.178,-14.281 23.214,-31.021 22.171,-36.978c-0.531,-3.032 -2.153,-2.205 -8.993,4.59c-11.337,11.262 -31.976,45.641 -27.401,45.641c1.096,-0 7.497,-5.964 14.223,-13.253Zm334.18,-21.171c3.06,-2.605 13.237,-12.147 22.617,-21.204c15.562,-15.027 25.388,-21.895 18.25,-12.757c-5.009,6.414 -5.811,9.012 -2.782,9.012c4.905,0 15.013,-10.99 18.622,-20.246c1.899,-4.871 8.811,-15.156 15.362,-22.855c6.795,-7.988 11.333,-15.024 10.567,-16.386c-2.217,-3.945 -25.969,2.213 -25.969,6.733c-0,1.025 -2.696,1.863 -5.992,1.863c-4.456,0 -5.715,0.793 -4.913,3.091c2.145,6.146 -31.992,54.395 -50.094,70.802c-8.475,7.682 -4.501,9.469 4.332,1.947Zm25.557,-66.603c5.368,-5.26 8.166,-9.637 7.714,-12.065c-0.562,-3.019 -3.726,-0.751 -15.245,10.934c-7.995,8.109 -17.974,19.383 -22.177,25.053l-7.642,10.311l14.464,-12.989c7.954,-7.144 18.253,-16.704 22.886,-21.244Zm53.57,19.247c9.508,-8.566 10.468,-11.52 3.745,-11.52c-4.913,-0 -14.634,10.673 -14.634,16.066c-0,4.475 1.637,3.791 10.889,-4.546Zm20.004,-25.354c1.342,-1.778 1.919,-3.804 1.284,-4.503c-1.975,-2.172 -7.108,1.069 -7.108,4.487c0,4.154 2.696,4.161 5.824,0.012l0,0.004Zm-391.813,-27.561c7.01,-6.486 17.962,-24.203 16.533,-26.745c-1.776,-3.16 -11.154,-1.991 -17.35,2.163c-7.193,4.824 -13.176,17.676 -11.548,24.808c1.496,6.551 5.112,6.485 12.365,-0.226l-0,0Zm395.71,-6.948c11.304,-12.781 22.523,-31.415 20.352,-33.802c-2.54,-2.793 -37.787,38.525 -37.787,44.295c0,5.114 7.764,0.443 17.435,-10.493Zm1176.27,-32.87c-0,-4.509 -4.266,-7.846 -10.028,-7.846c-6.224,-0 -6.657,1.319 -2.208,6.724c3.661,4.449 12.236,5.235 12.236,1.121l-0,0.001Zm-1134.82,-21.521c7.798,-3.583 9.058,-9.65 2.004,-9.65c-5.19,-0 -10.744,5.011 -10.744,9.693c-0,3.757 0.474,3.755 8.74,-0.047l-0,0.004Zm38.583,-43.18c21.024,-20.15 40.28,-43.093 45.586,-54.313c2.166,-4.579 8.181,-13.932 13.368,-20.784c5.186,-6.853 9.429,-13.792 9.429,-15.422c0,-1.629 3.037,-5.51 6.75,-8.623c6.752,-5.663 9.358,-12.487 3.888,-10.179c-5.334,2.251 -99.346,119.818 -99.346,124.238c-0,3.701 3.842,0.882 20.325,-14.917Zm-13.09,-22.882c17.697,-20.248 35.191,-43.984 35.191,-47.749c-0,-1.077 -2.17,-0.396 -4.821,1.514c-4.69,3.378 -4.822,3.332 -4.822,-1.712c0,-2.852 2.166,-9.88 4.813,-15.618c10.097,-21.882 2.985,-15.738 -18.606,16.075c-14.45,21.29 -21.529,33.962 -19.947,35.702c0.404,0.444 3.472,-1.335 6.817,-3.954l6.082,-4.762l-3.284,6.984c-1.807,3.842 -6.907,11.367 -11.334,16.724c-12.417,15.026 -13.728,17.155 -10.577,17.185c1.456,0.012 10.675,-9.161 20.488,-20.389Zm66.046,-112.534c-0,-4.296 -3.294,-3.353 -6.641,1.902c-4.95,7.771 -3.753,11.646 1.82,5.889c2.651,-2.739 4.821,-6.245 4.821,-7.791Zm50.087,-69.472c0.029,-1.092 -2.551,0.756 -5.733,4.108c-3.182,3.352 -5.762,7.586 -5.734,9.408c0.055,3.504 11.371,-9.834 11.467,-13.516Zm-10.901,-5.964c8.016,-10.845 18.667,-29.165 18.667,-32.108c-0,-1.167 -2.956,1.028 -6.568,4.878c-5.171,5.511 -8.314,7.064 -14.786,7.307c-5.107,0.191 -8.558,1.426 -9.112,3.258c-0.675,2.234 0.34,2.61 4.18,1.55c5.795,-1.599 6.34,0.393 2.425,8.858c-7.783,16.827 -5.051,20.117 5.194,6.257Zm-30.856,-22.535c20.252,-15.328 41.061,-49.031 30.273,-49.031c-3.488,0 -13.861,11.478 -17.541,19.409c-2.111,4.55 -8.148,13.505 -13.414,19.9c-13.478,16.364 -13.206,20.233 0.682,9.722l0,-0Zm68.807,0.8c3.123,-4.138 5.608,-4.015 10.147,0.501c3.52,3.503 3.83,3.489 6.345,-0.294c1.722,-2.589 2.279,-7.019 1.597,-12.694c-0.935,-7.771 -0.194,-9.967 6.823,-20.233c4.329,-6.333 7.872,-12.297 7.872,-13.253c-0,-2.722 -3.424,-2.033 -4.54,0.913c-0.66,1.745 -2.418,0.657 -5.142,-3.18c-2.277,-3.208 -5.368,-5.832 -6.871,-5.832c-3.071,0 -24.418,22.735 -27.723,29.526c-2.998,6.159 -0.012,5.607 10.925,-2.02c5.308,-3.701 9.502,-5.453 9.902,-4.134c0.381,1.258 -2.865,8.113 -7.213,15.235c-7.671,12.56 -9.699,18.646 -6.215,18.646c0.931,-0 2.773,-1.432 4.093,-3.181l0,-0Zm-93.472,-7.524c0.687,-1.222 0.728,-3.715 0.091,-5.539c-0.936,-2.682 -1.708,-2.816 -4.028,-0.7c-1.578,1.441 -2.87,3.934 -2.87,5.54c0,3.421 4.989,3.933 6.807,0.699l-0,0Zm138.961,-5.452c11.902,-9.99 29.168,-32.614 24.889,-32.614c-1.816,-0 -29.393,25.472 -36.509,33.722c-5.285,6.127 -5.392,6.566 -1.594,6.566c2.239,0 8.185,-3.453 13.214,-7.674Zm-9.331,-14.32c6.516,-10.699 7.566,-14.053 4.402,-14.053c-1.949,-0 -17.419,21.495 -17.419,24.203c0,4.683 7.587,-1.233 13.017,-10.15Zm-96.002,-26.647c1.331,-2.735 1.354,-4.553 0.067,-5.427c-2.885,-1.961 -5.79,0.76 -5.79,5.423c-0,5.294 3.147,5.296 5.722,0.004l0.001,-0Zm133.213,-42.72c1.184,-2.432 1.607,-5.022 0.94,-5.756c-1.808,-1.988 -7.685,2.696 -8.401,6.695c-0.905,5.058 4.898,4.327 7.461,-0.939Zm92.807,-52.098c3.758,-3.739 4.752,-9.213 1.673,-9.213c-2.191,-0 -9.717,8.521 -9.717,11.002c0,2.883 4.313,1.924 8.044,-1.789Zm16.164,-58.339c0.668,-2.313 0.626,-4.849 -0.094,-5.636c-1.702,-1.863 -8.982,7.994 -7.652,10.36c1.598,2.843 6.407,-0.094 7.744,-4.724l0.002,-0Zm12.556,-28.435c2.226,-2.948 1.757,-3.262 -3.954,-2.65c-3.564,0.381 -6.835,1.886 -7.27,3.344c-1.165,3.9 8.193,3.322 11.224,-0.694l0,0Zm22.161,-18.089c3.492,-7.424 2.332,-10.373 -4.078,-10.373c-3.453,0 -4.708,1.153 -4.708,4.327c0,2.379 -1.837,7.06 -4.084,10.4c-2.246,3.341 -3.487,7.137 -2.757,8.435c1.868,3.323 11.918,-4.901 15.627,-12.789Zm-60.079,-45.136c5.59,-2.569 13.701,-11.52 12.067,-13.317c-0.313,-0.344 -3.948,1.268 -8.078,3.583c-4.129,2.314 -9.493,4.208 -11.921,4.208c-3.127,0 -4.413,1.236 -4.413,4.241c-0,5.008 3.458,5.367 12.345,1.285Zm3.45,-15.598c7.509,-8.852 11.17,-17.494 7.411,-17.494c-3.421,0 -15.492,14.926 -15.492,19.155c-0,5.695 2.231,5.236 8.081,-1.661Zm150.051,-43.014c-0,-3.225 -6.029,-8.407 -9.78,-8.407c-4.944,0 -4.738,5.337 0.359,9.262c3.998,3.079 9.421,2.587 9.421,-0.855l-0,-0Zm-116.092,-0.349c2.745,-3.018 3.093,-10.178 0.495,-10.178c-1.001,0 -3.134,2.064 -4.741,4.587c-4.264,6.694 -0.848,11.193 4.245,5.591l0.001,0Zm191.804,-10.413c-1.435,-6.031 -2.435,-4.829 -2.402,2.886c0.023,4.685 0.562,5.968 1.692,4.006c0.914,-1.587 1.234,-4.688 0.71,-6.892Zm-97.889,-1.885c1.645,-3.499 2.505,-6.362 1.91,-6.362c-2.819,0 -10.588,7.181 -10.588,9.786c-0,5.294 5.621,3.076 8.678,-3.424Zm-61.228,-42.185c8.997,-14.636 11.2,-22.956 4.246,-16.035c-3.945,3.925 -17.263,26.698 -17.263,29.517c-0,4.296 5.748,-1.658 13.017,-13.482Zm-9.589,-31.091c4.544,-3.5 5.818,-9.422 2.027,-9.422c-3.202,-0 -9.312,6.477 -9.312,9.871c-0,3.727 2.024,3.602 7.285,-0.449l-0,-0Zm-134.287,-72.733c8.738,-9.607 11.57,-15.146 7.746,-15.146c-2.192,0 -17.222,16.336 -19.684,21.394c-3.66,7.52 2.212,4.447 11.938,-6.248Zm376.636,-7.394c2.706,-3.901 4.92,-8.235 4.92,-9.633c-0,-1.398 3.905,-7.132 8.678,-12.743c8.74,-10.274 10.163,-12.942 6.905,-12.942c-3.002,0 -23.322,21.468 -26.286,27.77c-3.177,6.756 -3.697,14.639 -0.966,14.639c1.007,0 4.044,-3.191 6.75,-7.091l-0.001,-0Zm-27.864,-22.595c0,-4.948 -0.857,-6.361 -3.857,-6.361c-3.899,-0 -4.826,3.235 -2.686,9.368c2.062,5.909 6.543,3.849 6.543,-3.007Zm81.088,-56.9c5.252,-8.553 9.549,-16.542 9.549,-17.753c-0,-6.307 -19.373,20.362 -28.814,39.666l-6.223,12.722l7.97,-9.542c4.383,-5.248 12.266,-16.54 17.518,-25.093Zm-50.211,-6.757c2.321,-4.77 1.095,-8.438 -2.822,-8.438c-2.658,-0 -4.913,4.459 -4.913,9.715c-0,4.505 5.35,3.622 7.735,-1.277Zm14.181,-50.922c-2.568,-2.824 -7.444,3.02 -5.463,6.546c0.964,1.715 2.249,1.438 4.423,-0.951c2.139,-2.353 2.453,-4.041 1.04,-5.595l-0,-0Zm26.295,-4.536c-0,-3.428 -5.684,-1.681 -7.646,2.351c-3.556,7.304 -2.137,9.505 2.824,4.38c2.652,-2.739 4.822,-5.768 4.822,-6.731Zm74.096,-29.611c1.792,-3.337 2.468,-6.067 1.501,-6.067c-1.96,-0 -17.786,24.038 -17.672,26.843c0.095,2.314 11.948,-12.916 16.171,-20.776Zm-79.517,10.821c6.102,-1.864 7.199,-3.143 7.713,-9c0.451,-5.14 1.435,-6.674 3.975,-6.205c2.001,0.37 3.375,-0.709 3.375,-2.65c-0,-1.801 -0.983,-3.274 -2.183,-3.274c-4.101,-0 -14.754,8.537 -19.886,15.936c-5.549,7.999 -4.567,8.727 7.006,5.193Zm-545.149,-103.827c0.656,-1.166 3.744,-2.12 6.864,-2.12c4.316,-0 5.671,-0.978 5.671,-4.09c0,-5.31 -3.728,-9.266 -13.914,-14.764c-4.545,-2.453 -13.863,-9.71 -20.708,-16.128c-12.202,-11.44 -19.374,-14.644 -19.374,-8.655c0,4.404 17.173,22.565 24.536,25.947c5.322,2.446 6.319,4.003 6.319,9.873c0,9.651 7.053,16.259 10.606,9.937Zm210.336,-47.18c-3.913,-4.956 -8.123,-11.645 -9.357,-14.862c-2.44,-6.361 -4.78,-6.583 -7.997,-0.759c-1.727,3.128 -0.384,5.454 8.193,14.187c12.975,13.212 19.23,14.191 9.161,1.434l-0,0Zm-53.168,-2.506c0,-3.68 -9.939,-11.807 -14.439,-11.807c-4.749,0 -2.571,4.619 4.749,10.072c7.442,5.545 9.69,5.947 9.69,1.735Zm-196.389,-13.99c-1.468,-16.562 -24.086,-53.073 -37.628,-60.74c-3.34,-1.892 -9.233,-7.008 -13.094,-11.37c-3.862,-4.363 -12.52,-12.038 -19.242,-17.057c-6.721,-5.019 -15.343,-12.628 -19.16,-16.91c-6.874,-7.712 -21.408,-15.125 -35.248,-17.98c-5.861,-1.209 -7.073,-0.849 -7.073,2.097c-0,7.305 11.566,24.482 16.485,24.482c1.324,-0 1.912,2.028 1.415,4.884c-0.631,3.63 0.363,5.492 3.873,7.25c13.036,6.531 68.775,64.477 71.67,74.508c0.802,2.776 2.944,4.562 5.519,4.601c2.315,0.036 9.416,3.377 15.78,7.425c14.236,9.056 17.591,8.817 16.703,-1.19Zm-93.359,-87.122c-10.325,-9.971 -13.948,-16.718 -8.975,-16.718c6.215,0 22.431,19.876 20.705,25.379c-0.352,1.126 -5.631,-2.772 -11.73,-8.661Zm321.236,74.555c1.771,-1.882 -3.834,-9.131 -44.696,-57.809c-27.951,-33.298 -44.819,-50.427 -49.658,-50.427c-1.411,-0 -3.494,-1.909 -4.629,-4.241c-1.135,-2.333 -3.986,-4.262 -6.335,-4.288c-6.735,-0.07 -20.64,-7.825 -32.716,-18.239c-6.099,-5.259 -11.089,-9.142 -11.089,-8.63c0,0.513 1.787,5.373 3.971,10.801c2.242,5.573 3.443,11.694 2.759,14.062c-0.809,2.805 -0.169,4.634 1.934,5.521c2.183,0.921 2.961,3.35 2.544,7.941c-0.594,6.539 -0.51,6.607 7.371,5.926c7.65,-0.66 8.342,-0.187 17.094,11.663c18.399,24.913 53.186,62.99 71.846,78.64c13.045,10.941 35.285,15.795 41.604,9.08Zm-438.736,-93.029c0.339,-2.533 -0.282,-4.605 -1.379,-4.605c-2.558,0 -6.251,7.484 -4.593,9.307c2.239,2.463 5.34,0.024 5.972,-4.702Zm37.704,4.14c3.367,-1.455 3.303,-1.777 -0.964,-4.821c-14.016,-9.997 -49.891,-20.709 -49.891,-14.896c-0,3.025 6.327,6.731 11.491,6.731c2.537,0 4.718,1.986 5.884,5.358c1.019,2.947 3.818,6.226 6.22,7.287c5.235,2.313 22.206,2.525 27.26,0.342l-0,-0.001Zm132.346,-6.334c0,-3.583 -19.454,-21.77 -22.579,-21.108c-5.164,1.093 -3.521,4.651 3.992,8.642c3.859,2.05 7.017,4.96 7.017,6.467c-0,1.507 1.041,3.885 2.314,5.284c2.663,2.928 9.256,3.437 9.256,0.715l0,-0Zm-86.653,-23.69c2.052,-1.207 3.73,-3.162 3.73,-4.343c0,-2.83 -11.626,-8.148 -14.844,-6.791c-3.631,1.532 -3.085,8.51 0.863,11.039c4.317,2.764 5.694,2.777 10.251,0.094l0,0.001Zm200.169,-15.921c1.367,-7.758 -5.438,-17.328 -15.635,-21.987c-12.178,-5.565 -13.029,-5.531 -13.029,0.521c-0,8.822 19.56,28.462 26.033,26.139c1.061,-0.38 2.245,-2.484 2.631,-4.674l-0,0.001Zm11.833,-21.476c-0,-2.138 -6.146,-9.178 -8.013,-9.178c-2.412,-0 -1.976,5.132 0.685,8.057c2.481,2.728 7.328,3.47 7.328,1.121l-0,0Zm741.587,-28.618c0.667,-2.313 0.677,-4.796 0.023,-5.518c-1.843,-2.027 -9.434,7.27 -8.008,9.808c1.804,3.209 6.562,0.654 7.989,-4.29l-0.004,-0Zm12.432,-20.049c0,-3.809 -2.775,-3.728 -5.715,0.167c-3.177,4.209 -0.675,8.585 2.994,5.237c1.497,-1.365 2.721,-3.797 2.721,-5.404l0,0Zm70.84,-9.282c0.645,0 2.766,1.586 4.714,3.523c3.377,3.362 3.485,3.218 2.329,-3.135c-1.035,-5.686 -0.537,-6.941 3.401,-8.588c2.537,-1.06 9.541,-6.342 15.564,-11.737c6.023,-5.395 14.737,-11.593 19.365,-13.775c4.628,-2.181 15.286,-11.233 23.684,-20.114c8.398,-8.882 15.83,-16.149 16.516,-16.149c0.686,0 2.327,1.431 3.647,3.181c1.321,1.749 4.462,3.18 6.981,3.18c6.223,0 19.818,-13.878 24.181,-24.684c2.427,-6.012 5.106,-9.213 8.494,-10.147c3.755,-1.037 4.791,-2.499 4.296,-6.062c-0.402,-2.889 -1.749,-4.393 -3.5,-3.908c-1.566,0.434 -4.564,1.318 -6.664,1.965c-2.923,0.901 -2.117,-1.007 3.447,-8.153c8.525,-10.953 10.42,-17.451 7.537,-25.85c-1.819,-5.3 -1.666,-6.027 1.152,-5.439c1.907,0.397 3.503,3.08 3.861,6.49c0.693,6.592 1.703,6.963 6.99,2.565c5.286,-4.396 6.863,-3.893 6.863,2.188c0,2.916 0.935,5.301 2.077,5.301c3.636,0 13.351,-12.225 13.351,-16.8c0,-2.908 1.241,-4.404 3.651,-4.404c3.794,-0 5.991,-3.899 5.991,-10.635c0,-2.707 1.647,-4.135 5.303,-4.598c6.516,-0.824 8.225,-8.561 3.231,-14.628c-4.056,-4.928 -8.189,-5.156 -13.89,-0.766c-2.357,1.816 -4.286,2.48 -4.286,1.476c0,-3.541 11.076,-20.752 17.071,-26.527c3.339,-3.217 6.07,-7.702 6.07,-9.967c0,-2.266 1.436,-5.003 3.19,-6.082c2.797,-1.722 2.572,-2.408 -1.834,-5.582c-7.853,-5.658 -12.062,-3.655 -11.352,5.403c0.685,8.738 -4.351,15.765 -7.405,10.332c-2.273,-4.044 -10.806,4.537 -15.301,15.389c-1.797,4.337 -5.521,9.835 -8.275,12.218c-9.999,8.648 -8.503,26.771 2.004,24.288l5.226,-1.235l-5.544,5.583c-3.049,3.07 -6.737,5.048 -8.196,4.396c-1.459,-0.652 -3.887,-1.736 -5.396,-2.41c-3.894,-1.737 -11.328,7.068 -10.15,12.023c0.851,3.577 -0.142,4.045 -8.595,4.045c-16.73,-0 -24.764,7.503 -32.558,30.407c-2.975,8.745 -5.068,12.002 -7.712,12.002c-2.445,-0 -4.879,3.11 -7.466,9.542c-3.26,8.102 -4.671,9.542 -9.357,9.542c-3.84,-0 -9.402,3.522 -18.286,11.579c-14.261,12.935 -47.24,53.107 -51.472,62.7c-2.484,5.628 -2.392,6.645 0.964,10.749l3.707,4.533l0.604,-6.613c0.332,-3.636 1.132,-6.612 1.777,-6.612l0,0Zm-21.719,-54.279c3.423,-5.744 2.456,-9.808 -1.897,-7.971c-3.106,1.31 -10.584,13.668 -10.584,17.49c0,3.506 8.651,-3.091 12.481,-9.519Zm36.545,-32.991c12.716,-9.261 37.447,-46.27 35.411,-52.989c-0.87,-2.869 -32.441,32.322 -38.323,42.717c-3.635,6.423 -5.555,7.98 -8.781,7.12c-5.586,-1.49 -8.023,3.358 -3.511,6.986c4.747,3.817 4.674,3.835 15.204,-3.834Zm127.23,-33.883c5.198,-2.605 8.302,-8.239 4.475,-8.124c-3.936,0.118 -13.977,10.532 -10.155,10.532c0.481,-0 3.036,-1.084 5.68,-2.408Zm-77.905,-34.7c1.957,-2.593 1.852,-3.181 -0.571,-3.181c-4.39,0 -9.072,2.306 -9.072,4.468c0,3.093 7.047,2.152 9.643,-1.287l-0,-0Zm131.94,-34.154c5.835,-2.463 2.997,-5.075 -5.514,-5.075c-8.163,0 -12.049,2.073 -9.382,5.006c1.563,1.718 10.884,1.762 14.896,0.068l-0,0.001Zm-68.302,-28.508c0,-3.617 -0.595,-3.931 -3.837,-2.024c-4.765,2.804 -10.289,14.144 -8.468,17.383c1.845,3.284 12.305,-9.772 12.305,-15.359Zm79.066,-23.217c0,-2.356 -1.285,-4.241 -2.893,-4.241c-2.935,0 -3.955,4.486 -1.607,7.069c2.445,2.688 4.5,1.397 4.5,-2.828Zm-59.973,-2.65c1.77,-5.235 0.526,-11.387 -1.744,-8.625c-0.783,0.953 -1.986,4.357 -2.673,7.565c-1.521,7.096 2.084,7.962 4.417,1.06l0,-0Zm22.014,-19.506c8.362,-3.279 15.229,-9.324 13.694,-12.054c-0.568,-1.011 -4.438,-1.837 -8.602,-1.837c-5.589,-0 -9.171,1.573 -13.693,6.016c-3.565,3.503 -5.544,7.046 -4.737,8.482c1.747,3.108 4.143,2.999 13.338,-0.607l0,0Zm27.835,-3.974c5.031,-4.981 5.554,-7.797 1.446,-7.797c-3.79,0 -10.606,7.576 -10.606,11.788c-0,3.708 2.469,2.632 9.16,-3.991Zm119.398,-40.521c-1.398,-4.005 -7.067,-4.459 -7.067,-0.567c0,1.516 1.042,3.902 2.314,5.301c2.937,3.229 6.346,-0.167 4.753,-4.734l-0,-0Zm-98.667,-62.343c2.121,-2.061 6.026,-6.445 8.677,-9.742l4.822,-5.994l-6.75,3.698c-7.41,4.061 -15.427,11.427 -15.427,14.175c-0,2.95 4.609,1.815 8.678,-2.137Zm12.534,-84.747c0,-3.8 -3.419,-8.906 -5.964,-8.906c-2.115,-0 -3.666,6.048 -2.447,9.542c1.593,4.564 8.411,4.048 8.411,-0.636l0,-0Zm-1611.04,2094.89c-1.3,-2.311 8.17,-7.148 10.67,-5.449c2.708,1.84 -1.879,7.259 -6.146,7.259c-1.929,0 -3.965,-0.815 -4.524,-1.81Zm1457.73,-182.137l-0,-7.954l-13.002,0.747c-15.3,0.879 -16.774,-0.896 -13.014,-15.663c2.402,-9.432 6.281,-12.338 8.393,-6.288c1.468,4.208 7.016,4.098 7.016,-0.14c0,-1.826 -0.98,-5.404 -2.178,-7.952c-2.114,-4.494 0.023,-2.782 12.722,10.212c5.912,6.047 10.669,14.991 10.669,20.061c-0,4.741 -6.661,14.923 -9.766,14.928c-0.462,0.001 -0.84,-3.578 -0.84,-7.952l-0,0.001Zm29.326,-25.955c1.373,-5.771 10.68,-16.483 11.622,-13.376c0.97,3.199 -4.805,12.929 -9.213,15.523c-2.796,1.646 -3.221,1.267 -2.409,-2.147Zm-73.319,-65.006c-2.649,-2.913 -1.275,-7.412 2.049,-6.708c1.856,0.393 3.375,2.053 3.375,3.689c-0,3.348 -3.403,5.242 -5.424,3.019Zm338.079,-120.681c0,-3.078 0.835,-4.859 1.929,-4.116c1.06,0.72 1.928,3.163 1.928,5.426c0,2.264 -0.868,4.116 -1.928,4.116c-1.061,-0 -1.929,-2.442 -1.929,-5.426Zm-150.411,-123.392c0.012,-3.104 7.681,-15.373 9.607,-15.373c3.304,0 2.168,9.735 -1.57,13.454c-3.658,3.641 -8.049,4.689 -8.037,1.919Zm-8.363,-31.63c-2.985,-3.282 -0.931,-5.311 4.017,-3.967c8.075,2.193 9.922,5.381 3.118,5.381c-3.217,-0 -6.428,-0.637 -7.135,-1.414Zm-426.025,-2.997c-4.408,-2.824 -4.345,-8.312 0.095,-8.312c4.061,0 8.099,3.912 8.099,7.846c0,3.27 -3.505,3.47 -8.196,0.466l0.002,0Zm-34.229,-27.396c3.785,-2.69 11.023,-2.69 12.535,0c0.725,1.29 -2.063,2.108 -7.118,2.088c-6.076,-0.024 -7.532,-0.585 -5.417,-2.088Zm356.761,-63.555c-0,-6.607 6.488,-30.21 9.925,-36.106c1.25,-2.144 1.473,0.276 0.686,7.421c-2.492,22.616 -10.611,44.564 -10.611,28.685l-0,-0Zm-76.44,-56.251c-2.623,-7.516 6.856,-16.686 16.051,-15.527l5.428,0.684l-8.196,9.012c-8.78,9.655 -11.528,10.861 -13.283,5.831l-0,0Zm22.47,-29.156c0.012,-2.683 4.699,-10.803 10.701,-18.554c11.243,-14.517 23.984,-39.799 23.984,-47.59c0,-2.536 1.357,-6.463 3.015,-8.727c2.816,-3.845 2.959,-3.45 2.16,6.009c-1.094,12.952 -17.92,50.602 -28.549,63.879c-8.701,10.869 -11.35,12.036 -11.311,4.983Zm-842.754,-307.032c0,-3.438 9.107,-12.626 12.515,-12.626c3.981,-0 0.876,6.839 -5.245,11.553c-4.982,3.837 -7.27,4.175 -7.27,1.073l0,0Zm-44.542,-177.492c-7.895,-9.038 -21.169,-24.782 -29.498,-34.987c-8.328,-10.205 -16.052,-18.554 -17.164,-18.554c-1.112,-0 -3.491,1.462 -5.286,3.248c-3.008,2.994 -3.35,2.55 -4.352,-5.666c-0.677,-5.554 -4.077,-13.678 -9.017,-21.55c-4.361,-6.949 -7.656,-13.534 -7.323,-14.633c0.722,-2.382 19.627,18.803 42.961,48.143c9.275,11.663 23.261,29.192 31.079,38.954c12.266,15.315 16.165,21.479 13.586,21.479c-0.347,-0 -7.09,-7.395 -14.986,-16.434Zm4.045,-36.577c-0,-4.435 1.495,-5.105 6.592,-2.954c4.877,2.058 3.613,7.195 -1.771,7.195c-3.536,-0 -4.821,-1.131 -4.821,-4.241Zm35.966,-7.354c-0.597,-1.712 -0.218,-3.703 0.843,-4.424c2.429,-1.65 7.869,3.124 6.446,5.656c-1.659,2.951 -6.09,2.201 -7.289,-1.232Zm-41.162,-12.724c-7.046,-6.816 -3.313,-6.933 4.232,-0.132c3.182,2.868 4.749,5.249 3.482,5.291c-1.267,0.047 -4.738,-2.279 -7.714,-5.158l0,-0.001Zm10.017,-21.306c-6.364,-5.166 -13.038,-9.418 -14.832,-9.45c-4.639,-0.083 -5.709,-3.048 -2.721,-7.541c2.271,-3.416 3.272,-3.55 8.543,-1.15c9.379,4.272 28.319,28.025 22.027,27.626c-0.796,-0.048 -6.653,-4.319 -13.017,-9.485l-0,0Zm-116.509,-17.764c-6.058,-8.411 -7.47,-12.948 -4.031,-12.948c2.069,0 13.512,16.432 13.512,19.402c-0,3.986 -3.847,1.366 -9.481,-6.454Zm692.298,-22.291c-2.719,-3.602 -1.273,-7.62 2.742,-7.62c4.176,-0 5.563,4.334 2.473,7.731c-2.453,2.698 -3.105,2.684 -5.215,-0.106l0,-0.005Zm-711.744,-4.44c-2.491,-2.915 -3.661,-5.301 -2.601,-5.301c1.061,0 3.967,2.386 6.458,5.301c2.491,2.916 3.661,5.301 2.601,5.301c-1.061,0 -3.967,-2.385 -6.458,-5.301Zm26.959,-0.047c-2.513,-2.941 -7.221,-6.098 -10.461,-7.014c-4.482,-1.268 -6.037,-3.032 -6.502,-7.375c-0.885,-8.286 3.69,-7.283 11.798,2.585c6.295,7.663 12.065,17.152 10.429,17.152c-0.383,-0 -2.752,-2.407 -5.264,-5.348Zm9.689,-19.029c-2.488,-2.911 -4.094,-5.764 -3.571,-6.34c0.524,-0.575 3.437,1.807 6.475,5.293c3.038,3.487 4.645,6.339 3.571,6.339c-1.075,0 -3.988,-2.381 -6.475,-5.292Zm769.736,-3.125c0.367,-2.768 1.752,-5.426 3.078,-5.906c3.47,-1.257 2.972,4.81 -0.667,8.131c-2.688,2.452 -2.994,2.17 -2.411,-2.225Zm-821.362,-23.326c-7.708,-8.031 -16.966,-15.673 -20.573,-16.982c-3.607,-1.309 -7.963,-4.737 -9.68,-7.618c-1.717,-2.882 -7.212,-8.064 -12.211,-11.516l-9.089,-6.276l7.846,-0.035c4.315,-0.024 12.345,1.429 17.844,3.224c8.282,2.705 10.458,4.476 12.677,10.315c2.959,7.786 10.423,11.807 22.184,11.951l6.944,0.082l-5.303,3.164c-5.575,3.326 -7.367,11.51 -2.52,11.51c1.531,-0 4.134,2.121 5.785,4.713c3.122,4.9 4.071,12.316 1.556,12.161c-0.795,-0.047 -7.752,-6.659 -15.46,-14.69l-0,-0.003Zm42.642,-5.456c-0.628,-1.8 -0.622,-3.844 0.013,-4.543c1.667,-1.834 7.194,3.694 5.935,5.935c-1.646,2.928 -4.69,2.216 -5.949,-1.392l0.001,0Zm-47.217,-32.705c-3.661,-3.354 -3.919,-4.184 -1.315,-4.241c2.874,-0.059 9.297,5.12 9.297,7.503c0,2.142 -3.76,0.605 -7.982,-3.262Zm-44.085,-11.167c-3.713,-1.069 -9.943,-5.34 -13.846,-9.491c-4.197,-4.464 -8.255,-7.057 -9.935,-6.349c-1.562,0.659 -3.352,0.637 -3.976,-0.047c-1.875,-2.061 2.892,-6.94 6.78,-6.94c4.708,-0 4.577,-1.026 -1.2,-9.354c-8.619,-12.425 -6.021,-15.278 10.632,-11.676c12.735,2.755 17.1,6.187 7.869,6.187c-3.791,-0 -6.529,1.434 -7.827,4.101c-2.914,5.988 -2.439,16.18 0.896,19.224c2.446,2.232 2.893,1.781 2.893,-2.922c-0,-9.118 8.438,-5.581 15.742,6.599c6.327,10.551 3.695,14.049 -8.028,10.672l-0,-0.004Zm20.57,-15.763c-2.349,-2.582 -1.329,-7.068 1.607,-7.068c1.607,0 2.892,1.885 2.892,4.241c0,4.225 -2.055,5.516 -4.499,2.827Zm928.198,-43.067c1.122,-2.306 3.86,-5.264 6.085,-6.573c3.263,-1.92 3.757,-1.827 2.555,0.482c-4.604,8.843 -12.788,14.612 -8.64,6.091l-0,0Zm-29.735,-13.463c-4.513,-3.628 -2.9,-9.365 4.918,-17.489l5.971,-6.204l-1.392,11.662c-1.931,16.173 -2.869,17.361 -9.497,12.031Zm-1078.61,-33.301c-2.386,-1.055 -4.339,-3.38 -4.339,-5.167c0,-4.261 9.542,-4.332 14.577,-0.106c3.24,2.718 3.355,3.427 0.851,5.269c-3.456,2.542 -5.349,2.543 -11.089,0.006l0,-0.002Zm1096.8,-1.874c0,-2.391 17.224,-19.264 19.665,-19.264c2.645,-0 -4.529,12.578 -9.8,17.185c-4.876,4.261 -9.865,5.312 -9.865,2.079Zm-574.076,-24.565c0.011,-6.998 0.37,-9.605 0.799,-5.794c0.429,3.812 0.421,9.537 -0.023,12.723c-0.441,3.186 -0.792,0.071 -0.781,-6.929l0.005,-0Zm657.964,-5.301c7.422,-8.359 8.678,-9.443 8.678,-7.496c-0,2.224 -12.129,15.977 -14.091,15.977c-1.165,0 1.27,-3.816 5.413,-8.481Zm-658.186,-32.867c0.035,-3.499 0.471,-4.674 0.96,-2.611c0.489,2.063 0.457,4.926 -0.071,6.362c-0.528,1.435 -0.928,-0.253 -0.889,-3.751Zm-110.297,-30.639c-0,-5.582 28.275,-22.318 52.068,-30.82c16.432,-5.872 20.835,-8.993 26.304,-18.649c2.788,-4.923 5.396,-9.359 5.795,-9.858c0.399,-0.498 2.485,1.172 4.637,3.711c5.81,6.858 21.903,6.5 30.759,-0.684c6.993,-5.673 9.642,-6.556 9.642,-3.211c0,2.299 -16.11,11.52 -33.008,18.892c-5.957,2.6 -15.915,9.452 -22.128,15.229c-10.898,10.132 -19.938,14.643 -29.394,14.668c-2.475,0.006 -11.001,2.874 -18.948,6.373c-14.312,6.301 -25.727,8.231 -25.727,4.349Zm142.704,-64.794c4.407,-5.877 18.882,-12.221 24.405,-10.697c7.647,2.11 5.001,8.343 -4.181,9.851c-4.229,0.694 -11.16,2.037 -15.402,2.983c-7.309,1.63 -7.562,1.518 -4.822,-2.137Zm40.498,-14.654c-0,-1.653 1.084,-3.432 2.41,-3.955c3.316,-1.307 9.528,2.468 8.136,4.944c-1.804,3.211 -10.546,2.391 -10.546,-0.989l-0,-0Zm-865.493,-8.659c0.039,-3.499 0.471,-4.673 0.96,-2.61c0.489,2.063 0.457,4.926 -0.071,6.361c-0.528,1.436 -0.928,-0.252 -0.889,-3.751l-0,0Zm8.607,-10.974c-2.295,-2.523 -1.327,-8.804 1.904,-12.356c2.326,-2.559 3.549,-2.819 4.584,-0.977c2.744,4.881 -3.154,16.999 -6.488,13.333l-0,-0Zm9.337,-21.395c-5.161,-3.187 -5.355,-3.646 -1.802,-4.252c5.395,-0.92 14.857,3.233 13.375,5.871c-1.672,2.974 -4.858,2.528 -11.573,-1.619Zm1227.45,-23.355c-0,-3.931 12.945,-18.748 14.697,-16.822c0.828,0.911 -2.14,5.665 -6.596,10.564c-4.456,4.9 -8.101,7.716 -8.101,6.258Zm44.354,-21.673c0,-2.851 1.286,-4.24 3.925,-4.24c3.327,-0 3.61,0.645 1.86,4.24c-1.135,2.333 -2.901,4.241 -3.924,4.241c-1.023,0 -1.861,-1.908 -1.861,-4.241Zm23.211,-61.102c-0.095,-6.581 3.268,-13.113 6.748,-13.113c4.169,-0 3.427,4.467 -1.937,11.662c-4.591,6.158 -4.744,6.205 -4.811,1.451Zm19.215,-23.051c-0,-1.086 1.274,-3.827 2.831,-6.091c2.379,-3.458 2.841,-3.564 2.893,-0.664c0.035,1.898 -1.241,4.639 -2.832,6.09c-1.591,1.452 -2.892,1.751 -2.892,0.665l-0,0Zm19.045,-25.779c7.546,-10.476 32.965,-38.3 37.361,-40.896c6.925,-4.09 2.803,1.565 -18.213,24.987c-21.629,24.106 -30.152,31.187 -19.148,15.909Zm-1282.65,-48.194c-5.474,-3.265 -7.265,-9.389 -2.747,-9.389c2.591,-0 10.942,8.6 10.942,11.269c0,2.168 -2.291,1.642 -8.195,-1.88Zm49.175,-20.579c-4.82,-2.423 -5.797,-5.774 -1.683,-5.774c2.688,-0 8.174,5.835 6.779,7.209c-0.417,0.41 -2.71,-0.236 -5.096,-1.435Zm1678.03,-4.62c3.447,-15.099 8.872,-22.889 8.872,-12.739c-0,6.065 -5.521,17.946 -8.339,17.946c-0.947,0 -1.186,-2.343 -0.532,-5.207l-0.001,-0Zm-1720.42,-23.828c1.876,-0.538 4.479,-0.502 5.785,0.079c1.306,0.581 -0.229,1.021 -3.411,0.978c-3.182,-0.044 -4.251,-0.519 -2.374,-1.057l-0,-0Zm1698.43,-30.64c-0,-3.157 18.067,-23.022 20.937,-23.022c5.312,-0 0.147,11.41 -9.322,20.593c-5.217,5.059 -11.615,6.397 -11.615,2.429Zm-1603.61,-19.801c-3.103,-2.604 -3.279,-3.477 -1.025,-5.105c4.18,-3.022 14.823,2.365 12.574,6.365c-1.614,2.871 -7.373,2.243 -11.549,-1.26Zm1588.18,-8.867c0,-2.587 12.055,-22.095 13.006,-21.049c1.454,1.598 -3.04,14.305 -6.579,18.605c-3.168,3.85 -6.427,5.089 -6.427,2.444Zm21.213,-2.836c0,-3.194 1.008,-4.339 3.375,-3.837c1.856,0.393 3.375,2.119 3.375,3.837c-0,1.717 -1.519,3.444 -3.375,3.837c-2.368,0.501 -3.375,-0.643 -3.375,-3.837Zm-340.629,-70.86c-3.942,-3.811 -4.644,-5.362 -2.449,-5.41c3.369,-0.073 10.717,7.739 9.026,9.597c-0.578,0.636 -3.537,-1.248 -6.577,-4.187Zm271.535,-23.814c0.373,-2.133 2.267,-4.215 4.207,-4.626c2.547,-0.539 3.339,0.331 2.848,3.132c-0.373,2.134 -2.267,4.216 -4.207,4.626c-2.548,0.54 -3.339,-0.33 -2.848,-3.132Z" style="fill:#891313;fill-rule:nonzero;"/><g><path d="M1863.29,627.482l27.599,-1.971l1.275,17.858l9.741,-0.696l26.324,-19.829l46.906,5.625l45.631,-12.234l28.237,6.958l27.773,-10.958l111.845,0.987l147.098,-19.479l66.214,13.22l9.104,-9.625l8.929,-0.637c28.256,-0.387 57.014,10.07 86.275,31.368l18.67,-1.333l-2.029,-28.411l18.67,-1.333c1.894,26.517 12.427,44.53 31.599,54.039c88.749,69.81 139.868,134.421 153.357,193.832c22.999,32.624 38.537,75.028 46.615,127.211l10.437,9.045l-9.103,9.625l0.637,8.929l20.699,27.077l-6.32,37.166l16.233,101.641c-45.228,257.783 -98.147,388.839 -158.757,393.167c-23.347,15.809 -34.189,35.349 -32.528,58.619l-46.906,-5.625c1.314,18.399 -13.452,28.7 -44.298,30.903l0.638,8.929l-29.049,-6.9l-91.9,15.538l-9.567,-8.292l-9.74,0.696l-36.702,11.596l-8.93,0.638l-9.566,-8.292c-24.005,14.225 -57.653,22.883 -100.946,25.974l-27.599,1.971l-10.436,-9.045l-8.233,10.379l-9.741,0.695l-55.894,-5.798l-80.942,43.31l-18.67,1.334c-12.446,0.889 -19.559,-11.113 -21.336,-36.007c-43.293,3.092 -67.142,-26.208 -71.548,-87.9l52.706,-50.269l9.566,8.292l17.395,-19.192l56.647,4.929l8.929,-0.637c-1.314,-18.4 4.253,-28.044 16.699,-28.933l28.933,16.699l9.045,-10.436l-10.379,-8.234l-0.695,-9.74l16.698,-28.933l-21.974,-44.935l2.437,-102.975l-11.712,-26.903l5.103,-65.634l-12.408,-36.644l7.133,-37.224l-11.77,-27.715l7.77,-28.295l-20.004,-17.336l24.295,-48.24l-9.567,-8.292l-0.695,-9.741l5.624,-46.906c-10.474,-62.89 -22.534,-102.279 -36.178,-118.166c-1.353,-18.94 7.17,-29.068 25.57,-30.382l-0.638,-8.929l-30.903,-44.297l-64.302,13.566l-8.929,0.638c-46.771,0.077 -88.846,-21.667 -126.223,-65.23l-2.667,-37.34l25.628,-29.57l-10.9,-26.961Zm446.452,116.605l-46.269,3.304l2.667,37.34l-46.907,-5.625l0.638,8.929c4.174,43.216 11.673,64.437 22.496,63.664l-8.292,9.567l0.696,9.74l10.9,26.962l-4.929,56.647l23.308,63.606c-9.2,0.657 -17.53,13.49 -24.991,38.499l36.528,-2.609l0.696,9.741l-18.67,1.333l4.638,64.939l-8.292,9.567l32.933,72.708l-14.728,56.532l1.971,27.598l13.045,45.574c-14.07,1.005 -20.178,44.954 -18.324,131.848c11.906,-0.85 19.192,17.395 21.859,54.735l111.207,-7.942l29.744,16.64c-1.314,-18.399 33.553,-51.892 104.599,-100.479l-11.77,-27.715l9.741,-0.696c15.153,-1.082 23.251,-17.162 24.295,-48.24c15.693,-1.121 26.382,-26.632 32.064,-76.534c10.823,-0.773 19.463,-51.159 25.92,-151.157l-0.638,-8.929l-8.929,0.638l1.275,17.858l-18.67,1.334l-12.233,-45.632l28.932,16.699l-1.971,-27.599l-20.641,-26.265c12.447,-0.889 17.549,-17.027 15.308,-48.414l8.929,-0.638l-30.903,-44.298l-0.638,-8.929l9.103,-9.625l-76.881,-162.579c-18.94,1.352 -29.067,-7.171 -30.381,-25.57l-45.632,12.233c-1.12,-15.693 -17.2,-23.792 -48.239,-24.295l-9.625,-9.103l-0.638,-8.929l-64.301,13.567Z" style="fill-rule:nonzero;"/><path d="M3196.45,456.396l57.343,14.67l-0.638,-8.929c76.303,-5.449 160.82,35.564 253.55,123.039c1.314,18.399 14.417,26.71 39.31,24.932l66.735,146.171l35.773,101.061l-9.741,0.696l34.382,81.58l0.695,9.74l-18.669,1.334l0.637,8.929l20.699,27.077l5.333,74.68c2.242,31.387 -2.861,47.525 -15.307,48.414l21.336,36.006l-30.673,96.016l9.625,9.104l0.638,8.929l-81.292,175.507c-65.635,48.201 -97.776,81.771 -96.423,100.712l-8.93,0.638l-29.744,-16.641l-43.08,59.372l-20.003,-17.337l-37.34,2.667c-12.447,0.889 -17.994,10.803 -16.641,29.744l-8.929,0.638c-12.447,0.888 -19.346,-8.137 -20.699,-27.078l-18.67,1.333l-9.103,9.625l-9.567,-8.291l-9.741,0.695l-27.077,20.699c-0.889,-12.446 -13.78,-17.781 -38.673,-16.003c-1.121,-15.693 -17.22,-24.062 -48.298,-25.106c-0.657,-9.2 -23.463,-20.081 -68.417,-32.644c-1.314,-18.4 -14.418,-26.71 -39.311,-24.933l-64.068,-108.831c-24.815,-19.984 -39.252,-46.965 -43.311,-80.942l-10.436,-9.045c-1.314,-18.399 -8.194,-27.155 -20.641,-26.266l9.045,-10.436l-1.333,-18.67l-20.699,-27.077l-0.638,-8.929l-18.436,-121.065l7.074,-38.035l-16.407,-92.654l-1.334,-18.67l25.744,-39.369l-10.436,-9.045l-0.696,-9.741l20.411,-114.048l-10.379,-8.234c14.07,-1.005 27.967,-27.289 41.69,-78.853c40.471,-65.441 80.923,-112.115 121.356,-140.023c1.469,-25.125 22.497,-39.137 63.083,-42.035c-0.888,-12.447 29.552,-24.14 91.321,-35.078Zm-185.023,436.653l9.625,9.103l0.638,8.929l-6.263,37.977l9.625,9.104l-17.337,20.003l12.408,36.644l-7.77,28.295c31.038,76.651 48.432,141.223 52.181,193.715l-9.741,0.695l0.695,9.741c24.777,42.288 48.259,62.64 70.447,61.055c19.945,20.332 30.69,41.322 32.236,62.968l9.741,-0.696c-1.314,-18.399 4.252,-28.043 16.699,-28.932c2.667,37.34 25.917,54.444 69.75,51.314l20.004,17.336l8.233,-10.378l10.437,9.045l83.608,-5.971c73.25,-71.045 116.06,-130.398 128.43,-178.058c-18.399,1.314 -28.062,-4.523 -28.99,-17.511l54.676,-22.669l-5.333,-74.68l16.699,-28.932l-11.77,-27.715c2.204,-37.688 7.094,-56.802 14.67,-57.343c-12.523,-91.572 -33.955,-174.62 -64.298,-249.146c-12.446,0.889 -20.235,-20.583 -23.365,-64.417c-24.894,1.778 -41.92,-15.771 -51.081,-52.647c-21.646,1.546 -53.883,-11.926 -96.712,-40.414l-9.045,10.436l-8.929,0.638c-25.589,-7.963 -38.712,-16.544 -39.369,-25.744c-63.856,4.56 -126.882,43.6 -189.077,117.119l-48.822,116.078l-2.9,85.058Z" style="fill-rule:nonzero;"/><path d="M4541.37,415.826l38.673,16.003l26.903,-11.712l9.625,9.103l9.045,-10.436l32.237,62.968l-36.007,21.336l-9.567,-8.291l-18.669,1.333c-74.139,5.295 -109.662,29.589 -106.57,72.881l-25.744,39.369l61.861,340.697l-8.233,10.378l0.637,8.93l10.9,26.961l-8.233,10.378l32.583,193.483l-9.045,10.437l0.637,8.929l31.25,174.813l-31.369,86.275l-28.236,-6.958l-62.968,32.237l-105.929,-169.48c-24.352,1.739 -47.776,-21.608 -70.272,-70.042c1.507,-24.584 10.108,-37.436 25.802,-38.557c-18.554,-16.08 -33.223,-46.308 -44.007,-90.683l-28.237,-6.958l14.496,-48.356l-8.929,0.638c-15.693,1.121 -33.764,-34.847 -54.211,-107.903l-10.378,-8.234l9.045,-10.436l-0.638,-8.929l-41.977,-62.272l8.929,-0.638l-21.858,-54.734l-18.67,1.333l8.291,-9.567l-0.695,-9.741l-22.612,-53.864c-25.357,-12.331 -42.114,-29.9 -50.269,-52.706l6.436,-46.964l-22.032,-45.747l-46.385,13.103l25.279,91.204c-12.447,0.889 -17.994,10.804 -16.641,29.744l10.378,8.234l0.696,9.74l-9.103,9.625l24.641,82.276l-6.958,28.236l24.641,82.276l-16.004,38.673l21.975,44.935l-7.712,29.107l18.67,-1.334l-25.628,29.57c13.76,17.511 25.607,53.923 35.541,109.237l-4.292,65.576l9.625,9.103l9.741,-0.695l-9.103,9.625l2.029,28.41l11.711,26.904l-18.669,1.333l1.333,18.67l28.237,6.958l55.372,-12.929c3.672,13.335 19.983,24.681 48.935,34.035c10.437,-29.029 21.763,-45.611 33.978,-49.747c1.777,24.893 8.89,36.895 21.336,36.006l8.929,-0.637l26.266,-20.641l40.006,34.673l0.638,8.929l-45.573,13.045l-1.333,-18.67l-9.741,0.696c3.748,52.492 -25.107,82.565 -86.567,90.217l-0.638,-8.929l-54.734,21.858l-46.269,3.305l-84.246,-2.958l-8.292,9.566l-9.741,0.696l-9.566,-8.291l-9.741,0.695l-73.23,14.205l-10.379,-8.234l-0.637,-8.929l-53.923,21.8c-14.418,-26.71 -27.966,-41.244 -40.644,-43.602l12.699,-84.942l9.624,9.103l18.67,-1.333l100.946,-25.974l10.378,8.233c10.05,-11.596 15.057,-70.968 15.019,-178.117c-1.352,-18.941 -11.228,-27.754 -29.628,-26.44l-1.971,-27.599l16.525,-19.945l9.741,-0.696l-13.045,-45.573l-4.638,-64.939l1.103,-121.644l-15.016,-73.172l7.074,-38.036l-10.436,-9.045l-0.638,-8.929l5.103,-65.634c-14.455,-111.015 -33.859,-165.652 -58.211,-163.913l-16.699,28.932c-57.169,-16.042 -86.14,-29.475 -86.913,-40.298l-0.637,-8.929c-0.889,-12.446 22.845,-26.652 71.201,-42.615l37.977,6.262l64.301,-13.566l1.334,18.67l18.67,-1.334l26.265,-20.641l65.751,-4.695l76.881,162.579l201.364,340.525l-8.292,9.567l0.638,8.929c8.31,32.585 32.178,62.156 71.605,88.712l0.638,8.929l-28.411,2.029l1.334,18.67c31.387,-2.242 47.969,9.084 49.747,33.977l8.929,-0.637l14.032,-66.273l-1.333,-18.669l-10.379,-8.234l-0.695,-9.741l9.74,-0.695l-10.378,-8.234l3.074,-94.045l-11.712,-26.903l13.337,-76.013c-18.399,1.314 -28.024,-3.982 -28.875,-15.887c24.894,-1.778 36.896,-8.89 36.007,-21.337l-1.333,-18.67l-18.67,1.334l-0.696,-9.741l9.395,-131.211l-15.712,-82.913l9.103,-9.625l-20.003,-17.336l-64.939,4.637c-43.293,3.092 -65.615,-4.832 -66.968,-23.773l-9.045,10.437l-37.34,2.666l-2.666,-37.339l9.103,-9.625l-0.696,-9.741l46.965,6.436l9.74,-0.695l34.499,-31.02l38.674,16.004l36.702,-11.596l47.602,15.365c-1.353,-18.94 4.194,-28.855 16.641,-29.744l75.375,4.408l26.266,-20.641Zm-539.979,150.338l1.333,18.67l37.34,-2.667l-1.333,-18.67l-37.34,2.667Zm406.497,596.745l1.334,18.67l27.599,-1.971l-1.334,-18.67l-27.599,1.971Zm-105.932,81.81l2.029,28.411l20.003,17.337l-2.029,-28.411l-20.003,-17.337Zm-21.744,95.379l28.411,-2.029l1.333,18.67l-9.741,0.695l-20.003,-17.336Z" style="fill-rule:nonzero;"/><path d="M5156.49,346.604l9.741,-0.695l1.333,18.669l56.01,-4l102.452,-16.291l10.379,8.233l8.929,-0.637l56.184,-12.987l8.929,-0.638l56.647,4.929l37.514,-11.654c1.314,18.4 17.394,26.498 48.24,24.295l22.032,45.747l-8.233,10.379l30.381,25.57l-9.045,10.436l0.696,9.741l11.712,26.903l-9.045,10.437l0.637,8.929c1.353,18.94 14.476,27.522 39.369,25.744l-14.67,57.343l0.696,9.741l10.378,8.233l0.696,9.741l-18.67,1.333l0.638,8.93l24.699,83.087c-8.853,51.216 -32.219,78.177 -70.1,80.882l-107.091,-48.647l-2.029,-28.411l28.411,-2.029l-14.436,-65.055l-26.266,20.641l-9.741,0.696l-2.029,-28.411l18.67,-1.333l-0.638,-8.929l-10.958,-27.773l17.337,-20.004l-1.334,-18.669l-21.336,-36.007l-9.103,9.625l-18.67,1.333c-1.778,-24.893 -8.89,-36.895 -21.337,-36.006l-65.75,4.695l-1.334,-18.67l-37.339,2.667l-7.712,29.107l-76.709,-23.078c-28.411,21.066 -55.874,32.546 -82.391,34.44l21.974,44.935l-9.045,10.437l-8.929,0.638l-39.369,-25.745l-9.045,10.437l0.638,8.929c12.793,49.671 24.061,74.158 33.802,73.462l-7.075,38.036c5.798,81.173 30.613,120.195 74.447,117.064l10.436,9.046l8.929,-0.638c-1.778,-24.893 19.25,-38.905 63.084,-42.036l-10.436,-9.045c16.505,-35.445 26.324,-76.94 29.455,-124.485l36.007,-21.336l38.673,16.003l17.337,-20.003l41.339,53.343c2.126,29.763 10.185,51.217 24.178,64.359l-18.149,20.061l13.103,46.385l-7.074,38.036l10.437,9.045l9.741,-0.696l-23.078,76.709l12.929,55.372l-8.233,10.378l9.625,9.103l9.74,-0.695c4.02,56.28 -18.864,86.198 -68.65,89.753l-9.103,9.625c-44.955,-12.563 -68.881,-39.138 -71.78,-79.725c-12.446,0.889 -19.559,-11.113 -21.336,-36.006c-31.387,2.242 -47.525,-2.861 -48.414,-15.308l-29.628,-26.439l-19.482,1.391l1.333,18.67l19.482,-1.391l0.696,9.74c-50.328,3.595 -73.714,30.285 -70.158,80.071l-14.612,58.155l20.003,17.337l0.638,8.929l-8.234,10.378l9.567,8.292l0.696,9.74l-6.9,29.049c6.686,93.62 34.922,138.652 84.708,135.097l9.741,-0.696l8.233,-10.379l-0.637,-8.929l66.388,4.234l37.34,-2.667l1.333,18.67c72.554,-42.712 117.413,-77.191 134.575,-103.436c19.598,-53.072 32.916,-129.356 39.952,-228.851l43.718,-50.443l27.599,-1.971c1.237,17.317 24.043,28.199 68.417,32.644l9.392,131.501l-5.567,47.719c12.447,-0.889 19.327,7.866 20.641,26.265l-16.641,29.744l12.291,46.443l2.667,37.34c-24.893,1.778 -35.33,30.807 -31.311,87.087l-63.084,42.036l-29.048,-6.901l-45.631,12.234l-94.161,6.725l-9.567,-8.292l-9.103,9.625l-9.741,0.695l-9.567,-8.291l-46.443,12.291l-56.647,-4.929l-36.702,11.596l-0.638,-8.929l-9.103,9.625l-9.741,0.695l-28.237,-6.958l-92.828,25.395l-38.673,-16.003l-65.112,13.624l-112.832,8.058c-43.292,3.092 -66.504,-17.279 -69.634,-61.112l-1.971,-27.599c49.091,-13.297 73.076,-27.792 71.955,-43.485l74.68,-5.334c22.496,-20.099 43.756,-30.864 63.779,-32.294l-12.291,-46.443l6.262,-37.978l-9.625,-9.103l-0.637,-8.929l6.204,-38.789l-20.641,-26.266l13.974,-67.084l-10.958,-27.773l5.567,-47.718l-11.596,-36.702l6.263,-37.977l-12.292,-46.443l6.263,-37.978l-9.625,-9.103l-0.638,-8.929l18.904,-123.731l-8.929,0.637l-9.104,9.625l-9.566,-8.291l8.233,-10.379l-12.291,-46.443l6.262,-37.977c-3.44,-48.163 -74.176,-71.395 -212.209,-69.696c-14.225,-24.004 -22.902,-57.923 -26.033,-101.757l110.802,-36.469l74.68,-5.333l38.035,7.074l74.158,-24.061l56.648,4.929l56.01,-4l27.077,-20.699Zm287.814,328.64l8.929,-0.638l20.003,17.337l-26.266,20.641l-9.741,0.695l-0.695,-9.74l7.77,-28.295Z" style="fill-rule:nonzero;"/></g></svg>