<?xml version="1.0" encoding="UTF-8" standalone="no"?><!DOCTYPE svg PUBLIC "-//W3C//DTD SVG 1.1//EN" "http://www.w3.org/Graphics/SVG/1.1/DTD/svg11.dtd"><svg width="100%" height="100%" viewBox="0 0 157 37" version="1.1" xmlns="http://www.w3.org/2000/svg" xmlns:xlink="http://www.w3.org/1999/xlink" xml:space="preserve" xmlns:serif="http://www.serif.com/" style="fill-rule:evenodd;clip-rule:evenodd;stroke-linejoin:round;stroke-miterlimit:2;"><path d="M156.845,18.361c-0,-10.134 -8.228,-18.361 -18.361,-18.361l-120.123,0c-10.134,0 -18.361,8.227 -18.361,18.361c-0,10.134 8.227,18.361 18.361,18.361l120.123,0c10.133,0 18.361,-8.227 18.361,-18.361Z" style="fill:#bf1f42;"/><path d="M31.111,27.086l2.781,-17.498l4.518,0c2.19,0 3.764,0.316 4.722,0.947c0.959,0.631 1.439,1.658 1.439,3.08c-0,1.151 -0.312,2.081 -0.935,2.793c-0.623,0.711 -1.558,1.202 -2.805,1.474c0.919,0.255 1.628,0.707 2.128,1.354c0.499,0.647 0.749,1.43 0.749,2.349c-0,0.823 -0.172,1.6 -0.516,2.331c-0.343,0.731 -0.827,1.344 -1.45,1.84c-0.575,0.471 -1.252,0.811 -2.031,1.019c-0.779,0.207 -1.82,0.311 -3.122,0.311l-5.478,0Zm5.406,-3.655c0.08,0.016 0.163,0.028 0.251,0.036c0.088,0.008 0.2,0.012 0.336,0.012c0.575,-0 1.013,-0.192 1.312,-0.576c0.3,-0.383 0.45,-0.934 0.45,-1.654c-0,-0.551 -0.136,-0.964 -0.408,-1.24c-0.271,-0.276 -0.683,-0.413 -1.234,-0.413l-0.144,-0l-0.563,3.835Zm1.078,-7.095c0.064,0.008 0.132,0.014 0.204,0.018c0.072,0.004 0.184,0.006 0.336,0.006c0.543,-0 0.972,-0.154 1.288,-0.462c0.316,-0.307 0.473,-0.725 0.473,-1.252c0,-0.448 -0.125,-0.785 -0.377,-1.013c-0.252,-0.228 -0.621,-0.342 -1.109,-0.342l-0.323,0.024l-0.492,3.021Z" style="fill:#fff;fill-rule:nonzero;"/><path d="M45.326,20.83l1.761,-11.242l4.914,0l-1.869,11.709c-0.016,0.096 -0.028,0.184 -0.036,0.264c-0.008,0.08 -0.012,0.172 -0.012,0.276c-0,0.295 0.086,0.529 0.257,0.701c0.172,0.172 0.406,0.258 0.702,0.258c0.383,-0 0.685,-0.124 0.904,-0.372c0.22,-0.248 0.37,-0.623 0.45,-1.127l1.858,-11.709l4.889,0l-1.785,11.23l-0.036,0.18c-0.344,2.125 -0.867,3.607 -1.57,4.446c-0.56,0.671 -1.269,1.175 -2.128,1.51c-0.859,0.336 -1.875,0.504 -3.05,0.504c-1.838,-0 -3.2,-0.386 -4.087,-1.157c-0.887,-0.771 -1.33,-1.947 -1.33,-3.529c-0,-0.256 0.012,-0.536 0.036,-0.839c0.024,-0.304 0.068,-0.672 0.132,-1.103Z" style="fill:#fff;fill-rule:nonzero;"/><path d="M59.756,9.588l5.153,0l0.492,5.369l2.157,-5.369l5.165,0l-5.704,10.475l-1.103,7.023l-4.878,0l1.127,-7.023l-2.409,-10.475Z" style="fill:#fff;fill-rule:nonzero;"/><path d="M76.942,27.086l2.793,-17.498l4.518,0l1.57,9.396l1.642,-9.396l4.099,0l-2.745,17.498l-4.494,0l-1.666,-9.06l-1.546,9.06l-4.171,0Z" style="fill:#fff;fill-rule:nonzero;"/><path d="M96.646,21.249c-0,0.656 0.087,1.133 0.263,1.433c0.176,0.299 0.456,0.449 0.839,0.449c0.344,0 0.641,-0.136 0.893,-0.407c0.252,-0.272 0.478,-0.707 0.677,-1.307c0.264,-0.775 0.478,-1.712 0.641,-2.81c0.164,-1.099 0.246,-2.144 0.246,-3.134c0,-0.655 -0.084,-1.137 -0.252,-1.445c-0.167,-0.307 -0.427,-0.461 -0.779,-0.461c-0.375,0 -0.693,0.134 -0.952,0.402c-0.26,0.267 -0.482,0.697 -0.666,1.288c-0.263,0.807 -0.481,1.766 -0.653,2.876c-0.171,1.111 -0.257,2.15 -0.257,3.116Zm0.587,6.185c-1.654,-0 -2.984,-0.599 -3.991,-1.798c-1.007,-1.199 -1.51,-2.793 -1.51,-4.782c-0,-1.622 0.209,-3.2 0.629,-4.734c0.419,-1.534 0.989,-2.821 1.708,-3.859c0.703,-1.007 1.516,-1.758 2.439,-2.253c0.923,-0.496 1.975,-0.744 3.158,-0.744c1.686,0 3.024,0.59 4.015,1.768c0.991,1.179 1.486,2.783 1.486,4.812c-0,1.63 -0.208,3.204 -0.623,4.722c-0.416,1.518 -0.987,2.809 -1.714,3.871c-0.679,0.999 -1.484,1.748 -2.415,2.248c-0.931,0.499 -1.992,0.749 -3.182,0.749Z" style="fill:#fff;fill-rule:nonzero;"/><path d="M106.581,9.588l4.866,0l-0.467,10.355l3.212,-10.355l3.931,0l-0.048,10.355l2.792,-10.355l4.866,0l-6.16,17.498l-4.494,0l0.048,-10.942l-3.416,10.942l-4.483,0l-0.647,-17.498Z" style="fill:#fff;fill-rule:nonzero;"/></svg>