<?xml version="1.0" encoding="UTF-8" standalone="no"?><!DOCTYPE svg PUBLIC "-//W3C//DTD SVG 1.1//EN" "http://www.w3.org/Graphics/SVG/1.1/DTD/svg11.dtd"><svg width="100%" height="100%" viewBox="0 0 134 128" version="1.1" xmlns="http://www.w3.org/2000/svg" xmlns:xlink="http://www.w3.org/1999/xlink" xml:space="preserve" xmlns:serif="http://www.serif.com/" style="fill-rule:evenodd;clip-rule:evenodd;stroke-linejoin:round;stroke-miterlimit:2;"><path d="M133.333,114.167c0,-7.129 -5.787,-12.917 -12.916,-12.917l-107.5,0c-7.13,0 -12.917,5.787 -12.917,12.917c-0,7.129 5.787,12.916 12.917,12.916l107.5,0c7.129,0 12.916,-5.787 12.916,-12.916Z" style="fill:#b40909;"/><path d="M133.333,63.542c0,-7.13 -5.787,-12.917 -12.916,-12.917l-107.5,0c-7.13,0 -12.917,5.788 -12.917,12.917c-0,7.129 5.787,12.916 12.917,12.916l107.5,0c7.129,0 12.916,-5.787 12.916,-12.916Z" style="fill:#b40909;"/><path d="M133.333,12.917c0,-7.13 -5.787,-12.917 -12.916,-12.917l-107.5,0c-7.13,0 -12.917,5.787 -12.917,12.917c-0,7.129 5.787,12.916 12.917,12.916l107.5,0c7.129,0 12.916,-5.787 12.916,-12.916Z" style="fill:#b40909;"/></svg>