<?xml version="1.0" encoding="UTF-8" standalone="no"?><!DOCTYPE svg PUBLIC "-//W3C//DTD SVG 1.1//EN" "http://www.w3.org/Graphics/SVG/1.1/DTD/svg11.dtd"><svg width="100%" height="100%" viewBox="0 0 135 49" version="1.1" xmlns="http://www.w3.org/2000/svg" xmlns:xlink="http://www.w3.org/1999/xlink" xml:space="preserve" xmlns:serif="http://www.serif.com/" style="fill-rule:evenodd;clip-rule:evenodd;stroke-linejoin:round;stroke-miterlimit:2;"><path d="M-0,23.285l3.633,-22.862l6.373,-0l-1.503,9.552l5.042,-9.552l6.498,-0l-6.341,10.554l2.881,12.308l-6.921,-0l-1.613,-10.398l-1.66,10.398l-6.389,-0Z" style="fill:#bf1f42;fill-rule:nonzero;"/><path d="M24.146,15.659c0,0.856 0.115,1.48 0.345,1.871c0.229,0.392 0.595,0.587 1.096,0.587c0.449,0 0.837,-0.177 1.166,-0.532c0.329,-0.355 0.624,-0.924 0.885,-1.707c0.345,-1.012 0.624,-2.236 0.838,-3.672c0.214,-1.435 0.321,-2.8 0.321,-4.095c-0,-0.856 -0.11,-1.485 -0.329,-1.887c-0.219,-0.401 -0.559,-0.602 -1.018,-0.602c-0.491,-0 -0.905,0.174 -1.245,0.524c-0.339,0.35 -0.629,0.911 -0.869,1.683c-0.344,1.055 -0.629,2.308 -0.853,3.759c-0.225,1.451 -0.337,2.808 -0.337,4.071Zm0.767,8.08c-2.161,-0 -3.899,-0.783 -5.214,-2.349c-1.315,-1.566 -1.973,-3.648 -1.973,-6.248c-0,-2.119 0.274,-4.181 0.822,-6.185c0.548,-2.004 1.292,-3.685 2.231,-5.042c0.919,-1.316 1.981,-2.297 3.187,-2.944c1.206,-0.647 2.581,-0.971 4.126,-0.971c2.203,0 3.951,0.77 5.246,2.31c1.294,1.539 1.942,3.635 1.942,6.287c-0,2.129 -0.272,4.186 -0.815,6.169c-0.543,1.984 -1.289,3.67 -2.239,5.058c-0.887,1.305 -1.939,2.284 -3.155,2.936c-1.216,0.653 -2.602,0.979 -4.158,0.979Z" style="fill:#bf1f42;fill-rule:nonzero;"/><path d="M35.107,23.285l3.633,-22.862l6.373,-0l-1.503,9.552l5.042,-9.552l6.499,-0l-6.342,10.554l2.881,12.308l-6.921,-0l-1.613,-10.398l-1.66,10.398l-6.389,-0Z" style="fill:#bf1f42;fill-rule:nonzero;"/><path d="M59.253,15.659c0,0.856 0.115,1.48 0.345,1.871c0.23,0.392 0.595,0.587 1.096,0.587c0.449,0 0.838,-0.177 1.167,-0.532c0.329,-0.355 0.623,-0.924 0.884,-1.707c0.345,-1.012 0.624,-2.236 0.838,-3.672c0.214,-1.435 0.321,-2.8 0.321,-4.095c0,-0.856 -0.109,-1.485 -0.329,-1.887c-0.219,-0.401 -0.558,-0.602 -1.018,-0.602c-0.49,-0 -0.905,0.174 -1.244,0.524c-0.34,0.35 -0.629,0.911 -0.869,1.683c-0.345,1.055 -0.629,2.308 -0.854,3.759c-0.224,1.451 -0.337,2.808 -0.337,4.071Zm0.768,8.08c-2.161,-0 -3.899,-0.783 -5.215,-2.349c-1.315,-1.566 -1.973,-3.648 -1.973,-6.248c0,-2.119 0.274,-4.181 0.822,-6.185c0.548,-2.004 1.292,-3.685 2.232,-5.042c0.918,-1.316 1.981,-2.297 3.186,-2.944c1.206,-0.647 2.581,-0.971 4.127,-0.971c2.202,0 3.951,0.77 5.245,2.31c1.295,1.539 1.942,3.635 1.942,6.287c-0,2.129 -0.271,4.186 -0.814,6.169c-0.543,1.984 -1.29,3.67 -2.24,5.058c-0.887,1.305 -1.939,2.284 -3.155,2.936c-1.216,0.653 -2.602,0.979 -4.157,0.979Z" style="fill:#bf1f42;fill-rule:nonzero;"/><path d="M78.624,10.617l0.344,-0c0.971,-0 1.717,-0.306 2.239,-0.916c0.522,-0.611 0.783,-1.49 0.783,-2.639c0,-0.657 -0.167,-1.143 -0.501,-1.456c-0.334,-0.313 -0.851,-0.47 -1.55,-0.47l-0.454,0.031l-0.861,5.45Zm-8.409,12.668l3.633,-22.862l5.386,-0c3.383,-0 5.713,0.443 6.992,1.331c1.279,0.887 1.918,2.401 1.918,4.541c0,1.869 -0.404,3.403 -1.213,4.604c-0.809,1.2 -1.976,1.994 -3.5,2.38l2.818,10.006l-6.764,-0l-1.441,-9.239l-1.44,9.239l-6.389,-0Z" style="fill:#bf1f42;fill-rule:nonzero;"/><path d="M94.721,15.659c-0,0.856 0.115,1.48 0.344,1.871c0.23,0.392 0.596,0.587 1.097,0.587c0.448,0 0.837,-0.177 1.166,-0.532c0.329,-0.355 0.624,-0.924 0.885,-1.707c0.344,-1.012 0.624,-2.236 0.838,-3.672c0.214,-1.435 0.321,-2.8 0.321,-4.095c-0,-0.856 -0.11,-1.485 -0.329,-1.887c-0.219,-0.401 -0.559,-0.602 -1.018,-0.602c-0.491,-0 -0.906,0.174 -1.245,0.524c-0.339,0.35 -0.629,0.911 -0.869,1.683c-0.344,1.055 -0.629,2.308 -0.853,3.759c-0.225,1.451 -0.337,2.808 -0.337,4.071Zm0.767,8.08c-2.161,-0 -3.899,-0.783 -5.214,-2.349c-1.316,-1.566 -1.973,-3.648 -1.973,-6.248c-0,-2.119 0.274,-4.181 0.822,-6.185c0.548,-2.004 1.292,-3.685 2.231,-5.042c0.919,-1.316 1.981,-2.297 3.187,-2.944c1.206,-0.647 2.581,-0.971 4.126,-0.971c2.203,0 3.951,0.77 5.246,2.31c1.294,1.539 1.941,3.635 1.941,6.287c0,2.129 -0.271,4.186 -0.814,6.169c-0.543,1.984 -1.289,3.67 -2.239,5.058c-0.887,1.305 -1.939,2.284 -3.155,2.936c-1.216,0.653 -2.602,0.979 -4.158,0.979Z" style="fill:#bf1f42;fill-rule:nonzero;"/><path d="M11.048,48.003l8.597,-22.863l7.532,0l1.613,22.863l-6.452,-0l0.032,-3.367l-3.774,-0l-1.002,3.367l-6.546,-0Zm8.895,-7.987l2.552,0l0.078,-8.471l-2.63,8.471Z" style="fill:#bf1f42;fill-rule:nonzero;"/><path d="M44.214,31.013c-0.376,-0.199 -0.731,-0.34 -1.065,-0.423c-0.334,-0.084 -0.673,-0.126 -1.018,-0.126c-1.492,0 -2.693,0.713 -3.601,2.138c-0.908,1.425 -1.363,3.317 -1.363,5.676c0,1.514 0.275,2.636 0.823,3.367c0.548,0.731 1.385,1.096 2.513,1.096c0.271,0 0.566,-0.029 0.885,-0.086c0.318,-0.057 0.655,-0.144 1.01,-0.258l-0.971,5.512c-0.439,0.177 -0.914,0.308 -1.425,0.391c-0.512,0.084 -1.096,0.125 -1.754,0.125c-2.579,0 -4.549,-0.751 -5.911,-2.255c-1.363,-1.503 -2.044,-3.685 -2.044,-6.545c0,-4.478 1.034,-8.083 3.101,-10.813c2.067,-2.729 4.807,-4.094 8.221,-4.094c0.626,-0 1.237,0.054 1.832,0.164c0.595,0.11 1.185,0.269 1.769,0.478l-1.002,5.653Z" style="fill:#bf1f42;fill-rule:nonzero;"/><path d="M42.445,48.003l8.596,-22.863l7.532,0l1.613,22.863l-6.451,-0l0.031,-3.367l-3.774,-0l-1.002,3.367l-6.545,-0Zm8.894,-7.987l2.552,0l0.079,-8.471l-2.631,8.471Z" style="fill:#bf1f42;fill-rule:nonzero;"/><path d="M60.922,48.003l3.633,-22.863l4.839,0c3.048,0 5.295,0.71 6.741,2.13c1.446,1.42 2.169,3.617 2.169,6.592c-0,2.297 -0.358,4.513 -1.073,6.648c-0.715,2.135 -1.636,3.776 -2.764,4.924c-0.919,0.93 -1.973,1.59 -3.163,1.981c-1.19,0.392 -3.048,0.588 -5.575,0.588l-4.807,-0Zm7.328,-5.638c0.042,0.011 0.087,0.019 0.134,0.024c0.047,0.005 0.117,0.008 0.211,0.008c0.376,-0 0.733,-0.089 1.073,-0.267c0.339,-0.177 0.623,-0.422 0.853,-0.736c0.376,-0.501 0.736,-1.521 1.081,-3.061c0.344,-1.54 0.516,-3.072 0.516,-4.596c0,-0.992 -0.159,-1.72 -0.477,-2.184c-0.319,-0.465 -0.833,-0.723 -1.543,-0.775l-1.848,11.587Z" style="fill:#bf1f42;fill-rule:nonzero;"/><path d="M78.335,48.003l3.633,-22.863l11.321,0l-0.877,5.544l-4.932,-0l-0.486,2.912l4.463,0l-0.83,5.356l-4.463,-0l-0.516,3.147l4.948,0l-0.94,5.904l-11.321,-0Z" style="fill:#bf1f42;fill-rule:nonzero;"/><path d="M99.976,31.044l-3.226,16.959l-5.497,-0l5.262,-22.863l7.469,0l0.063,12.058l3.883,-12.058l7.438,0l-1.957,22.863l-5.512,-0l2.083,-16.928l-5.418,16.928l-4.322,-0l-0.266,-16.959Z" style="fill:#bf1f42;fill-rule:nonzero;"/><path d="M117.388,25.14l6.734,0l0.642,7.016l2.818,-7.016l6.749,0l-7.453,13.686l-1.441,9.177l-6.373,-0l1.472,-9.177l-3.148,-13.686Z" style="fill:#bf1f42;fill-rule:nonzero;"/></svg>