<?xml version="1.0" encoding="UTF-8" standalone="no"?><!DOCTYPE svg PUBLIC "-//W3C//DTD SVG 1.1//EN" "http://www.w3.org/Graphics/SVG/1.1/DTD/svg11.dtd"><svg width="100%" height="100%" viewBox="0 0 1318 383" version="1.1" xmlns="http://www.w3.org/2000/svg" xmlns:xlink="http://www.w3.org/1999/xlink" xml:space="preserve" xmlns:serif="http://www.serif.com/" style="fill-rule:evenodd;clip-rule:evenodd;stroke-linejoin:round;stroke-miterlimit:2;"><path id="path21" d="M952.885,355.839c3.955,-2.346 -4.901,-11.028 -10.053,-9.855c-3.896,0.887 -2.926,4.362 2.107,7.547c4.653,2.946 6.142,3.378 7.946,2.308Zm-218.819,-14.07c-0,-0.778 -1.073,-1.414 -2.384,-1.414c-2.659,-0 -2.196,1.923 0.596,2.475c0.983,0.194 1.788,-0.283 1.788,-1.061Zm-105.418,-9.677c-0.012,-0.615 -0.596,-1.653 -1.296,-2.309c-1.015,-0.949 -1.47,-0.888 -2.241,0.304c-0.532,0.823 -0.586,1.861 -0.12,2.308c1.242,1.193 3.683,0.991 3.657,-0.303l-0,-0Zm399.304,-3.062c-3.611,-1.055 -4.441,-1.661 -3.011,-2.199c1.084,-0.408 1.26,-0.748 0.391,-0.756c-0.869,-0.006 -2.313,0.421 -3.207,0.952c-2.017,1.196 -23.764,-1.241 -52.426,-5.877c-13.871,-2.243 -23.106,-2.916 -22.27,-1.624c0.411,0.636 3.557,1.602 6.992,2.147c3.434,0.544 6.921,1.286 7.749,1.649c4.473,1.955 50.708,7.219 63.124,7.186l7.642,-0.02l-4.984,-1.458l-0,0Zm-310.166,-9.832c-1.087,-0.258 -2.386,-0.226 -2.886,0.071c-0.5,0.297 0.389,0.508 1.976,0.469c1.754,-0.043 2.111,-0.255 0.91,-0.54l-0,0Zm-136.543,-0.283c0.512,-0.491 0.213,-0.893 -0.664,-0.893c-0.877,-0 -1.594,0.402 -1.594,0.893c-0,0.492 0.298,0.894 0.663,0.894c0.366,-0 1.083,-0.402 1.595,-0.894Zm347.333,-3.29c-1.087,-0.258 -2.386,-0.226 -2.886,0.071c-0.5,0.296 0.389,0.508 1.976,0.469c1.754,-0.043 2.111,-0.255 0.91,-0.54l-0,0Zm-22.867,-1.204c5.193,-0.56 5.154,-0.578 -2.669,-1.281c-4.366,-0.393 -8.302,-1.063 -8.746,-1.489c-0.445,-0.427 -3.1,-0.776 -5.9,-0.776c-2.801,0 -5.505,-0.396 -6.009,-0.879c-1.188,-1.142 -8.076,-0.8 -9.88,0.49c-0.993,0.71 2.401,1.337 11.763,2.173c7.238,0.647 13.837,1.436 14.665,1.753c0.828,0.317 3.877,0.321 6.776,0.01l-0,-0.001Zm-222.256,-2.309c8.526,-7.444 3.147,-14.085 -11.463,-14.153c-7.169,-0.034 -8.026,0.195 -11.237,2.999c-4.659,4.069 -4.436,7.464 0.714,10.884c3.198,2.124 5.829,2.892 11.119,3.246c6.683,0.447 7.068,0.341 10.867,-2.976Zm-67.499,-0.421c1.314,-1.262 -1.588,-2.983 -3.714,-2.204c-0.9,0.33 -1.637,1.18 -1.637,1.888c-0,1.504 3.875,1.733 5.351,0.316l-0,-0Zm423.757,-3.187c-0,-0.92 -0.833,-1.204 -2.45,-0.835c-1.347,0.306 -3.21,0.193 -4.14,-0.252c-2.705,-1.294 -21.115,-2.31 -19.849,-1.095c0.578,0.555 1.662,0.785 2.41,0.511c0.748,-0.274 2.903,0.073 4.789,0.772c1.887,0.699 6.988,1.501 11.335,1.782c6.526,0.422 7.905,0.268 7.905,-0.883l-0,0Zm54.093,-2.897c2.414,-2.012 3.444,-4.238 3.626,-7.842c0.249,-4.894 0.12,-5.066 -4.675,-6.254c-2.711,-0.672 -7.455,-1.137 -10.543,-1.032c-3.087,0.105 -9.34,-0.089 -13.894,-0.43c-5.891,-0.441 -7.303,-0.369 -4.893,0.248c6.522,1.671 4.745,1.765 -9.034,0.478c-6.735,-0.629 -7.546,-2.233 -1.129,-2.233c2.484,0 4.516,-0.364 4.516,-0.809c0,-0.446 -1.344,-0.601 -2.988,-0.346c-1.644,0.255 -4.185,0.172 -5.647,-0.185c-1.461,-0.356 -4.752,-0.703 -7.312,-0.77c-6.732,-0.178 -5.035,2.382 2.904,4.38c22.007,5.538 21.203,5.212 23.194,9.416c2.815,5.945 4.997,7.117 14.316,7.687c7.866,0.482 8.32,0.391 11.559,-2.308l-0,0Zm-116.664,-0.611c2.443,-1.06 2.518,-1.267 0.463,-1.267c-1.352,-0 -2.904,0.429 -3.45,0.953c-1.596,1.532 -0.167,1.682 2.987,0.314l0,-0Zm-56.268,-1.584c4.637,-1.435 28.006,-2.562 32.263,-1.555c1.959,0.463 3.536,0.298 4.517,-0.473c1.199,-0.943 3.657,-0.998 12.046,-0.271c5.797,0.502 14.798,1.085 20.002,1.297l9.462,0.384l-0.428,-2.436c-0.4,-2.277 -3.696,-4.823 -7.719,-5.962c-1.279,-0.362 -1.242,-0.632 0.139,-1.015c2.611,-0.723 2.361,-2.159 -0.376,-2.159c-2.751,0 -2.897,-1.021 -0.376,-2.632c1.296,-0.829 1.325,-1.017 0.093,-0.607c-0.985,0.329 -2.34,0.044 -3.012,-0.631c-0.672,-0.675 -3.212,-1.613 -5.644,-2.084c-2.433,-0.472 -4.727,-1.399 -5.099,-2.06c-0.45,-0.802 0.131,-1.02 1.74,-0.654c1.328,0.303 2.816,0.166 3.305,-0.304c0.49,-0.47 -1.11,-0.854 -3.555,-0.854c-2.699,-0 -4.81,-0.566 -5.376,-1.441c-0.751,-1.16 -1.363,-1.228 -3.153,-0.346c-1.222,0.601 -3.247,0.86 -4.499,0.575c-1.253,-0.285 -2.278,-0.122 -2.278,0.364c0,0.986 -6.435,0.347 -11.669,-1.159c-4.498,-1.294 -4.342,-2.796 0.22,-2.116c2.37,0.353 3.885,0.107 4.417,-0.715c1.098,-1.698 -6.522,-2.858 -8.198,-1.248c-0.943,0.905 -1.671,0.792 -3.274,-0.508c-1.588,-1.289 -2.723,-1.47 -4.952,-0.79c-3.867,1.179 -15.693,2.253 -12.726,1.155c1.598,-0.591 0.762,-0.822 -3.012,-0.833c-7.23,-0.02 -13.834,-0.513 -16.514,-1.23c-1.243,-0.333 -8.018,-1.209 -15.057,-1.947c-7.039,-0.738 -20.251,-2.18 -29.36,-3.203c-9.109,-1.024 -17.917,-2.003 -19.573,-2.176c-4.853,-0.506 -41.552,-3.21 -48.8,-3.595c-3.652,-0.195 -7.186,-0.876 -7.851,-1.514c-0.666,-0.637 -4.114,-1.207 -7.662,-1.266c-3.549,-0.058 -11.534,-0.585 -17.745,-1.171c-6.21,-0.586 -14.714,-1.229 -18.896,-1.43c-4.183,-0.2 -14.511,-0.979 -22.951,-1.731c-8.441,-0.753 -16.029,-1.368 -16.863,-1.368c-0.833,0 -1.515,-0.419 -1.515,-0.93c-0,-0.905 76.507,-0.626 101.63,0.37c5.797,0.23 36.286,0.703 67.754,1.051c94.043,1.042 95.396,1.085 109.159,3.487c3.727,0.65 11.784,1.638 17.905,2.194c14.901,1.355 47.525,7.828 52.848,10.485c3.712,1.853 4.785,1.995 8.165,1.081c5.193,-1.403 4.911,-3.671 -0.813,-6.529c-2.589,-1.292 -4.451,-2.501 -4.14,-2.685c0.312,-0.185 3.886,0.03 7.944,0.481c4.929,0.546 8.01,0.506 9.287,-0.123c1.369,-0.674 2.265,-0.597 3.162,0.275c0.729,0.708 8.788,2.023 19.318,3.152c19.649,2.106 59.835,8.309 68.883,10.632c5.544,1.424 7.475,2.952 3.764,2.979c-3.466,0.024 2.467,1.745 6.07,1.759c4.782,0.02 6.106,-2.58 2.256,-4.43c-1.7,-0.817 -9.097,-2.384 -16.436,-3.483c-7.34,-1.099 -15.577,-2.58 -18.305,-3.293c-4.651,-1.215 -12.718,-2.56 -21.389,-3.566c-2.07,-0.241 -5.627,-0.662 -7.904,-0.937c-2.278,-0.274 -4.141,-0.896 -4.141,-1.381c0,-0.486 -1.387,-0.622 -3.083,-0.302c-1.696,0.319 -3.898,0.19 -4.894,-0.287c-0.995,-0.476 -5.536,-1.144 -10.091,-1.482c-4.554,-0.338 -15.729,-1.589 -24.832,-2.78c-9.104,-1.19 -17.743,-2.165 -19.197,-2.165c-1.455,0 -2.645,-0.402 -2.645,-0.893c-0,-1.109 3.759,-1.132 13.1,-0.079c3.974,0.448 12.307,1.286 18.518,1.862c17.875,1.658 41.127,4.437 44.416,5.31c3.154,0.835 12.904,2.259 21.793,3.181c2.877,0.298 5.588,0.845 6.023,1.215c0.978,0.831 7.059,2.161 18.859,4.124c4.969,0.827 10.728,1.84 12.798,2.252c2.071,0.412 5.797,1.002 8.281,1.311c2.485,0.309 5.665,0.764 7.068,1.011c3.223,0.567 8.442,-3.749 6.166,-5.099c-0.834,-0.495 -6.944,-1.021 -13.578,-1.169c-6.633,-0.148 -12.996,-0.617 -14.139,-1.041c-1.143,-0.424 -2.756,-0.804 -3.584,-0.845c-0.828,-0.042 -2.522,-0.325 -3.765,-0.63c-10.664,-2.618 -30.068,-5.642 -34.623,-5.397c-1.238,0.067 -4.287,-0.621 -6.775,-1.529c-2.488,-0.908 -9.792,-2.083 -16.23,-2.611c-6.439,-0.529 -13.262,-1.565 -15.163,-2.305c-1.901,-0.739 -5.441,-1.475 -7.867,-1.637c-2.426,-0.161 -6.104,-0.699 -8.174,-1.196c-2.071,-0.496 -12.234,-1.804 -22.585,-2.907c-10.351,-1.102 -19.997,-2.374 -21.435,-2.826c-1.438,-0.452 -4.327,-0.821 -6.419,-0.821c-2.093,-0 -4.982,-0.391 -6.42,-0.868c-1.438,-0.477 -10.067,-1.709 -19.176,-2.737c-9.109,-1.028 -17.748,-2.072 -19.197,-2.319c-3.643,-0.622 -3.315,-2.116 0.465,-2.116c6.905,-0 0.656,-1.73 -9.899,-2.74c-8.592,-0.822 -11.274,-1.421 -11.292,-2.519c-0.017,-1.024 -0.36,-1.126 -1.188,-0.353c-0.641,0.598 -3.171,1.1 -5.623,1.114c-18.094,0.103 -19.45,0.04 -17.268,-0.808c3.859,-1.5 -0.156,-2.837 -5.693,-1.895c-3.668,0.624 -5.364,0.506 -7.047,-0.493c-1.951,-1.158 -2.647,-1.147 -5.823,0.087c-3.406,1.325 -3.868,1.266 -8.325,-1.054c-2.595,-1.351 -4.718,-2.958 -4.718,-3.57c-0,-0.622 -0.996,-0.886 -2.259,-0.599c-1.242,0.283 -2.258,0.082 -2.258,-0.446c-0,-0.529 -0.929,-0.75 -2.064,-0.491c-1.136,0.258 -2.469,-0.156 -2.964,-0.922c-0.495,-0.765 -2.107,-1.405 -3.582,-1.423c-1.476,-0.016 -4.29,-0.56 -6.254,-1.206l-3.572,-1.175l5.078,-0.607c3.648,-0.436 4.493,-0.822 3.002,-1.373c-5.358,-1.98 4.674,-4.018 13.779,-2.799c3.869,0.518 5.402,0.435 5.177,-0.28c-0.195,-0.618 2.609,-1.124 7.171,-1.295c4.119,-0.154 8.484,-0.757 9.699,-1.34c1.685,-0.808 1.956,-0.809 1.143,-0.003c-1.781,1.761 1.372,2.189 17.833,2.419c16.352,0.229 21.114,-0.708 8.628,-1.699c-3.934,-0.312 -10.879,-1.014 -15.433,-1.56c-4.555,-0.546 -11.669,-1.037 -15.809,-1.091c-14.409,-0.189 -26.349,-2.193 -26.349,-4.423c-0,-1.311 2.559,-1.314 21.832,-0.033c9.372,0.623 31.663,1.398 49.385,1.717c16.654,0.3 21.203,0.57 32.422,1.922c2.065,0.249 3.138,0.063 2.603,-0.451c-0.501,-0.48 0.289,-1.288 1.756,-1.795c2.3,-0.794 2.097,-0.925 -1.474,-0.948c-2.277,-0.014 -4.14,0.375 -4.14,0.866c-0,1.335 -2.915,1.078 -5.559,-0.49c-1.283,-0.762 -4.253,-1.612 -6.601,-1.891c-2.812,-0.333 -4.764,-1.309 -5.722,-2.859c-1.228,-1.987 -1.5,-2.075 -1.751,-0.566c-0.164,0.982 -0.217,2.088 -0.119,2.456c0.248,0.933 -12.157,0.817 -14.695,-0.137c-1.141,-0.429 -1.609,-1.227 -1.04,-1.773c0.569,-0.546 0.254,-0.993 -0.701,-0.993c-0.955,-0 -2.056,0.727 -2.448,1.616c-0.634,1.44 -1.723,1.538 -10.022,0.9c-5.12,-0.393 -13.963,-0.924 -19.65,-1.181c-11.816,-0.533 -15.929,-1.518 -9.233,-2.212c2.713,-0.281 5.097,-1.251 5.97,-2.429c1.692,-2.285 9.752,-3.402 18.497,-2.562c3.105,0.298 10.389,0.594 16.185,0.657c5.797,0.064 11.217,0.405 12.045,0.759c1.873,0.799 23.604,2.112 31.277,1.89c4.604,-0.133 5.91,0.206 6.898,1.789c1.089,1.747 1.324,1.787 2.235,0.38c0.897,-1.388 2.304,-1.498 11.922,-0.934c6.739,0.396 11.365,1.113 12.109,1.877c0.663,0.68 2.857,1.237 4.878,1.237c4.835,-0 18.352,3.076 21.91,4.987c2.507,1.345 2.909,1.358 3.711,0.117c1.134,-1.752 -1.981,-5.342 -3.995,-4.604c-0.825,0.302 -4.51,-0.289 -8.189,-1.315c-3.678,-1.026 -8.22,-1.872 -10.092,-1.879c-4.178,-0.017 -8.239,-1.436 -6.709,-2.344c1.502,-0.891 13.445,-1.223 15.35,-0.427c2.544,1.063 16.192,1.195 15.099,0.146c-0.535,-0.514 -2.119,-0.937 -3.519,-0.94c-1.4,-0.003 -4.398,-0.579 -6.661,-1.279c-2.263,-0.701 -4.401,-1 -4.75,-0.665c-0.736,0.707 -8.773,0.689 -10.824,-0.023c-0.765,-0.266 -2.745,-0.192 -4.401,0.165c-2.86,0.616 -7.954,-0.443 -9.962,-2.071c-0.51,-0.414 -2.462,-0.213 -4.337,0.446c-2.689,0.946 -3.554,0.963 -4.091,0.083c-0.375,-0.614 -1.675,-1.117 -2.89,-1.117c-1.214,0 -4.255,-0.628 -6.758,-1.396c-3.328,-1.021 -5.079,-1.136 -6.519,-0.426c-1.436,0.707 -3.14,0.617 -6.291,-0.331c-6.637,-1.997 -32.243,-4.671 -51.749,-5.405c-35.169,-1.323 -40.065,-1.68 -45.147,-3.288c-2.886,-0.913 -6.176,-1.66 -7.311,-1.66c-1.135,-0 -4.104,-1.019 -6.597,-2.263c-3.153,-1.575 -6.199,-2.238 -10.004,-2.178c-10.191,0.159 -18.311,-0.665 -21.049,-2.135c-3.418,-1.835 -4.748,-1.853 -4.748,-0.064c0,1.056 -0.832,1.235 -3.387,0.727c-1.864,-0.371 -10.419,-0.608 -19.012,-0.529c-8.593,0.08 -18.572,-0.247 -22.175,-0.726c-3.603,-0.479 -13.511,-1.114 -22.017,-1.412c-8.506,-0.297 -18.176,-0.65 -21.489,-0.783c-3.312,-0.134 -9.241,-0.293 -13.174,-0.354c-4.151,-0.063 -7.152,-0.528 -7.152,-1.107c0,-0.585 1.572,-0.819 3.8,-0.567c2.09,0.237 4.111,0.133 4.49,-0.231c1.153,-1.106 23.494,-1.022 25.766,0.097c1.192,0.587 2.079,0.649 2.079,0.147c0,-1.163 32.203,-0.497 32.877,0.68c0.277,0.485 1.048,0.683 1.711,0.44c0.664,-0.244 2.044,0.156 3.067,0.888c2.519,1.801 4.372,1.679 3.548,-0.234c-0.599,-1.391 0.853,-1.591 13.233,-1.821c7.648,-0.143 14.634,-0.618 15.525,-1.057c3.06,-1.506 18.912,-0.314 22.514,1.693c4.345,2.422 7.411,2.435 6.122,0.027c-0.538,-1.006 -0.2,-2.386 0.752,-3.066c2.797,-2 -2.797,-4.762 -7.976,-3.94c-2.236,0.354 -3.712,0.306 -3.281,-0.109c0.432,-0.414 -0.749,-1.026 -2.625,-1.359c-1.875,-0.333 -4.603,-1.468 -6.062,-2.521c-2.474,-1.785 -2.76,-1.809 -4.216,-0.352c-0.859,0.86 -3.201,1.564 -5.204,1.564c-2.619,-0 -3.398,0.376 -2.775,1.34c0.709,1.096 -0.598,1.318 -7.199,1.218c-4.436,-0.067 -6.541,-0.296 -4.678,-0.509c1.863,-0.213 3.387,-1.005 3.387,-1.76c0,-0.92 0.871,-1.194 2.635,-0.83c1.718,0.355 1.34,-0.106 -1.084,-1.324c-2.202,-1.105 -3.943,-1.47 -4.266,-0.895c-0.905,1.611 -4.595,1.097 -6.387,-0.89c-2.73,-3.027 -3.237,-1.35 -0.84,2.778l2.22,3.824l-4.335,-2.816c-2.384,-1.549 -4.978,-2.816 -5.764,-2.816c-0.786,-0 -1.82,-0.603 -2.296,-1.34c-1.131,-1.748 -6.825,-1.732 -7.96,0.023c-0.616,0.953 -1.43,1.093 -2.705,0.465c-1.165,-0.574 -3.555,-0.603 -6.623,-0.081c-5.408,0.92 -15.292,0.249 -15.292,-1.038c0,-0.465 2.541,-0.775 5.646,-0.69c14.422,0.396 14.111,0.503 13.137,-4.553c-0.837,-4.345 -0.729,-4.523 2.593,-4.243c3.489,0.294 4.006,1.407 2.206,4.758c-0.775,1.443 -0.239,1.811 2.786,1.915c2.303,0.08 3.745,-0.351 3.745,-1.116c-0,-0.685 0.79,-1.246 1.757,-1.246c0.966,0 1.361,-0.234 0.878,-0.521c-0.483,-0.287 0.42,-1.292 2.007,-2.233c3.193,-1.894 3.942,-3.992 1.047,-2.93c-3.397,1.246 -10.664,0.292 -13.988,-1.836c-2.235,-1.431 -4.458,-1.984 -6.908,-1.718c-1.988,0.215 -6.737,-0.175 -10.554,-0.866c-6.996,-1.269 -20.299,-1.502 -23.274,-0.409c-0.884,0.325 -6.42,0.506 -12.301,0.403c-9.729,-0.17 -10.993,-0.412 -13.998,-2.679c-1.816,-1.37 -3.661,-2.279 -4.098,-2.019c-0.438,0.259 0.034,1.067 1.054,1.794c2.544,1.819 0.889,3.031 -3.467,2.537c-1.993,-0.226 -4.082,0.03 -4.642,0.566c-1.954,1.876 -4.191,1.007 -3.233,-1.255c0.544,-1.288 0.295,-2.234 -0.59,-2.234c-0.844,0 -1.534,0.54 -1.534,1.199c-0,0.925 -1.627,1.049 -7.152,0.545c-3.933,-0.36 -7.689,-0.463 -8.346,-0.229c-1.763,0.627 -11.809,-4.168 -10.787,-5.15c0.48,-0.461 2.434,-0.606 4.34,-0.322c2.652,0.395 3.66,0.081 4.284,-1.336c0.897,-2.034 -0.612,-2.329 -4.918,-0.962c-2.058,0.654 -3.411,0.534 -5.063,-0.446c-1.241,-0.736 -4.697,-1.339 -7.68,-1.339c-3.371,0 -5.745,-0.494 -6.27,-1.306c-0.733,-1.133 -1.325,-1.12 -4.458,0.098c-1.987,0.773 -4.736,1.149 -6.109,0.837c-2.201,-0.502 -2.084,-0.828 0.998,-2.775c3.826,-2.416 3.72,-2.838 -0.784,-3.122c-11.819,-0.747 -16.838,1.052 -8.281,2.969c6.629,1.484 5.538,2.189 -3.388,2.19c-13.797,-0 -13.608,-0.038 -12.522,2.528c0.933,2.207 0.759,2.284 -3.806,1.689c-4.644,-0.605 -4.755,-0.549 -3.814,1.931c0.919,2.421 0.87,2.451 -0.942,0.584c-1.354,-1.396 -2.543,-1.74 -4.072,-1.179c-1.296,0.475 -3.321,0.423 -5.067,-0.132c-2.104,-0.668 -3.222,-0.62 -4.048,0.173c-0.764,0.733 -3.063,0.904 -6.96,0.518c-3.201,-0.317 -7.175,-0.643 -8.831,-0.725c-1.656,-0.081 -3.52,-0.575 -4.141,-1.096c-0.761,-0.639 -1.565,-0.547 -2.466,0.283c-2.117,1.948 -5.008,0.349 -3.131,-1.732c1.947,-2.158 6.813,-2.259 8.179,-0.169c0.972,1.489 1.114,1.489 2.962,-0c1.067,-0.86 2.374,-1.564 2.903,-1.564c0.53,0 2.183,-0.723 3.674,-1.608c2.611,-1.549 2.458,-1.606 -4.14,-1.563c-5.12,0.034 -6.851,-0.294 -6.851,-1.295c-0,-0.925 1.515,-1.327 4.893,-1.297c5.735,0.05 6.133,-0.494 1.594,-2.176c-2.981,-1.104 -3.629,-0.995 -6.703,1.125c-3.752,2.588 -5.396,3.023 -4.151,1.098c0.444,-0.687 -0.023,-1.553 -1.033,-1.924c-1.136,-0.417 -1.454,-0.304 -0.83,0.295c1.728,1.659 -4.491,3.453 -10.523,3.035c-4.882,-0.338 -5.291,-0.535 -3.094,-1.488c2.963,-1.285 3.412,-4.921 0.608,-4.921c-2.045,-0 -6.262,2.529 -6.696,4.016c-0.284,0.974 -10.929,2.549 -12.185,1.804c-0.427,-0.253 0.353,-0.461 1.733,-0.461c1.38,0 2.51,-0.374 2.51,-0.831c-0,-0.457 1.524,-1 3.387,-1.208c1.864,-0.207 -0.739,-0.283 -5.784,-0.169c-5.044,0.114 -10.464,0.607 -12.045,1.096c-2.761,0.853 -10.156,1.528 -27.555,2.513c-4.465,0.253 -9.333,0.845 -10.817,1.316c-3.542,1.125 -10.423,1.101 -10.423,-0.037c-0,-0.491 -1.186,-0.861 -2.635,-0.823c-1.574,0.043 -1.877,0.252 -0.753,0.522c3.501,0.838 1.91,1.877 -3.011,1.965c-2.692,0.049 -8.959,0.321 -13.927,0.606c-4.969,0.285 -10.559,0.537 -12.422,0.559c-1.863,0.024 -3.388,0.344 -3.388,0.715c0,0.862 -13.361,2.052 -24.09,2.146c-5.271,0.046 -8.881,0.536 -9.933,1.347c-1.112,0.857 -1.98,0.959 -2.655,0.311c-0.625,-0.6 -2.558,-0.7 -5.124,-0.265c-4.782,0.81 -10.347,0.687 -11.949,-0.264c-0.613,-0.364 -0.911,-2.067 -0.662,-3.785c0.25,-1.718 -0.303,-3.665 -1.229,-4.326c-2.457,-1.757 -7.388,-0.643 -9.897,2.236c-2.497,2.865 -6.31,3.844 -11.794,3.027c-6.533,-0.973 -10.846,-6.681 -6.842,-9.057c2.007,-1.19 -1.984,-5.2 -6.651,-6.682c-2.646,-0.84 -3.676,-0.53 -7.409,2.231c-8.974,6.637 -19.141,8.231 -27.529,4.317c-5.058,-2.361 -4.801,-2.363 -11.249,0.059c-5.912,2.221 -5.689,2.191 -20.659,2.725c-9.771,0.348 -11.371,0.676 -15.792,3.24c-2.705,1.569 -4.926,3.531 -4.936,4.36c-0.029,2.375 -4.467,2.277 -9.445,-0.208c-2.507,-1.252 -4.905,-2.276 -5.329,-2.276c-0.424,-0 -3.255,2.051 -6.291,4.558c-5.905,4.877 -6.613,4.982 -16.895,2.5c-4.288,-1.035 -5.173,-0.972 -8.041,0.568c-3.041,1.632 -3.33,1.642 -5.135,0.178c-2.472,-2.006 -3.368,-1.955 -5.411,0.31c-1.315,1.459 -1.176,2.19 0.643,3.383c1.378,0.903 1.967,2.325 1.45,3.499c-1.084,2.46 -3.024,2.546 -4.284,0.19c-0.611,-1.141 -2.278,-1.786 -4.619,-1.786c-4.649,-0 -4.957,2.804 -0.592,5.394c3.004,1.783 3.013,1.927 0.462,6.73c-1.701,3.201 -3.274,4.756 -4.525,4.471c-1.406,-0.32 -1.672,0.289 -1,2.284c0.746,2.213 0.147,3.145 -3.21,4.992c-3.388,1.863 -3.961,2.77 -3.197,5.056c0.512,1.532 2.409,3.451 4.215,4.265l3.285,1.479l-5.573,3.66c-3.065,2.013 -5.572,4.061 -5.572,4.551c-0,0.49 -1.062,0.89 -2.36,0.89c-1.675,0 -2.083,-0.518 -1.405,-1.786c0.526,-0.983 0.627,-1.787 0.225,-1.787c-1.433,0 -7,6.045 -7,7.6c0,1.677 -4.03,3.937 -7.105,3.985c-1.058,0.017 -1.493,-0.633 -1.027,-1.535c0.444,-0.86 -1.023,0.167 -3.261,2.283c-2.903,2.745 -4.764,3.689 -6.5,3.297c-1.95,-0.44 -2.059,-0.326 -0.551,0.576c2.817,1.683 2.27,2.822 -1.103,2.299c-2.657,-0.412 -2.789,-0.252 -1.198,1.459c0.984,1.057 1.607,2.626 1.385,3.486c-0.457,1.774 1.384,2.045 3.871,0.569c3.025,-1.795 5.301,0.095 4.282,3.556c-0.526,1.785 -1.451,5.745 -2.057,8.801c-1.238,6.252 -3.384,8.315 -6.864,6.601c-1.384,-0.681 -2.527,-0.753 -3.107,-0.196c-0.506,0.485 0.25,1.27 1.679,1.744c2.214,0.735 2.33,1.212 0.784,3.224c-2.396,3.12 -2.287,3.622 0.49,2.255c3.539,-1.743 9.742,2.091 9.742,6.022c0,1.792 1.241,3.798 3.07,4.963c1.688,1.075 3.492,2.967 4.008,4.206c0.517,1.238 3.878,4.398 7.47,7.022c3.592,2.625 6.531,5.098 6.531,5.496c0,0.869 8.458,2.73 9.526,2.096c0.412,-0.244 2.317,0.814 4.233,2.352c2.681,2.152 4.275,2.679 6.915,2.286c4.249,-0.633 10.365,1.629 13.2,4.882c1.812,2.078 5.667,3.763 24.093,10.532c4.344,1.596 15.489,4.633 23.338,6.359c3.726,0.819 8.455,2.041 10.508,2.715c2.168,0.712 9.592,1.347 17.717,1.516c9.099,0.189 15.633,0.796 18.703,1.738c3.261,1.001 6.555,1.274 10.666,0.883c3.476,-0.329 8.128,-0.096 11.193,0.561c5.197,1.115 5.307,1.086 12.195,-3.239l6.95,-4.365l23.922,-0.171l4.801,4.02c5.409,4.529 8.252,5.219 13.137,3.189c4.481,-1.862 8.698,-1.786 8.846,0.161c0.071,0.934 0.424,1.114 0.878,0.447c0.421,-0.619 3.315,-1.117 6.493,-1.117c4.483,0 7.328,-0.785 13.049,-3.602c8.687,-4.278 11.359,-4.77 23.179,-4.263c5.135,0.221 8.979,0.021 8.979,-0.465c0,-1.1 19.533,0.051 22.071,1.301c3.031,1.493 8.042,0.034 8.042,-2.34c0,-2.033 0.413,-2.105 12.422,-2.168c13.018,-0.068 29.736,1.534 29.736,2.848c0,0.423 -1.484,0.49 -3.298,0.149c-4.842,-0.912 -33.421,-1.27 -31.887,-0.399c2.457,1.394 36.388,2.805 37.678,1.567c0.385,-0.37 2.184,-0.187 3.997,0.407c1.813,0.594 6.309,1.208 9.991,1.364c3.682,0.157 8.588,0.845 10.902,1.531c2.707,0.801 4.543,0.925 5.144,0.347c0.565,-0.543 5.188,-0.705 11.682,-0.41c6.863,0.312 9.659,0.201 7.736,-0.306c-1.657,-0.437 -2.165,-0.823 -1.129,-0.858c1.035,-0.034 1.882,-0.666 1.882,-1.403c-0,-0.808 1.394,-1.34 3.513,-1.34c3.431,0 20.839,1.829 21.828,2.293c0.274,0.129 -0.258,1.073 -1.182,2.097c-1.45,1.608 -1.257,1.864 1.412,1.864c2.547,-0 2.926,-0.394 2.148,-2.234c-0.754,-1.783 -0.38,-2.232 1.854,-2.228c1.539,0.003 4.631,0.573 6.872,1.267c2.241,0.694 5.29,1.151 6.776,1.016c1.485,-0.135 1.815,-0.068 0.733,0.149c-2.434,0.487 -1.76,3.08 0.938,3.613c1.09,0.215 2.35,-0.445 2.801,-1.467c1.002,-2.274 9.245,-3.425 13.91,-1.944c1.761,0.559 3.785,0.803 4.498,0.541c0.713,-0.261 8.66,-0.033 17.66,0.509c9,0.541 19.823,1.078 24.05,1.194c4.228,0.117 8.405,0.475 9.282,0.796c1.97,0.723 12.351,1.425 28.201,1.908c6.625,0.202 14.416,0.538 17.315,0.747c6.531,0.471 30.104,2.196 45.169,3.304c9.932,0.731 24.065,1.477 60.226,3.182c5.382,0.254 15.545,0.839 22.584,1.3c7.039,0.461 13.137,0.839 13.551,0.84c0.414,0.001 2.495,-0.538 4.624,-1.197l-0.001,-0.003Zm40.545,-16.656c0,-0.492 0.299,-0.894 0.664,-0.894c0.366,0 1.083,0.402 1.595,0.894c0.511,0.491 0.213,0.893 -0.664,0.893c-0.877,0 -1.595,-0.402 -1.595,-0.893Zm-365.118,-0c-0.511,-0.492 0.126,-0.894 1.417,-0.894c1.291,0 2.347,0.402 2.347,0.894c0,0.491 -0.637,0.893 -1.416,0.893c-0.78,0 -1.836,-0.402 -2.348,-0.893Zm-24.554,-0.961c0.296,-0.528 1.183,-0.96 1.97,-0.96c0.786,0 1.673,0.432 1.97,0.96c0.297,0.529 -0.59,0.961 -1.97,0.961c-1.38,-0 -2.267,-0.432 -1.97,-0.961Zm400.212,-1.719c-0,-0.492 0.717,-0.894 1.594,-0.894c0.877,0 1.176,0.402 0.664,0.894c-0.511,0.491 -1.229,0.893 -1.594,0.893c-0.365,0 -0.664,-0.402 -0.664,-0.893Zm-466.043,-0.939c-1.669,-1.602 2.215,-1.624 5.53,-0.033l3.538,1.7l-4.156,-0.472c-2.286,-0.259 -4.497,-0.797 -4.912,-1.196l0,0.001Zm428.986,-3.366c0.599,-0.575 2.232,-0.524 4.647,0.146l3.724,1.032l-3.348,0.535c-3.715,0.593 -6.453,-0.34 -5.023,-1.713l-0,0Zm-8.112,-0.134c-0,-0.476 1.016,-0.634 2.258,-0.351c1.242,0.283 2.259,0.672 2.259,0.865c-0,0.194 -1.017,0.352 -2.259,0.352c-1.242,-0 -2.258,-0.39 -2.258,-0.866Zm-30.866,-2.708c-0.512,-0.491 0.166,-0.893 1.506,-0.893c1.34,-0 2.017,0.402 1.505,0.893c-0.511,0.492 -1.189,0.894 -1.505,0.894c-0.317,-0 -0.994,-0.402 -1.506,-0.894Zm-21.534,-2.205c-1.811,-1.075 0.941,-1.137 9.489,-0.214c7.979,0.861 8.506,1.039 4.517,1.525c-4.212,0.514 -12.189,-0.233 -14.006,-1.311l-0,-0Zm-11.242,-1.954c1.019,-0.245 3.052,-0.26 4.517,-0.034c1.465,0.227 0.63,0.427 -1.854,0.445c-2.484,0.017 -3.683,-0.167 -2.663,-0.412l-0,0.001Zm-11.233,-0.847c0.501,-0.297 1.799,-0.329 2.886,-0.071c1.201,0.286 0.845,0.497 -0.909,0.54c-1.588,0.039 -2.477,-0.172 -1.977,-0.469l0,-0Zm-7.528,-0.893c0.5,-0.297 1.799,-0.329 2.886,-0.071c1.201,0.285 0.844,0.497 -0.91,0.54c-1.587,0.039 -2.476,-0.173 -1.976,-0.469l0,-0Zm-5.677,-0.354c-0.512,-0.491 0.125,-0.893 1.416,-0.893c1.291,-0 2.348,0.402 2.348,0.893c-0,0.491 -0.638,0.893 -1.417,0.893c-0.779,0 -1.836,-0.402 -2.347,-0.893Zm-34.63,-1.818c-3.313,-0.453 -10.427,-1.035 -15.809,-1.293c-36.058,-1.73 -43.793,-2.191 -45.152,-2.689c-0.841,-0.308 -9.15,-0.733 -18.464,-0.945c-32.133,-0.728 -37.262,-1.175 -37.262,-3.244c-0,-0.613 0.775,-0.568 2.186,0.127c1.205,0.594 3.598,0.811 5.332,0.484c1.731,-0.326 10.74,-0.062 20.022,0.585c9.282,0.648 17.892,1.091 19.135,0.984c1.242,-0.106 8.695,0.242 16.562,0.774c15.643,1.059 15.195,1.029 36.888,2.444c28.471,1.856 37.258,2.667 38.791,3.576c1.768,1.049 -12.44,0.536 -22.229,-0.803l-0,0Zm-166.478,-8.302c0.685,-0.408 4.038,-0.963 7.45,-1.235c4.886,-0.388 6.205,-0.208 6.205,0.849c0,1.027 -1.746,1.316 -7.45,1.234c-4.098,-0.059 -6.89,-0.441 -6.205,-0.848Zm-34.902,-0.511c-0.621,-0.049 -1.129,-0.422 -1.129,-0.83c0,-1.022 25.741,-0.424 27.533,0.64c1.143,0.678 -18.39,0.818 -26.404,0.19l0,-0Zm-19.949,-0.089c-3.861,-0.583 -3.369,-0.697 3.387,-0.787c4.385,-0.059 7.905,0.292 7.905,0.787c-0,1.01 -4.602,1.01 -11.292,0Zm-55.709,-0.893c4.144,-1.057 5.617,-1.057 4.517,0c-0.512,0.491 -2.415,0.865 -4.23,0.831c-3.18,-0.061 -3.19,-0.091 -0.287,-0.831l-0,0Zm162.264,-2.326c0.5,-0.297 1.799,-0.329 2.886,-0.071c1.201,0.285 0.844,0.497 -0.91,0.54c-1.587,0.039 -2.476,-0.172 -1.976,-0.469l0,-0Zm171.612,-32.183c-1.863,-0.296 -3.388,-0.802 -3.388,-1.123c0,-0.964 15.856,-0.427 18.958,0.642c2.382,0.82 1.587,0.992 -4.654,1.005c-4.141,0.006 -9.053,-0.228 -10.916,-0.524Zm-10.163,-1.224c-0.512,-0.491 0.165,-0.893 1.505,-0.893c1.34,-0 2.018,0.402 1.506,0.893c-0.512,0.492 -1.189,0.894 -1.506,0.894c-0.316,-0 -0.993,-0.402 -1.505,-0.894Zm15.433,-6.883c1.863,-0.213 4.912,-0.213 6.775,-0c1.863,0.213 0.339,0.387 -3.388,0.387c-3.726,-0 -5.251,-0.175 -3.387,-0.387Zm-24.091,-0.855c1.035,-0.248 2.729,-0.248 3.764,0c1.036,0.248 0.189,0.451 -1.882,0.451c-2.07,-0 -2.917,-0.203 -1.882,-0.451Zm11.669,-4.768c-1.101,-1.057 0.373,-1.057 4.517,-0c2.903,0.74 2.893,0.77 -0.287,0.83c-1.815,0.035 -3.718,-0.339 -4.23,-0.83l0,-0Zm-12.798,-1.264c0,-0.484 -0.813,-0.398 -1.807,0.192c-2.186,1.297 -11.197,1.426 -12.496,0.178c-0.512,-0.491 -0.608,-0.893 -0.213,-0.893c0.395,0 1.902,-0.269 3.347,-0.598c1.671,-0.381 2.268,-0.253 1.64,0.351c-0.664,0.637 0.615,0.759 3.893,0.369c5.948,-0.708 15.893,-0.229 13.498,0.649c-2.551,0.935 -7.862,0.768 -7.862,-0.248l0,0Zm-50.439,0.37c1.181,-1.133 6.831,-1.133 9.787,0c1.651,0.634 0.514,0.87 -4.23,0.88c-3.946,0.007 -6.123,-0.336 -5.557,-0.88Zm-17.315,-0.006c0,-0.488 2.71,-0.887 6.023,-0.887c3.312,-0 6.022,0.336 6.022,0.747c0,0.41 -2.71,0.809 -6.022,0.886c-3.313,0.077 -6.023,-0.259 -6.023,-0.746l0,-0Zm111.763,-4.293c-0.333,-0.592 0.788,-1.061 2.541,-1.061c3.127,0 4.065,0.938 2.101,2.103c-1.395,0.828 -3.909,0.264 -4.642,-1.042Zm-9.379,-1.165c-0,-1.016 5.591,-1.033 6.645,-0.02c0.441,0.422 0.441,0.982 0.002,1.242c-1.181,0.701 -6.647,-0.304 -6.647,-1.222l-0,-0Zm-33.501,1.26c1.864,-0.213 4.912,-0.213 6.776,0c1.863,0.213 0.338,0.387 -3.388,0.387c-3.726,0 -5.251,-0.174 -3.388,-0.387Zm-13.174,-0.263c-0,-0.491 0.847,-0.933 1.882,-0.982c1.035,-0.049 0.188,-0.386 -1.882,-0.748c-4.46,-0.78 -6.093,-0.301 -2.968,0.872c1.633,0.612 0.928,0.834 -2.678,0.845c-3.356,0.01 -4.894,-0.408 -4.894,-1.327c0,-1.726 -2.83,-1.714 -6.069,0.027c-1.959,1.052 -3.461,1.159 -6.534,0.465c-2.195,-0.495 -6.081,-0.755 -8.637,-0.579c-2.555,0.177 -12.542,-0.393 -22.192,-1.266c-9.65,-0.873 -18.04,-1.41 -18.644,-1.192c-1.828,0.659 -7.337,-1.496 -6.32,-2.472c0.521,-0.5 1.867,-0.7 2.992,-0.444c1.125,0.256 10.033,0.516 19.797,0.577c9.764,0.062 22.157,0.46 27.54,0.886c5.382,0.425 14.529,1.007 20.326,1.292c14.003,0.688 15.668,1.048 14.726,3.186c-0.779,1.768 -6.445,2.526 -6.445,0.862l-0,-0.002Zm-99.749,-3.271c1.035,-0.248 2.729,-0.248 3.764,-0c1.035,0.247 0.189,0.45 -1.882,0.45c-2.07,0 -2.917,-0.203 -1.882,-0.45Zm170.922,-1.735c0.5,-0.297 1.799,-0.329 2.886,-0.071c1.201,0.286 0.844,0.497 -0.91,0.54c-1.587,0.039 -2.476,-0.172 -1.976,-0.469l-0,-0Zm-63.645,-2.112c0,-0.476 1.017,-0.634 2.259,-0.351c1.242,0.283 2.258,0.672 2.258,0.865c0,0.193 -1.016,0.351 -2.258,0.351c-1.242,0 -2.259,-0.389 -2.259,-0.865Zm-8.281,-0.027c-2.509,-0.64 -2.18,-0.778 1.971,-0.831c2.96,-0.037 4.605,0.3 4.052,0.831c-1.085,1.041 -1.938,1.041 -6.023,-0Zm200.777,-1.34c0,-0.467 0.729,-0.993 1.619,-1.169c0.89,-0.176 1.619,0.35 1.619,1.169c-0,0.819 -0.729,1.345 -1.619,1.169c-0.89,-0.176 -1.619,-0.702 -1.619,-1.169Zm-208.65,0.8c0.5,-0.297 1.799,-0.328 2.886,-0.071c1.201,0.286 0.844,0.497 -0.91,0.54c-1.587,0.039 -2.476,-0.172 -1.976,-0.469l-0,0Zm-43.299,-1.388c-0.902,-0.496 4.423,-0.584 13.551,-0.222c23.988,0.951 28.924,1.907 7.508,1.454c-10.765,-0.227 -20.242,-0.782 -21.059,-1.232l0,0Zm-12.692,-0.431c-0.345,-0.177 1.518,-0.321 4.14,-0.321c2.623,-0 4.768,0.409 4.768,0.91c0,0.801 -7.11,0.331 -8.908,-0.589l-0,-0Zm-38.896,0.341c-1.035,-0.485 -1.882,-1.234 -1.882,-1.665c0,-0.936 9.571,-1.061 11.114,-0.145c0.592,0.351 6.464,0.517 13.049,0.369c6.585,-0.148 11.972,0.087 11.972,0.522c0,0.436 -4.887,0.892 -10.861,1.013c-5.975,0.122 -11.056,0.337 -11.293,0.477c-1.1,0.653 -10.424,0.213 -12.099,-0.571l0,-0Zm-24.09,-0.292c-10.843,-0.812 -7.079,-2.157 6.037,-2.157c10.404,0 12.716,0.266 14.15,1.629c1.589,1.51 1.146,1.606 -6.037,1.318c-4.263,-0.171 -10.631,-0.527 -14.15,-0.79Zm-233.265,-0.478c1.509,-0.521 4.276,-0.718 6.15,-0.439c1.873,0.278 5.704,0.116 8.514,-0.362c2.809,-0.478 6.478,-0.592 8.153,-0.253c2.68,0.543 2.503,0.691 -1.471,1.23c-2.484,0.338 -8.921,0.649 -14.304,0.692c-7.571,0.061 -9.165,-0.135 -7.042,-0.868l-0,0Zm202.776,-0.763c2.668,-1.05 8.56,-1.201 9.552,-0.246c0.383,0.369 -2.118,0.775 -5.558,0.902c-4.56,0.169 -5.641,-0.01 -3.994,-0.656l-0,-0Zm-7.905,0.279c1.035,-0.247 2.729,-0.247 3.764,0c1.035,0.248 0.188,0.451 -1.882,0.451c-2.07,-0 -2.917,-0.203 -1.882,-0.451Zm268.506,-5.338c-1.227,-0.632 20.265,-0.133 23.965,0.556c2.07,0.385 -2.334,0.49 -9.787,0.234c-7.453,-0.257 -13.833,-0.613 -14.178,-0.79l0,-0Zm-14.081,-0.909c1.019,-0.245 3.052,-0.26 4.517,-0.034c1.465,0.227 0.631,0.427 -1.854,0.445c-2.484,0.017 -3.683,-0.167 -2.663,-0.412l-0,0.001Zm-10.887,-0.307c-0.512,-0.492 0.125,-0.894 1.416,-0.894c1.291,0 2.348,0.402 2.348,0.894c-0,0.491 -0.638,0.893 -1.417,0.893c-0.779,-0 -1.836,-0.402 -2.347,-0.893Zm-282.308,-0.097c-0,-0.543 0.929,-0.776 2.064,-0.518c1.135,0.259 7.262,0.087 13.614,-0.381c10.993,-0.809 19.399,-0.122 11.695,0.957c-7.089,0.993 -27.373,0.95 -27.373,-0.058l-0,-0Zm248.431,-0.751c-6.204,-0.656 -5.827,-0.717 4.47,-0.726c6.185,-0.007 12.621,0.32 14.303,0.725c4.074,0.979 -9.498,0.98 -18.773,0.001Zm-200.251,-0.169c0,-0.423 2.88,-0.802 6.399,-0.841c3.52,-0.039 10.464,-0.196 15.433,-0.35c12.414,-0.383 14.38,0.761 2.259,1.314c-16.089,0.735 -24.091,0.694 -24.091,-0.123l0,0Zm-13.927,0.425c1.035,-0.248 2.729,-0.248 3.764,-0c1.035,0.248 0.189,0.451 -1.882,0.451c-2.07,-0 -2.917,-0.203 -1.882,-0.451Zm165.997,-1.195c0,-1.074 19.236,-1.109 27.854,-0.051c4.663,0.572 2.198,0.762 -10.915,0.841c-10.404,0.064 -16.939,-0.242 -16.939,-0.79l0,-0Zm-5.27,-0c-0.511,-0.491 -0.253,-0.893 0.575,-0.893c0.829,-0 1.925,0.402 2.437,0.893c0.511,0.491 0.253,0.893 -0.576,0.893c-0.828,0 -1.924,-0.402 -2.436,-0.893Zm-9.034,-0c-0.511,-0.491 -0.212,-0.893 0.664,-0.893c0.877,-0 1.595,0.402 1.595,0.893c-0,0.491 -0.299,0.893 -0.664,0.893c-0.365,0 -1.083,-0.402 -1.595,-0.893Zm-100.125,-0.069c0,-0.453 6.945,-0.839 15.433,-0.856c87.41,-0.18 79.892,-0.246 78.898,0.702c-1.038,0.99 -94.331,1.142 -94.331,0.154l0,-0Zm93.568,-27.432c-1.122,-0.14 -3.096,0.262 -4.385,0.893c-1.952,0.956 -2.219,0.924 -1.591,-0.192c0.996,-1.769 9.076,-1.767 9.889,0.003c0.367,0.798 0.114,0.977 -0.629,0.444c-0.684,-0.491 -2.162,-1.008 -3.284,-1.148l0,0Zm-83.028,-0.192c-0,-0.491 1.524,-0.887 3.387,-0.88c2.74,0.011 2.956,0.18 1.13,0.88c-2.919,1.119 -4.517,1.119 -4.517,0Zm60.703,-2.847c0.48,-0.713 0.837,-0.501 0.909,0.539c0.066,0.942 -0.291,1.47 -0.791,1.173c-0.5,-0.297 -0.553,-1.068 -0.119,-1.712l0.001,-0Zm-8.193,-0.071c1.487,-0.876 1.66,-0.773 0.843,0.5c-0.565,0.881 -1.407,1.377 -1.871,1.102c-0.463,-0.276 -0.001,-0.996 1.028,-1.602Zm20.513,-7.802c-0.511,-0.491 -2.381,-0.893 -4.154,-0.893c-2.465,-0 -2.808,-0.246 -1.457,-1.048c2.017,-1.197 9.376,0.312 9.376,1.922c-0,1.171 -2.551,1.184 -3.765,0.02l0,-0.001Zm-287.555,-0.872c-0.376,-0.361 0.99,-0.467 3.035,-0.235c2.045,0.232 3.718,0.74 3.718,1.128c0,0.828 -5.752,0.067 -6.753,-0.893l0,-0Zm34.231,-0.289c-4.026,-1.806 -2.085,-3.423 3.764,-3.136c3.531,0.173 5.506,0.696 5.27,1.394c-0.207,0.614 0.301,1.116 1.129,1.116c0.828,0 1.506,-0.603 1.506,-1.34c-0,-0.744 1.338,-1.34 3.011,-1.34c3.975,0 3.818,1.236 -0.376,2.969c-3.667,1.516 -11.277,1.696 -14.303,0.337l-0.001,0Zm19.197,-0.968c0,-0.68 1.525,-1.478 3.388,-1.774c4.04,-0.643 10.227,-0.618 7.519,0.03c-1.041,0.249 -1.514,0.815 -1.051,1.259c0.462,0.444 -0.143,0.583 -1.344,0.31c-1.202,-0.274 -2.632,-0.068 -3.179,0.457c-1.436,1.379 -5.333,1.173 -5.333,-0.282l0,-0Zm-30.887,-1.283c1.347,-0.799 5.291,-0.971 5.291,-0.231c0,1.196 -1.757,1.743 -3.976,1.238c-1.197,-0.272 -1.789,-0.725 -1.315,-1.007l0,0Zm51.966,-0.608c-1.563,-1.117 -1.358,-1.34 1.233,-1.34c3.297,0 5.351,1.156 3.745,2.109c-1.517,0.9 -2.954,0.678 -4.978,-0.769Zm210.037,-1.34c-0.511,-0.491 0.126,-0.893 1.417,-0.893c1.291,-0 2.347,0.402 2.347,0.893c0,0.492 -0.637,0.893 -1.417,0.893c-0.779,0 -1.835,-0.401 -2.347,-0.893Zm-18.82,-0.402c-0,-0.693 5.863,-1.101 7.452,-0.519c0.98,0.359 -0.283,0.681 -2.845,0.724c-2.534,0.042 -4.607,-0.05 -4.607,-0.205l-0,-0Zm-42.158,-1.384c-0,-0.492 0.298,-0.894 0.664,-0.894c0.365,0 1.082,0.402 1.594,0.894c0.512,0.491 0.213,0.893 -0.664,0.893c-0.877,-0 -1.594,-0.402 -1.594,-0.893Zm-199.434,-1.848c0.546,-0.525 1.859,-0.757 2.916,-0.516c1.058,0.24 2.624,0.02 3.481,-0.487c0.857,-0.508 2.305,-0.65 3.219,-0.315c2.921,1.071 0.098,2.272 -5.341,2.272c-3.354,0 -4.908,-0.347 -4.275,-0.954l-0,0Zm-81.714,0.414c0.501,-0.296 1.799,-0.328 2.886,-0.07c1.201,0.285 0.845,0.497 -0.909,0.54c-1.588,0.038 -2.477,-0.173 -1.977,-0.47l0,0Zm95.201,-1.246c-0.512,-0.492 -0.213,-0.894 0.664,-0.894c0.877,0 1.594,0.402 1.594,0.894c0,0.491 -0.298,0.893 -0.664,0.893c-0.365,-0 -1.082,-0.402 -1.594,-0.893Zm34.093,-0.796c-1.282,-0.482 -1.473,-0.977 -0.513,-1.329c1.888,-0.692 6.32,0.238 6.32,1.327c-0,1.007 -3.131,1.008 -5.807,0.003l-0,-0.001Zm-28.416,0.256c0.501,-0.297 1.799,-0.329 2.886,-0.071c1.201,0.286 0.845,0.497 -0.909,0.54c-1.588,0.039 -2.477,-0.172 -1.977,-0.469l0,-0Zm54.549,-1.244c1.656,-0.357 3.926,-0.445 5.045,-0.196c1.119,0.249 2.566,-0.058 3.216,-0.682c0.651,-0.624 2.957,-1.251 5.126,-1.392c2.168,-0.141 3.602,0.07 3.186,0.469c-0.416,0.399 1.618,0.726 4.519,0.726c3.065,-0 5.792,-0.548 6.508,-1.307c1.079,-1.144 1.466,-1.141 3.098,0.027c1.595,1.14 0.834,1.425 -5.254,1.966c-4.41,0.393 -8.12,0.262 -9.754,-0.343c-1.992,-0.738 -3.06,-0.673 -4.375,0.266c-1.01,0.723 -4.375,1.217 -8.033,1.18c-4.463,-0.045 -5.418,-0.252 -3.282,-0.713l-0,-0.001Zm-127.227,0.548c-0,-0.793 6.091,-1.208 6.863,-0.467c0.463,0.445 -0.891,0.809 -3.01,0.809c-2.119,0 -3.853,-0.154 -3.853,-0.342Zm192.77,-5.188c-0.029,-0.831 0.657,-1.769 1.518,-2.085c1.007,-0.37 1.232,0.214 0.631,1.636c-0.52,1.23 -0.213,2.476 0.692,2.808c0.895,0.328 1.628,1.052 1.628,1.608c-0,1.621 -4.416,-2.3 -4.469,-3.967Zm-174.702,3.744c-0,-0.492 0.508,-0.914 1.129,-0.939c0.621,-0.023 4.178,-0.246 7.904,-0.494c3.727,-0.247 9.147,-0.605 12.046,-0.795c2.898,-0.191 5.608,-0.418 6.022,-0.505c0.414,-0.088 1.185,-0.126 1.713,-0.087c0.528,0.04 3.068,-0.286 5.646,-0.725c2.709,-0.461 4.686,-0.464 4.686,-0.006c0,0.877 -3.629,1.351 -23.394,3.055c-7.422,0.64 -14.002,1.214 -14.623,1.276c-0.621,0.062 -1.129,-0.289 -1.129,-0.78l-0,-0Zm148.682,-0.592c1.035,-0.248 2.729,-0.248 3.764,-0c1.035,0.248 0.188,0.451 -1.882,0.451c-2.071,-0 -2.917,-0.203 -1.882,-0.451Zm-105.019,-3.01c0,-1.524 4.464,-2.056 7.988,-0.952c1.817,0.57 2.227,0.859 0.91,0.644c-1.318,-0.215 -3.35,-0.034 -4.517,0.405c-2.826,1.061 -4.381,1.027 -4.381,-0.097l0,0Zm48.846,-0.949c-0.56,-0.538 -2.612,-0.797 -4.56,-0.576c-1.948,0.221 -3.184,0.058 -2.746,-0.362c0.437,-0.421 2.111,-0.765 3.718,-0.765c1.608,0 2.923,-0.314 2.923,-0.698c-0,-0.384 1.863,-0.756 4.14,-0.827c2.278,-0.071 3.29,0.077 2.249,0.328c-1.04,0.251 -1.508,0.824 -1.04,1.274c1.011,0.97 -0.456,2.603 -2.338,2.603c-0.73,0 -1.786,-0.44 -2.346,-0.977l-0,-0Zm61.905,-1.446c-0.622,-0.96 -0.182,-1.192 1.526,-0.803c1.319,0.301 4.037,0.546 6.039,0.546c5.695,0 4.267,1.422 -1.526,1.52c-3.323,0.056 -5.478,-0.395 -6.039,-1.263Zm-92.68,0.511c-0.004,-0.654 10.919,-1.6 11.998,-1.039c0.39,0.203 -0.166,0.689 -1.236,1.082c-2.268,0.832 -10.757,0.798 -10.762,-0.043l0,0Zm17.312,-0.768c-0.512,-0.491 -0.213,-0.893 0.664,-0.893c0.877,0 1.594,0.402 1.594,0.893c0,0.492 -0.299,0.894 -0.664,0.894c-0.365,-0 -1.082,-0.402 -1.594,-0.894Zm-35.383,-3.573c0,-0.491 0.299,-0.893 0.664,-0.893c0.366,-0 1.083,0.402 1.595,0.893c0.511,0.491 0.213,0.893 -0.664,0.893c-0.877,0 -1.595,-0.402 -1.595,-0.893Zm6.023,-1.176c-0,-0.784 1.982,-1.156 5.945,-1.116c5.993,0.059 6.395,0.861 0.83,1.655c-5.381,0.768 -6.775,0.657 -6.775,-0.539Zm-80.192,178.095c1.045,-0.993 1.246,-1.962 0.466,-2.248c-1.441,-0.528 -2.022,-0.131 -3.558,2.43c-1.265,2.109 0.809,1.987 3.092,-0.182l-0,-0Zm377.556,-0.042c-4.139,-1.055 -6.516,-1.055 -3.764,0c1.242,0.477 3.275,0.844 4.517,0.817c1.489,-0.034 1.232,-0.311 -0.753,-0.817Zm-9.098,0.062c0.476,-0.457 0.248,-1.058 -0.506,-1.335c-0.755,-0.277 -1.761,0.098 -2.236,0.832c-0.936,1.447 1.326,1.862 2.742,0.503l-0,0Zm-22.897,0.24c-1.035,-0.248 -2.729,-0.248 -3.764,0c-1.035,0.248 -0.188,0.451 1.882,0.451c2.07,-0 2.917,-0.203 1.882,-0.451Zm-176.589,-5.604c2.333,-2.587 1.914,-3.611 -1.811,-4.429c-6.292,-1.381 -11.397,2.399 -6.869,5.085c2.713,1.61 6.923,1.292 8.68,-0.656Zm128.032,-0.059c-2.948,-1.13 -4.942,-1.13 -3.764,0c0.512,0.492 2.076,0.888 3.477,0.88c2.194,-0.013 2.233,-0.133 0.287,-0.88l0,0Zm-117.495,-0.407c2.241,-1.602 0.816,-3.166 -2.884,-3.166c-3.396,0 -5.411,2.713 -2.758,3.712c2.711,1.02 3.567,0.938 5.642,-0.546Zm-43.609,-0.092c0,-0.766 -0.688,-1.14 -1.53,-0.831c-0.841,0.308 -1.14,0.935 -0.664,1.392c1.291,1.239 2.194,1.008 2.194,-0.561Zm583.127,-0.955c2.127,-1.261 -0.952,-2.119 -7.609,-2.119c-4.097,0 -6.396,0.325 -5.557,0.785c1.916,1.052 11.931,2.067 13.166,1.334Zm-563.794,-3.226c1.863,-1.106 2.335,-3.606 0.846,-4.489c-1.853,-1.1 -5.122,0.503 -5.122,2.512c-0,2.516 1.893,3.39 4.276,1.977Zm397.73,-0.702c0,-0.479 -0.968,-0.871 -2.151,-0.871c-1.183,0 -3.172,-0.606 -4.421,-1.347c-1.492,-0.885 -2.606,-1.023 -3.253,-0.403c-0.685,0.658 -1.585,0.647 -2.973,-0.036c-1.379,-0.68 -2.29,-0.692 -2.968,-0.042c-1.045,1.004 2.95,2.111 10.873,3.013c2.817,0.321 4.893,0.188 4.893,-0.314l0,0Zm-411.04,-0.477c0,-0.766 -0.677,-1.144 -1.506,-0.84c-0.828,0.303 -1.505,0.93 -1.505,1.392c-0,0.463 0.677,0.841 1.505,0.841c0.829,-0 1.506,-0.627 1.506,-1.393Zm398.398,-6.119c1.19,-1.841 -0.518,-3.208 -4.009,-3.208c-3.83,0 -3.757,2.352 0.112,3.58c2.371,0.753 3.222,0.672 3.897,-0.372l-0,-0Zm-9.425,-0.712c0.478,-1.084 0.557,-2.156 0.176,-2.382c-0.381,-0.227 -0.693,0.057 -0.693,0.63c-0,0.574 -1.186,1.011 -2.635,0.972c-1.574,-0.042 -1.877,-0.252 -0.753,-0.521c3.172,-0.759 2.091,-2.088 -1.698,-2.088c-1.968,-0 -4.416,0.598 -5.439,1.329c-1.521,1.088 -1.349,1.425 0.945,1.852c1.542,0.287 3.981,0.895 5.419,1.351c3.565,1.129 3.69,1.098 4.678,-1.143l0,-0Zm-6.258,-6.679c-1.087,-0.258 -2.385,-0.227 -2.886,0.07c-0.5,0.297 0.389,0.508 1.977,0.469c1.754,-0.043 2.11,-0.254 0.909,-0.539l0,-0Zm-19.103,-1.177c0.512,-0.491 -0.165,-0.893 -1.505,-0.893c-1.34,-0 -2.018,0.402 -1.506,0.893c0.512,0.491 1.189,0.893 1.506,0.893c0.316,0 0.994,-0.402 1.505,-0.893Zm-815.022,-0.61c-1.087,-0.258 -2.386,-0.226 -2.886,0.07c-0.5,0.297 0.389,0.508 1.976,0.47c1.754,-0.043 2.111,-0.255 0.91,-0.54l-0,-0Zm1162.85,-3.881c1.637,-1.572 -0.925,-2.548 -9.112,-3.474c-4.112,-0.464 -8.575,-1.097 -9.918,-1.405c-1.961,-0.45 -2.297,-0.107 -1.703,1.738c0.918,2.847 0.803,2.81 11.153,3.554c5.794,0.417 8.853,0.285 9.58,-0.413Zm-388.481,-1.762c-0.511,-0.491 -1.568,-0.893 -2.347,-0.893c-0.779,-0 -1.417,0.402 -1.417,0.893c0,0.491 1.056,0.893 2.347,0.893c1.291,0 1.929,-0.402 1.417,-0.893Zm-19.67,-0.262c-0.566,-0.881 -1.407,-1.377 -1.871,-1.102c-0.464,0.275 -0.001,0.996 1.028,1.602c1.487,0.876 1.66,0.773 0.843,-0.5Zm361.236,-3.758c1.242,-0.737 3.363,-1.34 4.713,-1.34c5.086,-0 0.585,-1.525 -7.816,-2.649c-16.941,-2.265 -20.537,-3.23 -22.212,-5.958c-3.581,-5.832 -4.883,-6.42 -20.557,-9.29c-8.347,-1.528 -15.521,-2.574 -15.942,-2.324c-0.421,0.249 -2.559,0.046 -4.751,-0.453c-2.192,-0.499 -13.206,-2.069 -24.477,-3.491c-11.27,-1.421 -22.324,-2.997 -24.564,-3.503c-2.241,-0.505 -6.007,-0.918 -8.37,-0.918c-6.011,-0 -9.059,-0.844 -9.059,-2.508c0,-1.107 -0.401,-1.185 -1.806,-0.351c-0.994,0.589 -3.415,1.072 -5.38,1.072c-2.607,-0 -3.427,0.423 -3.029,1.563c0.31,0.891 1.755,1.5 3.359,1.416c1.548,-0.081 4.571,0.281 6.718,0.806c4.324,1.056 24.171,4.338 39.285,6.496c16.362,2.336 21.697,3.25 24.843,4.254c1.656,0.528 5.722,1.437 9.034,2.02c7.17,1.261 8.606,3.535 3.163,5.006c-3.014,0.815 -4.35,0.777 -6.292,-0.18c-1.499,-0.738 -6.585,-1.257 -12.977,-1.324c-6.605,-0.069 -10.944,-0.525 -11.675,-1.227c-0.639,-0.614 -1.426,-1.021 -1.747,-0.905c-1.345,0.486 -15.99,-1.2 -20.158,-2.321c-5.243,-1.41 -26.349,-2.402 -26.349,-1.238c0,0.911 0.459,0.982 26.349,4.022c24.752,2.908 27.13,3.136 35.415,3.406c3.744,0.122 8.148,0.688 9.786,1.259c2.911,1.014 2.902,1.051 -0.408,1.603c-4.001,0.667 -4.741,4.571 -1.027,5.417c1.298,0.296 8.805,0.103 16.681,-0.428c13.28,-0.895 15.377,-0.806 28.847,1.221c17.081,2.571 17.469,2.587 20.403,0.847l-0,-0Zm-74.691,-10.865c1.035,-0.248 2.729,-0.248 3.764,-0c1.035,0.248 0.189,0.451 -1.882,0.451c-2.07,-0 -2.917,-0.203 -1.882,-0.451Zm71.142,-1.004c-0,-0.386 -1.355,-0.702 -3.012,-0.702c-1.656,0 -3.011,0.316 -3.011,0.702c0,0.386 1.355,0.702 3.011,0.702c1.657,0 3.012,-0.315 3.012,-0.702Zm-1262.86,-3.462c-1.035,-0.248 -2.729,-0.248 -3.764,-0c-1.035,0.247 -0.189,0.45 1.882,0.45c2.07,0 2.917,-0.203 1.882,-0.45Zm1122.83,-3.042c-0,-1.441 -0.663,-1.722 -3.011,-1.28c-1.657,0.312 -3.012,0.208 -3.012,-0.232c0,-0.439 -2.101,-0.616 -4.669,-0.392c-3.312,0.288 -4.078,0.629 -2.635,1.172c1.656,0.622 1.615,0.779 -0.224,0.841c-4.106,0.139 3.49,1.609 8.658,1.675c3.977,0.051 4.893,-0.283 4.893,-1.784l-0,-0Zm-9.634,-0.086c0.383,-0.368 1.691,-0.443 2.907,-0.166c3.065,0.698 2.761,1.119 -0.697,0.964c-1.599,-0.071 -2.593,-0.431 -2.21,-0.799l-0,0.001Zm40.5,-0.747c0.511,-0.492 0.212,-0.894 -0.664,-0.894c-0.877,0 -1.595,0.402 -1.595,0.894c0,0.491 0.299,0.893 0.664,0.893c0.365,-0 1.083,-0.402 1.595,-0.893Zm-68.507,-2.269c-1.242,-0.151 -7.47,-0.783 -13.84,-1.405c-6.37,-0.622 -11.243,-1.456 -10.827,-1.855c0.415,-0.398 0.093,-0.725 -0.715,-0.725c-0.808,0 -1.753,0.503 -2.101,1.117c-0.92,1.624 10.065,3.339 20.708,3.233c4.968,-0.05 8.017,-0.214 6.775,-0.365Zm132.496,-2.198c0,-0.491 -1.056,-0.893 -2.347,-0.893c-1.291,-0 -1.929,0.402 -1.417,0.893c0.512,0.491 1.568,0.893 2.348,0.893c0.779,0 1.416,-0.402 1.416,-0.893Zm-12.045,-2.233c1.031,-0.737 4.332,-1.346 7.336,-1.354c3.004,-0.007 6.415,-0.371 7.579,-0.809c1.305,-0.49 4.769,-0.317 9.034,0.451c9.041,1.628 11.02,1.54 5.411,-0.24c-2.484,-0.789 -4.855,-1.678 -5.269,-1.975c-2.787,-1.999 -14.358,-4.699 -18.817,-4.39c-2.785,0.192 -4.942,-0.034 -4.793,-0.504c0.15,-0.47 -1.958,-1.143 -4.683,-1.495c-2.725,-0.352 -6.224,-1.322 -7.775,-2.154c-1.729,-0.929 -5.699,-1.577 -10.258,-1.674c-4.09,-0.088 -8.537,-0.702 -9.883,-1.364c-2.637,-1.299 -7.152,-1.546 -12.891,-0.706c-1.982,0.29 -4.325,0.263 -5.206,-0.06c-0.881,-0.323 -2.986,-0.682 -4.677,-0.798c-17.02,-1.164 -29.575,-2.284 -33.931,-3.026c-7.659,-1.304 -10.511,-1.16 -7.136,0.36c1.464,0.659 6.613,1.463 11.443,1.787c5.68,0.381 10.497,1.34 13.635,2.714c4.712,2.062 8.046,2.466 30.058,3.636c10.849,0.577 18.985,1.942 21.259,3.567c1.245,0.891 4.682,1.338 10.338,1.346c9.838,0.014 15.249,0.718 15.249,1.983c-0,0.491 -1.385,0.679 -3.078,0.416c-1.692,-0.263 -4.911,0.09 -7.152,0.784c-2.24,0.693 -6.389,1.263 -9.218,1.266c-6.06,0.007 -5.234,0.785 2.537,2.391c7.228,1.494 8.613,1.474 10.888,-0.152l0,-0Zm-22.584,-1.453c-0,-0.429 -1.355,-0.781 -3.012,-0.781c-1.656,0 -3.011,-0.435 -3.011,-0.967c0,-0.533 -0.728,-0.824 -1.619,-0.648c-0.89,0.176 -1.601,0.712 -1.58,1.191c0.046,1.083 9.222,2.281 9.222,1.205Zm-90.91,-0.226c-0.19,-0.768 -0.766,-1.646 -1.28,-1.951c-0.514,-0.305 -0.779,0.074 -0.589,0.842c0.19,0.768 0.766,1.645 1.28,1.95c0.514,0.305 0.779,-0.074 0.589,-0.841Zm-11.474,-0.108c0,-0.737 -0.678,-1.34 -1.506,-1.34c-0.828,-0 -1.505,0.372 -1.505,0.828c-0,0.455 -1.186,1.011 -2.635,1.236c-1.621,0.251 -1.042,0.449 1.505,0.512c2.755,0.069 4.141,-0.345 4.141,-1.236Zm-67.001,0.447c-0.512,-0.492 -1.229,-0.894 -1.595,-0.894c-0.365,0 -0.664,0.402 -0.664,0.894c0,0.491 0.718,0.893 1.595,0.893c0.877,-0 1.176,-0.402 0.664,-0.893Zm-840.148,-1.787c0.512,-0.491 -0.504,-0.893 -2.258,-0.893c-1.754,-0 -2.771,0.402 -2.259,0.893c0.512,0.491 1.528,0.893 2.259,0.893c0.73,0 1.746,-0.402 2.258,-0.893Zm-57.685,0.283c-1.087,-0.258 -2.385,-0.226 -2.886,0.07c-0.5,0.297 0.39,0.508 1.977,0.47c1.754,-0.043 2.11,-0.255 0.909,-0.54l0,-0Zm883.906,-1.858c3.138,-0.408 3.273,-0.854 0.714,-2.372c-1.326,-0.787 -4.005,-0.951 -8.657,-0.53c-6.926,0.627 -6.958,0.592 2.297,2.593c1.656,0.359 4.197,0.497 5.646,0.309l-0,-0Zm118.164,-1.724c-1.465,-0.227 -3.498,-0.212 -4.517,0.034c-1.019,0.244 0.179,0.43 2.664,0.411c2.484,-0.016 3.318,-0.218 1.853,-0.445l-0,-0Zm-133.597,-0.363c-0,-0.443 -1.355,-0.805 -3.011,-0.805c-1.657,0 -3.022,-0.502 -3.035,-1.116c-0.017,-0.87 -0.294,-0.863 -1.249,0.03c-0.732,0.684 -2.393,0.901 -4.118,0.538c-2.209,-0.464 -2.496,-0.353 -1.216,0.473c2.001,1.29 12.629,2.031 12.629,0.88l-0,-0Zm-802.225,0.372c-1.086,-0.258 -2.385,-0.227 -2.885,0.07c-0.501,0.297 0.389,0.508 1.976,0.469c1.754,-0.043 2.111,-0.254 0.909,-0.539l0,-0Zm785.663,-1.288c-0,-0.461 -1.016,-1.07 -2.259,-1.352c-1.242,-0.283 -2.258,-1.075 -2.258,-1.759c-0,-0.684 -0.701,-1.244 -1.559,-1.244c-1.055,-0 -1.072,0.538 -0.051,1.669c0.828,0.918 1.164,1.872 0.746,2.12c-0.417,0.247 0.623,0.665 2.312,0.927c1.689,0.262 3.071,0.099 3.071,-0.361l-0.002,-0Zm-28.607,-0.782c-0,-0.491 -0.678,-0.893 -1.506,-0.893c-0.828,-0 -1.506,0.402 -1.506,0.893c0,0.491 0.678,0.893 1.506,0.893c0.828,0 1.506,-0.402 1.506,-0.893Zm134.284,-0.61c-1.087,-0.258 -2.385,-0.227 -2.886,0.07c-0.5,0.297 0.389,0.508 1.976,0.469c1.754,-0.042 2.111,-0.254 0.91,-0.539l0,-0Zm-17.07,-2.025c-0.647,-1.152 -2.712,-1.359 -2.898,-0.291c-0.062,0.356 0.7,0.809 1.693,1.005c0.994,0.197 1.536,-0.125 1.205,-0.714l-0,-0Zm-118.72,-0.938c-2.949,-1.131 -4.942,-1.131 -3.764,-0c0.512,0.491 2.076,0.887 3.477,0.879c2.194,-0.01 2.233,-0.133 0.287,-0.879l0,-0Zm-765.619,-1.787c-0.511,-0.491 -2.076,-0.887 -3.476,-0.88c-2.194,0.01 -2.234,0.134 -0.287,0.88c2.948,1.131 4.941,1.131 3.764,-0l-0.001,-0Zm949.307,-0.893c0,-0.492 -0.717,-0.894 -1.594,-0.894c-0.877,0 -1.176,0.402 -0.664,0.894c0.511,0.491 1.229,0.893 1.594,0.893c0.366,-0 0.664,-0.402 0.664,-0.893Zm-113.676,-0.812c-3.312,-0.955 -7.208,-1.766 -8.657,-1.802c-1.449,-0.036 -2.635,-0.669 -2.635,-1.406c0,-0.737 -0.701,-1.34 -1.559,-1.34c-1.02,-0 -0.959,0.664 0.176,1.922c1.431,1.586 1.35,1.835 -0.46,1.422c-1.207,-0.274 -3.035,-0.19 -4.064,0.187c-1.1,0.403 1.366,0.94 5.994,1.305c4.325,0.34 9.971,0.805 12.546,1.033c4.476,0.396 4.417,0.338 -1.34,-1.321l-0.001,-0Zm121.487,0.201c-1.087,-0.257 -2.386,-0.226 -2.886,0.071c-0.5,0.297 0.389,0.508 1.976,0.469c1.754,-0.043 2.111,-0.254 0.91,-0.539l-0,-0.001Zm-16.845,-1.632c0,-1.284 -0.392,-1.356 -2.283,-0.425c-2.232,1.099 -11.292,0.935 -33.099,-0.598c-5.125,-0.361 -7.048,-0.238 -6.023,0.385c0.828,0.503 10.483,1.201 21.456,1.551c18.338,0.584 19.949,0.511 19.949,-0.913Zm-953.823,0.456c0.511,-0.491 0.253,-0.893 -0.575,-0.893c-0.828,-0 -1.925,0.402 -2.437,0.893c-0.511,0.491 -0.252,0.893 0.576,0.893c0.828,0 1.924,-0.402 2.436,-0.893Zm-37.641,-0.893c-0.512,-0.492 -1.947,-0.894 -3.189,-0.894c-1.242,0 -1.84,0.402 -1.328,0.894c0.511,0.491 1.947,0.893 3.189,0.893c1.242,0 1.839,-0.402 1.328,-0.893Zm842.001,-0.619c-1.465,-0.227 -3.498,-0.212 -4.517,0.033c-1.019,0.245 0.179,0.43 2.664,0.412c2.484,-0.017 3.318,-0.218 1.853,-0.445l-0,-0Zm-781.342,-0.062c2.536,-0.502 2.28,-2.9 -0.505,-4.726c-1.979,-1.297 -2.018,-1.713 -0.256,-2.758c2.748,-1.63 1.621,-3.934 -1.235,-2.527c-1.113,0.548 -1.708,1.483 -1.323,2.079c0.385,0.595 -0.502,1.872 -1.971,2.838c-4.017,2.638 -4.019,4.606 -0.005,5.061c1.908,0.216 4.291,0.231 5.295,0.034l-0,-0.001Zm775.375,-1.999c1.115,-1.059 1.262,-1.787 0.362,-1.787c-0.835,0 -2.874,0.804 -4.53,1.787c-2.737,1.624 -2.77,1.787 -0.362,1.787c1.457,-0 3.496,-0.804 4.53,-1.787Zm-812.697,0.893c0,-0.491 -1.524,-0.887 -3.388,-0.879c-2.739,0.01 -2.955,0.179 -1.129,0.879c2.919,1.12 4.517,1.12 4.517,0Zm1107.48,-1.864c0.557,-0.534 0.427,-1.309 -0.287,-1.722c-1.336,-0.771 -25.2,-4.989 -35.929,-6.35c-16.334,-2.072 -31.618,-3.483 -33.381,-3.082c-1.081,0.246 -1.804,-0.041 -1.607,-0.637c0.211,-0.638 -1.035,-0.997 -3.029,-0.872c-1.864,0.117 -3.388,-0.086 -3.388,-0.451c-0,-0.955 -12.714,-0.643 -13.221,0.324c-0.233,0.444 1.259,0.933 3.316,1.086c2.155,0.161 4.146,1.04 4.7,2.076c0.899,1.681 1.137,1.701 3.715,0.318c2.569,-1.38 3.217,-1.358 9.65,0.331c3.793,0.995 6.896,1.551 6.896,1.235c0,-0.317 0.741,-0.136 1.645,0.401c0.926,0.549 4.185,0.773 7.454,0.513c7.605,-0.605 46.885,5.004 48.955,6.99c1.143,1.098 3.28,1.022 4.512,-0.16l-0.001,-0Zm-277.119,0.078c-0.511,-0.492 -1.608,-0.894 -2.436,-0.894c-0.828,0 -1.087,0.402 -0.575,0.894c0.512,0.491 1.608,0.893 2.436,0.893c0.828,0 1.087,-0.402 0.575,-0.893Zm117.402,-0.857c1.073,-1.03 1.015,-1.047 -4.855,-1.407c-2.277,-0.14 -8.714,-0.831 -14.304,-1.535c-5.589,-0.705 -10.163,-1.148 -10.163,-0.986c0,0.743 11.874,3.162 16.942,3.45c3.107,0.177 6.946,0.566 8.531,0.865c1.584,0.298 3.317,0.124 3.849,-0.387Zm-103.832,-0.267c3.465,-1.034 8.935,-5.028 7.804,-5.699c-0.415,-0.246 -3.371,0.017 -6.57,0.586c-3.893,0.692 -8.297,0.774 -13.321,0.249c-4.128,-0.432 -8.69,-0.639 -10.138,-0.46c-4.27,0.527 0.412,2.646 7.31,3.308c10.902,1.046 12.763,1.403 11.858,2.273c-1.015,0.974 -1.087,0.98 3.057,-0.257Zm1.72,-2.935c0.49,-0.758 1.214,-1.187 1.609,-0.953c0.395,0.235 0.271,0.855 -0.275,1.379c-1.484,1.425 -2.352,1.148 -1.334,-0.426Zm-43.144,2.719c-0,-0.737 -0.678,-1.34 -1.506,-1.34c-0.828,-0 -1.505,0.603 -1.505,1.34c-0,0.737 0.677,1.34 1.505,1.34c0.828,-0 1.506,-0.603 1.506,-1.34Zm-37.93,0.379c-0.296,-0.528 -1.183,-0.96 -1.97,-0.96c-0.786,0 -1.673,0.432 -1.969,0.96c-0.297,0.529 0.589,0.961 1.969,0.961c1.381,-0 2.267,-0.432 1.97,-0.961Zm-758.93,-1.943c-0.345,-0.614 -1.904,-1.263 -3.465,-1.443c-2.456,-0.282 -2.567,-0.131 -0.82,1.117c2.388,1.707 5.179,1.92 4.285,0.326l-0,0Zm860.567,-1.247c2.132,-1.264 0.926,-2.996 -2.086,-2.996c-2.105,0 -2.963,0.485 -2.635,1.489c0.537,1.644 3.108,2.465 4.721,1.507Zm43.193,-5.134c0,-0.193 -1.016,-0.582 -2.258,-0.865c-1.242,-0.283 -2.258,-0.125 -2.258,0.351c-0,0.476 1.016,0.865 2.258,0.865c1.242,0 2.258,-0.158 2.258,-0.351Zm-28.607,-4.115c0,-1.668 -0.401,-1.906 -1.807,-1.072c-1.405,0.834 -1.405,1.31 0,2.144c1.406,0.834 1.807,0.595 1.807,-1.072Zm131.744,-0c0.511,-0.491 0.213,-0.893 -0.664,-0.893c-0.877,-0 -1.595,0.402 -1.595,0.893c0,0.491 0.299,0.893 0.664,0.893c0.366,0 1.083,-0.402 1.595,-0.893Zm-6.051,-0.866c0.527,-0.506 0.411,-0.954 -0.259,-0.995c-0.67,-0.041 -2.912,-0.243 -4.982,-0.448c-2.071,-0.205 -8.507,-0.633 -14.304,-0.951c-5.797,-0.317 -12.031,-1.154 -13.853,-1.859c-1.823,-0.706 -4.638,-1.033 -6.256,-0.729c-1.617,0.305 -9.576,-0.268 -17.687,-1.273c-13.615,-1.687 -26.825,-1.708 -23.671,-0.038c1.527,0.809 20.874,2.689 32.107,3.12c7.399,0.284 21.095,1.368 33.877,2.682c2.484,0.255 6.666,0.677 9.293,0.938c2.627,0.26 5.207,0.059 5.735,-0.447l-0,-0Zm-972.881,-0.387c1.07,-1.654 -0.224,-2.32 -4.503,-2.32c-3.877,-0 -4.466,0.863 -1.706,2.501c2.421,1.436 5.216,1.355 6.209,-0.181Zm958.606,-4.107c-0,-0.491 -0.678,-0.893 -1.506,-0.893c-0.828,-0 -1.506,0.402 -1.506,0.893c0,0.491 0.678,0.893 1.506,0.893c0.828,0 1.506,-0.402 1.506,-0.893Zm-198.745,-0.946c0,-0.52 -0.677,-0.698 -1.506,-0.394c-0.828,0.303 -1.505,0.729 -1.505,0.946c-0,0.217 0.677,0.394 1.505,0.394c0.829,-0 1.506,-0.426 1.506,-0.946Zm229.319,-2.305c1.202,-0.714 -0.158,-2.109 -2.056,-2.109c-0.779,0 -1.417,0.603 -1.417,1.34c0,1.381 1.777,1.775 3.473,0.769Zm-996.794,-1.327c-1.022,-0.61 -2.237,-0.885 -2.7,-0.609c-0.464,0.275 0.372,0.774 1.857,1.11c2.145,0.484 2.318,0.382 0.843,-0.501Zm-11.694,0.111c1.629,-1.564 -0.779,-2.68 -5.735,-2.66l-4.805,0.02l3.764,1.747c4.299,1.995 5.468,2.149 6.776,0.894l-0,-0.001Zm963.61,-0.893c-0.511,-0.491 -1.229,-0.893 -1.594,-0.893c-0.366,-0 -0.664,0.402 -0.664,0.893c-0,0.491 0.717,0.893 1.594,0.893c0.877,0 1.176,-0.402 0.664,-0.893Zm-38.394,-1.34c0,-0.737 -1.333,-1.34 -2.964,-1.34c-2.016,-0 -2.687,0.428 -2.097,1.34c0.477,0.737 1.81,1.34 2.964,1.34c1.153,-0 2.097,-0.603 2.097,-1.34Zm20.326,-5.807c-0.511,-0.491 -1.229,-0.893 -1.594,-0.893c-0.365,-0 -0.664,0.402 -0.664,0.893c-0,0.492 0.718,0.894 1.594,0.894c0.877,-0 1.176,-0.402 0.664,-0.894Zm-907.148,0c-0,-0.491 -0.718,-0.893 -1.595,-0.893c-0.877,-0 -1.176,0.402 -0.664,0.893c0.512,0.492 1.229,0.894 1.595,0.894c0.365,-0 0.664,-0.402 0.664,-0.894Zm868.13,-1.016c0.65,-0.624 0.44,-0.808 -0.52,-0.456c-0.885,0.325 -1.953,0.085 -2.372,-0.532c-0.546,-0.803 -0.796,-0.82 -0.881,-0.058c-0.172,1.537 2.492,2.276 3.773,1.046l0,-0Zm-76.277,-2.313c-1.125,-0.871 -2.237,-1.751 -2.471,-1.956c-0.235,-0.205 -0.427,0.255 -0.427,1.021c0,0.766 1.113,1.646 2.472,1.956c2.151,0.49 2.207,0.358 0.426,-1.021Zm110.714,-0.182c0.477,-0.458 0.178,-1.084 -0.664,-1.393c-0.841,-0.308 -1.53,0.066 -1.53,0.832c0,1.569 0.904,1.8 2.194,0.561Zm31.332,-3.746c-1.022,-0.611 -2.237,-0.885 -2.7,-0.61c-0.464,0.275 0.372,0.775 1.857,1.11c2.146,0.485 2.319,0.382 0.843,-0.5Zm-160,-0.782c0,-0.983 -0.677,-1.787 -1.505,-1.787c-0.829,-0 -1.506,0.804 -1.506,1.787c-0,0.982 0.677,1.786 1.506,1.786c0.828,0 1.505,-0.804 1.505,-1.786Zm-874.376,0.782c-1.021,-0.611 -2.236,-0.885 -2.7,-0.61c-0.463,0.275 0.372,0.775 1.857,1.11c2.146,0.485 2.319,0.382 0.843,-0.5Zm1012.78,-1.304c-0.072,-1.04 -0.429,-1.252 -0.909,-0.539c-0.435,0.645 -0.382,1.415 0.119,1.712c0.5,0.297 0.856,-0.231 0.79,-1.173l0,0Zm-127.374,-0.729c0.445,-0.688 -0.818,-2.56 -2.807,-4.159c-2.923,-2.351 -3.796,-2.631 -4.553,-1.461c-0.53,0.82 0.473,2.621 2.319,4.159c3.719,3.099 3.941,3.163 5.041,1.461Zm-34.105,-0.167c0.563,-0.87 -0.619,-2.329 -3.058,-3.776c-2.21,-1.312 -3.976,-1.846 -3.976,-1.203c0,0.752 -1.186,0.982 -3.387,0.658c-1.864,-0.274 -2.541,-0.267 -1.506,0.014c1.035,0.282 1.882,1.059 1.882,1.728c0,1.197 5.54,3.996 7.911,3.996c0.669,-0 1.63,-0.638 2.134,-1.418l0,0.001Zm177.407,-0.369c0.512,-0.491 0.213,-0.893 -0.664,-0.893c-0.877,-0 -1.594,0.402 -1.594,0.893c-0,0.491 0.299,0.893 0.664,0.893c0.365,0 1.083,-0.402 1.594,-0.893Zm-112.938,0.013c1.111,-1.066 -0.299,-2.694 -2.332,-2.694c-1.832,-0 -1.844,2.418 -0.017,3.088c0.771,0.283 1.827,0.106 2.347,-0.394l0.002,0Zm172.411,-1.801c1.357,-0.52 1.543,-0.871 0.466,-0.879c-0.987,-0.007 -2.212,0.388 -2.724,0.879c-1.155,1.109 -0.634,1.109 2.259,0l-0.001,0Zm-149.164,-1.116c0.058,-1.352 -0.572,-2.457 -1.4,-2.457c-1.767,-0 -1.767,0.687 0,3.127c1.147,1.583 1.306,1.506 1.4,-0.67Zm-100.772,1.116c-0,-0.491 -0.718,-0.893 -1.595,-0.893c-0.877,-0 -1.175,0.402 -0.664,0.893c0.512,0.492 1.23,0.894 1.595,0.894c0.365,-0 0.664,-0.402 0.664,-0.894Zm-18.068,0.096c0,-0.439 -1.072,-1.042 -2.381,-1.34c-3.366,-0.766 -3.641,-0.706 -3.641,0.798c-0,0.744 1.338,1.34 3.011,1.34c1.656,-0 3.011,-0.359 3.011,-0.798Zm-9.995,-0.542c-0.477,-0.737 -1.45,-1.34 -2.164,-1.34c-0.713,-0 -0.907,0.603 -0.431,1.34c0.477,0.737 1.451,1.34 2.164,1.34c0.714,-0 0.908,-0.603 0.431,-1.34Zm276.494,-1.049c3.363,-1.035 3.444,-1.171 0.752,-1.277c-1.656,-0.066 -3.48,-0.079 -4.053,-0.031c-1.186,0.101 -11.292,-1.135 -19.65,-2.404c-3.168,-0.481 -5.272,-0.506 -4.804,-0.057c0.457,0.439 1.533,0.798 2.392,0.798c0.858,-0 3.435,0.792 5.727,1.76c2.291,0.968 4.448,1.593 4.791,1.389c0.344,-0.204 2.978,-0.067 5.853,0.305c3.42,0.442 6.529,0.275 8.992,-0.483l-0,-0Zm-164.916,-0.287c-0.628,-1.226 -1.092,-3.285 -1.03,-4.575c0.081,-1.684 -0.971,-2.639 -3.725,-3.384c-3.432,-0.928 -3.719,-0.869 -2.712,0.555c0.62,0.876 1.485,2.582 1.922,3.791c0.438,1.208 2.121,3.017 3.741,4.02l2.947,1.822l-1.143,-2.229Zm-878.494,1.051c0,-1.08 -2.856,-2.338 -3.901,-1.719c-0.378,0.225 0.344,0.918 1.606,1.539c1.431,0.705 2.295,0.772 2.295,0.18l0,0Zm790.462,-1.449c-0,-0.766 -0.678,-1.393 -1.506,-1.393c-0.828,0 -1.505,0.378 -1.505,0.841c-0,0.462 0.677,1.089 1.505,1.392c0.828,0.304 1.506,-0.074 1.506,-0.84Zm146.656,-1.046c0.681,-1.053 0.288,-1.293 -1.468,-0.893c-1.319,0.3 -2.682,0.546 -3.028,0.546c-0.347,0 -0.63,0.402 -0.63,0.893c0,1.456 4.115,1.017 5.126,-0.546Zm-31.768,0.869c0.561,-0.333 0.331,-1.097 -0.511,-1.699c-1.08,-0.773 -0.855,-1.249 0.766,-1.618c1.316,-0.299 2.277,-1.584 2.249,-3.008c-0.045,-2.323 -0.185,-2.377 -2.158,-0.831c-1.161,0.909 -2.786,1.405 -3.612,1.102c-0.826,-0.303 -1.941,-0.13 -2.477,0.385c-1.177,1.13 4.293,6.53 5.743,5.669l-0,0Zm74.132,-1.275c1.596,-1.532 0.167,-1.683 -2.987,-0.315c-2.442,1.06 -2.518,1.267 -0.463,1.267c1.352,0 2.904,-0.429 3.45,-0.953l-0,0.001Zm-162.671,-0.834c-0.512,-0.492 -1.608,-0.894 -2.437,-0.894c-0.828,0 -1.086,0.402 -0.575,0.894c0.512,0.491 1.608,0.893 2.437,0.893c0.828,0 1.086,-0.402 0.575,-0.893Zm103.136,-2.181c0,-0.766 -0.677,-1.393 -1.506,-1.393c-0.828,0 -1.505,0.379 -1.505,0.841c-0,0.462 0.677,1.089 1.505,1.393c0.829,0.303 1.506,-0.075 1.506,-0.841Zm-48.463,0.338c-0.362,-0.645 -1.548,-1.348 -2.635,-1.563c-1.129,-0.223 -1.693,0.112 -1.317,0.782c0.362,0.644 1.548,1.348 2.635,1.563c1.129,0.223 1.694,-0.112 1.317,-0.782Zm-23.808,-0.859c0,-2.214 -6.398,-3.852 -12.798,-3.278c-2.484,0.223 -5.702,0.038 -7.151,-0.412c-3.612,-1.121 -3.304,-0.382 0.983,2.363c2.491,1.594 3.836,1.956 4.32,1.162c0.566,-0.929 1.384,-0.913 4.218,0.085c2.502,0.881 3.681,0.946 4.086,0.224c0.834,-1.484 3.331,-1.241 3.331,0.324c-0,0.737 0.677,1.34 1.506,1.34c0.828,0 1.505,-0.814 1.505,-1.808l0,-0Zm-131.335,0.748c-0.75,-1.335 -4.172,-2.07 -4.172,-0.896c-0,0.479 1.072,1.116 2.384,1.415c1.466,0.334 2.154,0.134 1.788,-0.519Zm95.2,-2.361c-0,-1.979 -0.248,-2.094 -1.882,-0.872c-1.035,0.774 -2.899,1.589 -4.141,1.81c-1.357,0.241 -0.606,0.589 1.882,0.872c3.643,0.414 4.141,0.196 4.141,-1.81Zm167.126,-0.651c0,-0.766 -0.677,-1.145 -1.506,-0.841c-0.828,0.304 -1.505,0.93 -1.505,1.393c-0,0.462 0.677,0.84 1.505,0.84c0.829,0 1.506,-0.626 1.506,-1.392Zm-157.697,-0.207c1.459,-0.178 2.259,-0.7 1.778,-1.163c-0.482,-0.462 -1.506,-0.609 -2.277,-0.326c-0.771,0.283 -1.402,-0.29 -1.402,-1.273c0,-0.982 -0.723,-2.051 -1.606,-2.375c-2.46,-0.902 -2.667,-0.216 -0.828,2.748c1.159,1.869 2.505,2.611 4.335,2.389l-0,-0Zm-19.216,-0.187c-0.511,-0.491 -1.229,-0.893 -1.594,-0.893c-0.366,-0 -0.664,0.402 -0.664,0.893c-0,0.491 0.717,0.893 1.594,0.893c0.877,0 1.176,-0.402 0.664,-0.893Zm-26.349,-0.394c0,-1.442 -2.132,-2.51 -3.45,-1.728c-1.175,0.697 0.444,3.015 2.106,3.015c0.739,0 1.344,-0.579 1.344,-1.287Zm18.821,-0.499c0.512,-0.492 0.382,-0.899 -0.287,-0.906c-0.67,-0.007 -2.743,-0.254 -4.606,-0.551c-2.491,-0.396 -3.388,-0.156 -3.388,0.906c0,1.612 6.711,2.058 8.281,0.551l-0,-0Zm-25.693,-0.262c-0.565,-0.881 -1.407,-1.377 -1.871,-1.102c-0.463,0.275 -0.001,0.996 1.028,1.602c1.487,0.875 1.66,0.773 0.843,-0.5Zm-8.184,-0.626l5.27,-1.728l-7.952,0.163c-6.212,0.128 -7.855,0.461 -7.511,1.521c0.646,1.989 4.219,2.004 10.193,0.044l0,0Zm127.98,-0.006c-0,-0.492 -0.678,-0.894 -1.506,-0.894c-0.828,0 -1.506,0.402 -1.506,0.894c0,0.491 0.678,0.893 1.506,0.893c0.828,-0 1.506,-0.402 1.506,-0.893Zm-39.147,0.105c-0,-0.491 -0.678,-1.142 -1.506,-1.445c-0.828,-0.304 -1.505,-0.151 -1.505,0.341c-0,0.491 0.677,1.142 1.505,1.445c0.828,0.304 1.506,0.15 1.506,-0.341Zm-39.147,-1.52c0,-1.514 -1.437,-2.002 -4.5,-1.527c-4.706,0.73 -4.583,2.495 0.175,2.495c2.379,-0 4.325,-0.436 4.325,-0.968Zm13.551,-0.053c-0,-0.479 -1.054,-1.651 -2.342,-2.605c-2.207,-1.635 -2.239,-1.607 -0.549,0.499c2.195,2.735 2.891,3.241 2.891,2.106l-0,0Zm54.203,-2.552c0,-0.737 -0.656,-1.34 -1.458,-1.34c-0.802,-0 -1.069,0.603 -0.592,1.34c0.477,0.737 1.133,1.34 1.458,1.34c0.326,-0 0.592,-0.603 0.592,-1.34Zm-75.282,-0.841c0,-1.691 -2.156,-2.425 -5.134,-1.747c-3.818,0.87 -2.841,3.034 1.37,3.034c2.273,0 3.764,-0.509 3.764,-1.287Zm-724.213,0.341c-0,-0.52 -0.678,-0.697 -1.506,-0.394c-0.828,0.304 -1.506,0.73 -1.506,0.946c0,0.217 0.678,0.394 1.506,0.394c0.828,0 1.506,-0.425 1.506,-0.946Zm649.684,-1.734c-0.512,-0.491 -1.23,-0.893 -1.595,-0.893c-0.365,-0 -0.664,0.402 -0.664,0.893c0,0.492 0.718,0.894 1.595,0.894c0.877,-0 1.176,-0.402 0.664,-0.894Zm152.822,-2.18c0,-1.258 -0.677,-2.286 -1.505,-2.286c-0.828,-0 -1.506,0.78 -1.506,1.734c0,0.953 0.678,1.982 1.506,2.286c0.854,0.313 1.505,-0.438 1.505,-1.734Zm-6.775,1.287c-0.512,-0.491 -1.229,-0.893 -1.595,-0.893c-0.365,-0 -0.664,0.402 -0.664,0.893c0,0.491 0.718,0.893 1.595,0.893c0.877,0 1.176,-0.402 0.664,-0.893Zm-8.281,0.542c-0,-0.193 -1.016,-0.582 -2.259,-0.865c-1.242,-0.283 -2.258,-0.125 -2.258,0.351c0,0.476 1.016,0.865 2.258,0.865c1.243,0 2.259,-0.158 2.259,-0.351Zm-41.405,-0.542c0.511,-0.491 -0.086,-0.893 -1.328,-0.893c-1.242,-0 -2.677,0.402 -3.189,0.893c-0.512,0.491 0.086,0.893 1.328,0.893c1.242,0 2.677,-0.402 3.189,-0.893Zm-751.315,-0c-0.512,-0.491 -1.23,-0.893 -1.595,-0.893c-0.365,-0 -0.664,0.402 -0.664,0.893c0,0.491 0.718,0.893 1.595,0.893c0.877,0 1.176,-0.402 0.664,-0.893Zm814.959,-1.061c-0.93,-1.656 -4.171,-1.931 -4.171,-0.353c-0,0.777 1.072,1.414 2.384,1.414c1.311,-0 2.115,-0.477 1.787,-1.061Zm-55.781,-0.683c-0.422,-0.959 0.006,-1.909 0.954,-2.111c0.947,-0.202 1.231,-0.68 0.629,-1.063c-0.601,-0.383 -2.055,-0.222 -3.232,0.357c-2.286,1.126 -1.599,4.561 0.912,4.561c0.829,-0 1.16,-0.785 0.737,-1.744Zm-83.898,0.404c-0,-0.737 -0.605,-1.34 -1.345,-1.34c-0.739,-0 -1.734,0.603 -2.211,1.34c-0.528,0.816 -0.003,1.34 1.345,1.34c1.216,-0 2.211,-0.603 2.211,-1.34Zm171.643,-0.447c0,-0.491 -0.717,-0.893 -1.594,-0.893c-0.877,-0 -1.176,0.402 -0.664,0.893c0.511,0.492 1.229,0.894 1.594,0.894c0.365,-0 0.664,-0.402 0.664,-0.894Zm-106.901,-0.446c0,-0.834 1.422,-1.34 3.765,-1.34c4.17,-0 4.851,-1.033 1.703,-2.583c-2.52,-1.241 -6.285,-0.924 -12.243,1.03c-3.165,1.038 -3.714,1.492 -1.835,1.517c1.475,0.02 3.072,0.639 3.549,1.376c0.477,0.737 1.811,1.34 2.964,1.34c1.154,-0 2.097,-0.603 2.097,-1.34Zm-22.584,0.052c-0,-0.766 -0.678,-1.392 -1.506,-1.392c-0.828,-0 -1.505,0.378 -1.505,0.84c-0,0.463 0.677,1.089 1.505,1.393c0.828,0.303 1.506,-0.075 1.506,-0.841Zm-48.181,0.95c0,-0.185 -1.185,-0.889 -2.635,-1.563c-2.388,-1.111 -2.441,-1.08 -0.568,0.337c1.967,1.488 3.203,1.962 3.203,1.226l0,0Zm102.384,-2.789c-0,-0.737 -0.678,-1.34 -1.506,-1.34c-0.828,-0 -1.505,0.603 -1.505,1.34c-0,0.737 0.677,1.34 1.505,1.34c0.828,-0 1.506,-0.603 1.506,-1.34Zm209.284,-1.839c0,-0.766 -0.688,-1.141 -1.53,-0.832c-0.842,0.309 -1.14,0.935 -0.664,1.393c1.291,1.239 2.194,1.008 2.194,-0.561Zm-354.202,0.801c2.622,-0.628 2.358,-2.089 -0.376,-2.089c-1.242,0 -2.259,0.603 -2.259,1.34c0,0.737 0.17,1.309 0.377,1.27c0.207,-0.039 1.223,-0.273 2.258,-0.521Zm59.096,-1.94c0,-1.075 0.949,-1.935 2.136,-1.935c1.174,-0 3.285,-0.262 4.69,-0.582c2.072,-0.472 2.361,-0.218 1.528,1.34c-0.754,1.409 -0.399,1.922 1.332,1.922c3.048,-0 3.119,0.197 -2.223,-6.191c-4.397,-5.257 -7.463,-6.362 -7.463,-2.69c0,0.954 1.356,2.538 3.012,3.521c1.656,0.982 2.373,1.786 1.594,1.786c-0.779,0 -1.835,-0.402 -2.347,-0.893c-0.512,-0.491 -1.948,-0.893 -3.191,-0.893c-1.681,-0 -2.072,0.708 -1.525,2.764c0.889,3.35 2.457,4.531 2.457,1.851Zm-12.886,0.829c0.453,-0.435 -0.285,-1.043 -1.641,-1.352c-3.246,-0.739 -3.717,-0.335 -1.21,1.035c1.115,0.61 2.398,0.752 2.851,0.317l0,0Zm135.596,-0.978c-0.511,-0.491 -1.608,-0.893 -2.436,-0.893c-0.828,-0 -1.087,0.402 -0.575,0.893c0.511,0.492 1.608,0.894 2.436,0.894c0.828,-0 1.087,-0.402 0.575,-0.894Zm-56.461,0.106c-0,-0.492 -0.678,-1.142 -1.506,-1.446c-0.828,-0.303 -1.506,-0.15 -1.506,0.341c0,0.492 0.678,1.142 1.506,1.446c0.828,0.303 1.506,0.15 1.506,-0.341Zm40.652,-1.393c-0,-0.766 -0.678,-1.393 -1.506,-1.393c-0.828,0 -1.505,0.379 -1.505,0.841c-0,0.462 0.677,1.089 1.505,1.393c0.828,0.303 1.506,-0.075 1.506,-0.841Zm-140.048,0.223c0.012,-0.831 -0.654,-1.759 -1.482,-2.063c-1.906,-0.698 -1.906,0.484 -0,2.234c1.257,1.155 1.462,1.131 1.482,-0.171l0,0Zm131.67,-0.984c-0.566,-0.881 -1.407,-1.377 -1.871,-1.102c-0.464,0.275 -0.001,0.996 1.028,1.602c1.487,0.875 1.66,0.773 0.843,-0.5Zm-152.726,0.357c0,-0.439 -0.981,-1.021 -2.181,-1.294c-1.459,-0.332 -1.905,-0.068 -1.345,0.797c0.914,1.413 3.526,1.781 3.526,0.497Zm342.428,-1.594c0.544,-0.841 -0.023,-2.087 -1.289,-2.839c-2.008,-1.191 -2.366,-1.173 -3.228,0.159c-1.125,1.74 0.133,4.179 2.156,4.179c0.765,-0 1.828,-0.675 2.361,-1.499l-0,-0Zm-124.98,-2.852c6.204,-0.591 7.698,-1.549 5.552,-3.56c-1.073,-1.006 -1.897,-0.976 -4.869,0.177c-1.967,0.763 -6.129,1.543 -9.249,1.731c-3.119,0.189 -5.83,0.713 -6.022,1.163c-0.431,1.007 6.663,1.245 14.588,0.489l-0,0Zm-139.154,-1.949c-0,-0.466 -1.017,-0.847 -2.259,-0.847c-2.65,-0 -3.044,-1.482 -0.527,-1.98c0.953,-0.189 1.461,-0.806 1.129,-1.372c-0.358,-0.613 -1.896,-0.163 -3.802,1.113l-3.201,2.141l4.33,0.896c2.67,0.552 4.33,0.571 4.33,0.049l-0,-0Zm241.696,-1.78c1.411,-1.354 -2.414,-3.823 -4.242,-2.738c-1.689,1.002 -0.375,3.671 1.807,3.671c0.805,-0 1.901,-0.42 2.435,-0.933Zm-256,0.04c0.512,-0.492 0.253,-0.894 -0.575,-0.894c-0.828,0 -1.924,0.402 -2.436,0.894c-0.512,0.491 -0.253,0.893 0.575,0.893c0.828,-0 1.924,-0.402 2.436,-0.893Zm235.633,-2.181c-0,-1.257 -0.678,-2.286 -1.506,-2.286c-0.828,-0 -1.505,0.78 -1.505,1.734c-0,0.954 0.677,1.982 1.505,2.286c0.854,0.313 1.506,-0.437 1.506,-1.734Zm-312.535,1.177c-0.538,-0.516 -2.259,-0.74 -3.823,-0.497c-1.638,0.254 -3.398,-0.145 -4.149,-0.941c-1.442,-1.529 -4.712,-0.806 -4.712,1.041c0,0.785 2.262,1.201 6.831,1.255c4.422,0.053 6.486,-0.249 5.853,-0.858Zm200.738,-1.258c-0.623,-0.396 -0.012,-1.456 1.362,-2.356c2.345,-1.537 2.3,-1.636 -0.749,-1.636c-1.881,0 -3.245,0.564 -3.245,1.34c0,0.737 -0.051,1.632 -0.112,1.988c-0.063,0.356 0.784,0.813 1.882,1.016c1.097,0.202 1.485,0.043 0.862,-0.352l-0,-0Zm-169.758,-1.312c-1.591,-1.764 -4.517,-2.458 -4.517,-1.072c0,0.94 3.27,2.859 4.871,2.859c0.692,-0 0.532,-0.804 -0.354,-1.787l0,0Zm-22.585,0.894c0,-0.492 -0.717,-0.894 -1.594,-0.894c-0.877,0 -1.176,0.402 -0.664,0.894c0.512,0.491 1.229,0.893 1.594,0.893c0.366,-0 0.664,-0.402 0.664,-0.893Zm64.697,-0.447c-0,-0.491 -0.657,-1.496 -1.46,-2.233c-0.802,-0.737 -1.459,-0.938 -1.459,-0.447c-0,0.491 0.657,1.496 1.459,2.233c0.803,0.737 1.46,0.938 1.46,0.447Zm159.644,-2.233c-0,-0.492 -0.678,-0.894 -1.506,-0.894c-0.828,0 -1.505,0.402 -1.505,0.894c-0,0.491 0.677,0.893 1.505,0.893c0.828,-0 1.506,-0.402 1.506,-0.893Zm-267.316,0.061c1.114,-1.068 -1.719,-2.128 -3.724,-1.392c-1.684,0.617 -0.578,2.224 1.53,2.224c0.73,0 1.718,-0.374 2.194,-0.832Zm-14.521,-0.117c-0.363,-0.645 -1.548,-1.348 -2.635,-1.563c-1.129,-0.224 -1.694,0.111 -1.318,0.781c0.363,0.645 1.548,1.349 2.635,1.564c1.129,0.223 1.694,-0.112 1.318,-0.782Zm356.996,-2.109c-2.047,-1.139 -16.543,-2.959 -14.656,-1.84c0.504,0.3 4.488,1.104 8.854,1.787c6.477,1.014 7.544,1.023 5.802,0.053l-0,0Zm-957.465,0.92c0,-0.193 -1.016,-0.582 -2.258,-0.865c-1.242,-0.283 -2.259,-0.125 -2.259,0.351c0,0.476 1.017,0.866 2.259,0.866c1.242,-0 2.258,-0.159 2.258,-0.352Zm891.34,-1.33c-0,-0.491 -0.678,-1.141 -1.506,-1.445c-0.828,-0.304 -1.505,-0.15 -1.505,0.341c-0,0.491 0.677,1.142 1.505,1.446c0.828,0.303 1.506,0.15 1.506,-0.342Zm-320.702,-0.105c0,-0.491 -0.717,-0.893 -1.594,-0.893c-0.877,-0 -1.176,0.402 -0.664,0.893c0.511,0.491 1.229,0.893 1.594,0.893c0.366,0 0.664,-0.402 0.664,-0.893Zm-9.153,-0.223c0.066,-0.86 1.136,-1.564 2.378,-1.564c1.242,0 2.258,-0.602 2.258,-1.339c0,-0.737 -0.653,-1.34 -1.452,-1.34c-2.005,-0 -4.928,3.434 -4.034,4.739c0.402,0.587 0.785,0.364 0.85,-0.496Zm-21.777,0.285c0.477,-0.458 0.178,-1.084 -0.664,-1.393c-0.841,-0.309 -1.53,0.066 -1.53,0.832c0,1.569 0.904,1.8 2.194,0.561Zm422.397,-1.455c-0,-0.766 -0.689,-1.14 -1.53,-0.831c-0.842,0.308 -1.141,0.935 -0.664,1.392c1.29,1.24 2.194,1.008 2.194,-0.561Zm-221.352,-0.17c0.011,-1.106 -0.655,-2.01 -1.483,-2.01c-1.886,-0 -1.886,0.948 0,2.68c1.18,1.083 1.464,0.955 1.483,-0.67Zm185.747,-0.01c0.39,-0.374 -0.25,-1.458 -1.422,-2.409c-1.61,-1.306 -2.556,-1.477 -3.868,-0.698c-1.313,0.779 -1.267,1.368 0.19,2.409c2.101,1.502 3.993,1.761 5.1,0.698l-0,-0Zm-370.918,-0.214c-0,-0.491 -1.017,-0.893 -2.259,-0.893c-1.242,0 -2.258,0.402 -2.258,0.893c-0,0.492 1.016,0.894 2.258,0.894c1.242,-0 2.259,-0.402 2.259,-0.894Zm402.006,-0.893c0,-0.491 -0.678,-0.893 -1.506,-0.893c-0.828,-0 -1.505,0.402 -1.505,0.893c-0,0.491 0.677,0.893 1.505,0.893c0.828,0 1.506,-0.402 1.506,-0.893Zm-370.011,0.278c1.449,-0.225 2.635,-1.063 2.635,-1.862c-0,-1.13 -0.402,-1.215 -1.807,-0.381c-0.994,0.589 -2.987,1.072 -4.428,1.072c-1.442,-0 -3.04,0.402 -3.552,0.893c-0.94,0.902 2.308,1.028 7.152,0.278Zm13.927,-1.171c-0.512,-0.492 -1.608,-0.894 -2.436,-0.894c-0.828,0 -1.087,0.402 -0.575,0.894c0.511,0.491 1.608,0.893 2.436,0.893c0.828,0 1.087,-0.402 0.575,-0.893Zm344.039,-0.343c-0,-0.188 -1.356,-0.553 -3.013,-0.81c-1.658,-0.257 -2.634,-0.103 -2.17,0.343c0.81,0.778 5.183,1.172 5.183,0.467Zm-130.991,-0.551c0,-0.491 -0.677,-0.893 -1.506,-0.893c-0.828,0 -1.505,0.402 -1.505,0.893c-0,0.492 0.677,0.894 1.505,0.894c0.829,-0 1.506,-0.402 1.506,-0.894Zm-238.766,0.117c0.534,-0.512 2.083,-0.679 3.443,-0.369c1.892,0.43 2.233,0.195 1.457,-1.006c-0.557,-0.862 -1.014,-1.937 -1.014,-2.388c0,-0.451 -1.919,-0.82 -4.265,-0.82c-3.347,-0 -4.217,0.388 -4.042,1.8c0.287,2.316 3.078,4.072 4.421,2.783Zm-50.317,-0.117c-0,-0.491 -0.678,-0.893 -1.506,-0.893c-0.828,0 -1.505,0.402 -1.505,0.893c-0,0.492 0.677,0.894 1.505,0.894c0.828,-0 1.506,-0.402 1.506,-0.894Zm-268.854,-0.631c0.817,-1.273 0.644,-1.376 -0.843,-0.5c-1.029,0.606 -1.491,1.327 -1.028,1.602c0.464,0.275 1.306,-0.221 1.871,-1.102Zm298.967,-0.234c-0,-0.476 -1.017,-0.634 -2.259,-0.351c-1.242,0.283 -2.258,0.672 -2.258,0.865c-0,0.193 1.016,0.351 2.258,0.351c1.242,0 2.259,-0.389 2.259,-0.865Zm43.814,-0.996c1.58,-0.593 1.237,-0.795 -1.369,-0.805c-1.93,-0.007 -3.062,-0.411 -2.546,-0.907c0.963,-0.925 0.758,-0.981 -4.893,-1.332c-4.811,-0.299 -4.134,0.643 1.693,2.361c3.192,0.94 5.772,1.188 7.115,0.683Zm-40.269,0.353c0.597,-0.354 2.911,-0.789 5.142,-0.966c2.231,-0.177 4.397,-0.525 4.814,-0.772c1.281,-0.76 -6.541,-3.798 -8.189,-3.181c-0.876,0.327 -0.403,0.713 1.087,0.889c5.985,0.703 2.003,1.822 -6.572,1.847c-5.064,0.013 -9.581,0.247 -10.038,0.519c-0.457,0.271 1.518,0.492 4.389,0.492c2.871,0 5.908,0.409 6.75,0.908c0.842,0.5 2.02,0.619 2.617,0.265l-0,-0.001Zm-16.39,-0.233c1.009,-0.969 -4.347,-2.947 -5.741,-2.12c-0.503,0.299 -1.887,0.064 -3.076,-0.521c-1.632,-0.804 -2.424,-0.811 -3.24,-0.027c-1.263,1.212 2.235,2.786 4.904,2.206c1.008,-0.219 2.234,-0.013 2.724,0.456c1.138,1.093 3.293,1.096 4.429,0.007l0,-0.001Zm-81.659,-1.895c2.173,-0.751 2.301,-1.195 0.767,-2.653c-3.688,-3.504 -8.758,-1.716 -6.227,2.196c1.055,1.631 1.866,1.699 5.46,0.457Zm-13.214,0.125c1.232,-1.183 -1.462,-1.959 -4.443,-1.28c-2.009,0.457 -2.113,0.727 -0.512,1.329c2.617,0.984 3.892,0.971 4.955,-0.049l0,-0Zm-155.081,-0c1.538,-1.477 -1.664,-1.83 -4.607,-0.508c-2.763,1.24 -2.748,1.283 0.442,1.311c1.814,0.017 3.689,-0.346 4.165,-0.803Zm460.027,-0.732c-0.017,-1.06 -9.694,-4.69 -12.504,-4.69c-1.398,0 -2.542,0.402 -2.542,0.893c0,0.492 1.283,0.894 2.851,0.894c1.567,-0 3.256,0.628 3.753,1.396c0.497,0.769 1.539,1.164 2.316,0.879c0.776,-0.285 1.837,-0.109 2.358,0.39c1.097,1.054 3.784,1.223 3.768,0.238l0,0Zm-228.847,-0.223c0,-0.491 -1.016,-0.893 -2.258,-0.893c-1.242,-0 -2.259,0.402 -2.259,0.893c0,0.491 1.017,0.893 2.259,0.893c1.242,0 2.258,-0.402 2.258,-0.893Zm-82.434,-0.798c3.382,-2.035 3.331,-2.775 -0.192,-2.775c-3.391,-0 -6.855,2.228 -5.495,3.534c1.326,1.272 2.591,1.103 5.687,-0.759l0,-0Zm174.488,-0.945c-1.955,-1.007 -4.157,-1.83 -4.893,-1.83c-2.632,-0 -1.261,0.87 3.554,2.254l4.894,1.407l-3.555,-1.831Zm-69.469,-0.49c-0,-0.819 -0.728,-1.345 -1.619,-1.169c-0.89,0.176 -1.618,0.702 -1.618,1.169c-0,0.466 0.728,0.992 1.618,1.168c0.891,0.176 1.619,-0.35 1.619,-1.168Zm-42.158,0.499c-0,-0.462 -0.678,-1.089 -1.506,-1.393c-0.828,-0.303 -1.505,0.075 -1.505,0.841c-0,0.766 0.677,1.393 1.505,1.393c0.828,-0 1.506,-0.379 1.506,-0.841Zm398.995,-1.287c-0,-0.737 -0.678,-1.589 -1.506,-1.892c-0.828,-0.304 -1.505,0.051 -1.505,0.787c-0,0.737 0.677,1.589 1.505,1.893c0.828,0.303 1.506,-0.051 1.506,-0.788Zm-313.926,0.57c4.968,-0.18 9.625,-0.676 10.348,-1.103c1.637,-0.966 -4.666,-6.396 -7.089,-6.107c-0.965,0.115 -3.237,-0.278 -5.05,-0.874c-1.882,-0.618 -3.659,-0.735 -4.142,-0.271c-1.124,1.078 -6.915,0.19 -10.453,-1.603c-2.682,-1.36 -2.774,-1.322 -1.711,0.703c0.989,1.883 0.731,2.08 -2.144,1.634c-2.631,-0.409 -2.937,-0.27 -1.567,0.709c0.936,0.669 2.519,1.031 3.517,0.803c0.998,-0.227 3.151,0.186 4.783,0.918c2.799,1.256 2.625,1.341 -3.054,1.502c-3.313,0.093 -7.209,0.111 -8.658,0.038c-1.449,-0.072 -2.635,0.243 -2.635,0.699c0,1.452 3.068,2.02 5.209,0.966c1.618,-0.797 2.279,-0.619 3.047,0.816c0.748,1.399 2.118,1.794 5.773,1.665c2.636,-0.093 8.857,-0.316 13.826,-0.496l-0,0.001Zm-96.361,-0.229c-0.512,-0.491 -1.23,-0.893 -1.595,-0.893c-0.365,-0 -0.664,0.402 -0.664,0.893c0,0.491 0.718,0.893 1.595,0.893c0.877,0 1.175,-0.402 0.664,-0.893Zm235.633,-0.893c-0,-0.492 -0.718,-0.894 -1.595,-0.894c-0.877,0 -1.176,0.402 -0.664,0.894c0.512,0.491 1.229,0.893 1.595,0.893c0.365,0 0.664,-0.402 0.664,-0.893Zm-173.149,0.052c-0,-0.462 -0.847,-1.157 -1.882,-1.544c-1.238,-0.463 -0.335,-0.866 2.635,-1.178c5.529,-0.581 6.358,-3.258 0.897,-2.9c-1.991,0.131 -4.809,-0.401 -6.263,-1.182c-2.325,-1.248 -2.795,-1.258 -3.908,-0.085c-0.696,0.734 -3.637,1.467 -6.536,1.629c-6.355,0.355 -6.421,1.868 -0.114,2.633c2.506,0.305 6.243,1.209 8.305,2.011c4.205,1.635 6.866,1.874 6.866,0.616l-0,0Zm-57.215,-0.998c0,-1.012 -0.677,-1.591 -1.505,-1.288c-0.828,0.304 -1.506,1.132 -1.506,1.84c0,0.708 0.678,1.287 1.506,1.287c0.828,-0 1.505,-0.828 1.505,-1.839Zm-422.22,1.053c-0.45,-0.432 -2.222,-1.003 -3.939,-1.269c-2.562,-0.398 -2.803,-0.257 -1.344,0.785c1.903,1.361 6.65,1.796 5.283,0.484Zm390.884,-0.718c-1.087,-0.258 -2.385,-0.226 -2.886,0.071c-0.5,0.297 0.39,0.508 1.977,0.469c1.754,-0.043 2.11,-0.254 0.909,-0.54l0,0Zm-14.665,-0.206c0.485,-0.466 0.239,-1.082 -0.545,-1.369c-0.784,-0.288 -1.823,-0.142 -2.307,0.323c-0.485,0.465 -0.24,1.081 0.544,1.369c0.785,0.288 1.823,0.142 2.308,-0.323l-0,-0Zm-96.282,-0.077c-0.511,-0.491 -1.608,-0.893 -2.436,-0.893c-0.828,0 -1.087,0.402 -0.575,0.893c0.512,0.492 1.608,0.894 2.436,0.894c0.828,-0 1.087,-0.402 0.575,-0.894Zm270.807,-1.34c-0.476,-0.737 -1.471,-1.339 -2.211,-1.339c-0.739,-0 -1.344,0.602 -1.344,1.339c-0,0.737 0.995,1.34 2.211,1.34c1.347,0 1.872,-0.523 1.344,-1.34Zm-111.962,0.447c0,-0.491 -0.976,-0.893 -2.169,-0.893c-1.193,-0 -2.588,0.402 -3.1,0.893c-0.512,0.491 0.464,0.893 2.169,0.893c1.705,0 3.1,-0.402 3.1,-0.893Zm-80.712,-0.52c1.27,-1.964 1.177,-2.16 -1.022,-2.16c-1.065,0 -1.936,0.804 -1.936,1.787c-0,2.136 1.68,2.348 2.958,0.373Zm-24.138,0.073c0.528,-0.816 0.003,-1.34 -1.344,-1.34c-1.217,0 -2.212,0.603 -2.212,1.34c0,0.737 0.605,1.34 1.345,1.34c0.739,0 1.734,-0.603 2.211,-1.34Zm-193.267,0.447c0,-0.491 -0.677,-0.893 -1.505,-0.893c-0.828,-0 -1.506,0.402 -1.506,0.893c0,0.491 0.678,0.893 1.506,0.893c0.828,0 1.505,-0.402 1.505,-0.893Zm-77.54,-0c0.512,-0.491 0.213,-0.893 -0.664,-0.893c-0.877,-0 -1.594,0.402 -1.594,0.893c-0,0.491 0.298,0.893 0.663,0.893c0.366,0 1.083,-0.402 1.595,-0.893Zm478.794,-0.893c-0.512,-0.492 -1.608,-0.894 -2.436,-0.894c-0.828,0 -1.087,0.402 -0.575,0.894c0.511,0.491 1.608,0.893 2.436,0.893c0.828,-0 1.087,-0.402 0.575,-0.893Zm-126.538,0.061c1.113,-1.069 -1.719,-2.128 -3.725,-1.392c-1.683,0.617 -0.578,2.224 1.531,2.224c0.73,0 1.717,-0.374 2.194,-0.832Zm-392.908,-0.955c-0.512,-0.491 -2.077,-0.887 -3.477,-0.879c-2.194,0.01 -2.234,0.133 -0.287,0.879c2.948,1.131 4.941,1.131 3.764,0l-0,0Zm354.861,-0.61c-1.087,-0.258 -2.386,-0.226 -2.886,0.071c-0.501,0.296 0.388,0.508 1.976,0.469c1.754,-0.043 2.111,-0.255 0.91,-0.54l-0,0Zm-62.014,-0.174c-0,-0.431 -1.016,-1.284 -2.259,-1.896c-1.886,-0.929 -2.258,-0.8 -2.258,0.784c-0,1.09 0.96,1.896 2.258,1.896c1.243,0 2.259,-0.353 2.259,-0.784Zm30.113,-0.898c-0,-0.434 -1.694,-0.982 -3.764,-1.216c-4.147,-0.471 -5.161,0.602 -1.383,1.463c3.344,0.761 5.147,0.674 5.147,-0.247l-0,-0Zm-70.013,-0.105c0.512,-0.491 0.213,-0.893 -0.664,-0.893c-0.877,0 -1.594,0.402 -1.594,0.893c-0,0.492 0.299,0.894 0.664,0.894c0.365,-0 1.083,-0.402 1.594,-0.894Zm265.698,-1.064c0.029,-0.83 -0.675,-1.775 -1.558,-2.099c-2.654,-0.973 -3.026,0.053 -0.685,1.889c1.927,1.511 2.201,1.537 2.243,0.21l0,0Zm-118.145,0.171c-0.511,-0.491 -1.229,-0.893 -1.594,-0.893c-0.366,-0 -0.664,0.402 -0.664,0.893c-0,0.491 0.717,0.893 1.594,0.893c0.877,0 1.176,-0.402 0.664,-0.893Zm-290.668,0.076c0.485,-0.465 0.24,-1.081 -0.545,-1.369c-0.784,-0.288 -1.822,-0.142 -2.307,0.323c-0.485,0.466 -0.24,1.082 0.544,1.369c0.785,0.288 1.823,0.143 2.308,-0.323l-0,0Zm66.328,-1.863c-0.512,-0.491 -2.11,-0.893 -3.552,-0.893c-1.442,0 -3.423,-0.476 -4.403,-1.057c-0.98,-0.581 -2.195,-0.812 -2.7,-0.513c-0.993,0.59 7.181,3.357 9.916,3.357c0.918,-0 1.25,-0.402 0.739,-0.894Zm370.387,-0.893c-0.511,-0.491 -1.229,-0.893 -1.594,-0.893c-0.365,-0 -0.664,0.402 -0.664,0.893c-0,0.491 0.718,0.893 1.595,0.893c0.876,0 1.175,-0.402 0.663,-0.893Zm54.204,-0.893c-0.512,-0.492 -1.23,-0.894 -1.595,-0.894c-0.365,0 -0.664,0.402 -0.664,0.894c0,0.491 0.718,0.893 1.595,0.893c0.877,0 1.175,-0.402 0.664,-0.893Zm-143.789,-0.894c-0,-0.491 -1.654,-0.893 -3.675,-0.893c-2.022,0 -4.094,0.402 -4.606,0.893c-0.543,0.522 0.988,0.894 3.675,0.894c2.533,-0 4.606,-0.402 4.606,-0.894Zm264.993,-0.838c-0,-0.463 -0.678,-1.089 -1.506,-1.393c-0.828,-0.304 -1.506,0.075 -1.506,0.841c0,0.766 0.678,1.392 1.506,1.392c0.828,0 1.506,-0.378 1.506,-0.84Zm-147.553,-0.837c-0,-0.431 -1.017,-1.284 -2.259,-1.896c-2.451,-1.207 -2.758,-0.918 -1.344,1.267c0.967,1.496 3.603,1.956 3.603,0.629Zm-82.81,-0.556c-1.031,-0.737 -2.552,-1.34 -3.38,-1.34c-0.84,0 -0.677,0.593 0.368,1.34c1.031,0.737 2.552,1.34 3.38,1.34c0.84,0 0.677,-0.592 -0.368,-1.34Zm-21.832,0.447c-0.512,-0.492 -1.608,-0.894 -2.436,-0.894c-0.829,0 -1.087,0.402 -0.576,0.894c0.512,0.491 1.609,0.893 2.437,0.893c0.828,0 1.087,-0.402 0.575,-0.893Zm-82.058,-0.784c0,-0.431 -0.937,-1.246 -2.082,-1.81c-1.598,-0.787 -2.275,-0.728 -2.908,0.25c-0.453,0.702 -0.42,1.516 0.075,1.81c1.375,0.815 4.915,0.635 4.915,-0.25Zm-53.595,-1.757c0.521,-0.5 0.214,-1.178 -0.683,-1.507c-2.315,-0.849 -3.809,0.314 -1.876,1.46c1.081,0.642 1.923,0.657 2.559,0.047l-0,0Zm158.74,-1.98c-0.276,-1.122 -1.296,-2.194 -2.266,-2.384c-1.124,-0.219 -1.468,0.328 -0.948,1.508c1.155,2.62 3.824,3.347 3.214,0.876Zm-253.611,1.191c1.062,-0.63 -1.91,-2.924 -3.788,-2.924c-0.727,0 -1.321,0.56 -1.321,1.245c-0,1.341 3.654,2.543 5.109,1.679Zm184.602,-1.19c-0,-0.52 -0.678,-0.697 -1.506,-0.394c-0.828,0.304 -1.506,0.73 -1.506,0.946c0,0.217 0.678,0.394 1.506,0.394c0.828,0 1.506,-0.425 1.506,-0.946Zm-33.124,0.053c-0,-0.491 -0.718,-0.893 -1.595,-0.893c-0.877,-0 -1.176,0.402 -0.664,0.893c0.512,0.491 1.229,0.893 1.595,0.893c0.365,0 0.664,-0.402 0.664,-0.893Zm-228.858,-0.447c0,-0.737 -0.677,-1.34 -1.506,-1.34c-0.828,0 -1.505,0.603 -1.505,1.34c-0,0.737 0.677,1.34 1.505,1.34c0.829,0 1.506,-0.603 1.506,-1.34Zm374.553,-2.781c-0.986,-1.284 -2.052,-1.874 -2.368,-1.31c-0.8,1.424 0.808,3.645 2.64,3.645c0.955,-0 0.853,-0.87 -0.272,-2.335l0,0Zm-64.391,0.548c0,-0.491 -0.677,-0.893 -1.505,-0.893c-0.829,-0 -1.506,0.402 -1.506,0.893c-0,0.491 0.677,0.893 1.506,0.893c0.828,0 1.505,-0.402 1.505,-0.893Zm-90.338,-2.655c-0,-1.211 -2.676,-1.963 -3.652,-1.026c-0.466,0.447 0.165,1.044 1.402,1.326c1.237,0.282 2.25,0.147 2.25,-0.3l-0,-0Zm-206.273,-0.918c-0,-0.492 -0.718,-0.894 -1.595,-0.894c-0.877,0 -1.175,0.402 -0.664,0.894c0.512,0.491 1.23,0.893 1.595,0.893c0.365,0 0.664,-0.402 0.664,-0.893Zm252.948,-0.894c-0,-0.491 -0.678,-0.893 -1.506,-0.893c-0.828,0 -1.506,0.402 -1.506,0.893c0,0.492 0.678,0.894 1.506,0.894c0.828,-0 1.506,-0.402 1.506,-0.894Zm-33.124,-1.169c-0,-0.726 -1.066,-1.562 -2.368,-1.858c-1.652,-0.376 -2.221,-0.09 -1.882,0.947c0.618,1.89 4.25,2.669 4.25,0.911Zm114.83,-1.621c-1.022,-0.611 -2.236,-0.885 -2.7,-0.61c-0.464,0.275 0.372,0.774 1.857,1.11c2.146,0.485 2.319,0.382 0.843,-0.5Zm-103.538,0.11c-0.512,-0.491 -1.568,-0.893 -2.348,-0.893c-0.779,0 -1.416,0.402 -1.416,0.893c-0,0.492 1.056,0.894 2.347,0.894c1.291,-0 1.929,-0.402 1.417,-0.894Zm-145.966,-0.077c1.314,-1.262 -1.588,-2.983 -3.714,-2.204c-2.388,0.876 -2.002,3.175 0.532,3.175c1.194,-0 2.625,-0.437 3.182,-0.971l-0,-0Zm-97.67,-2.264c1.198,-1.851 -0.077,-2.301 -4.607,-1.627c-4.385,0.653 -4.111,1.715 0.633,2.451c1.953,0.303 3.445,-0.006 3.974,-0.824Zm301.603,-1.136c-0,-0.439 -1.072,-1.042 -2.382,-1.34c-3.683,-0.839 -4.17,-0.657 -2.135,0.798c2.077,1.485 4.517,1.778 4.517,0.542Zm-453.198,-1.383c-0,-1.341 -2.703,-2.767 -3.9,-2.057c-1.05,0.623 1.029,3.344 2.555,3.344c0.74,0 1.345,-0.579 1.345,-1.287Zm445.67,-1.393c-0,-0.491 -1.057,-0.893 -2.348,-0.893c-1.291,0 -1.928,0.402 -1.416,0.893c0.511,0.492 1.568,0.894 2.347,0.894c0.779,-0 1.417,-0.402 1.417,-0.894Zm-28.607,-0.351c-0,-0.193 -1.052,-0.59 -2.337,-0.883c-1.34,-0.305 -1.944,-0.155 -1.417,0.351c0.884,0.849 3.754,1.256 3.754,0.532Zm-49.687,-7.158c0,-1.741 -1.919,-2.376 -4.415,-1.461c-1.557,0.571 -1.285,0.97 1.201,1.759c2.607,0.828 3.214,0.772 3.214,-0.298l0,0Zm15.81,-3.211c-0.512,-0.491 -1.23,-0.893 -1.595,-0.893c-0.365,0 -0.664,0.402 -0.664,0.893c0,0.492 0.718,0.894 1.595,0.894c0.877,-0 1.175,-0.402 0.664,-0.894Zm24.813,-2.254c-1.048,-0.749 -2.215,-1.178 -2.594,-0.953c-1.044,0.619 1.077,2.314 2.897,2.314c0.998,0 0.884,-0.512 -0.303,-1.361l-0,-0Zm7.439,-1.84c-0.072,-1.041 -0.429,-1.252 -0.91,-0.54c-0.434,0.645 -0.381,1.416 0.119,1.713c0.501,0.296 0.857,-0.231 0.791,-1.173l0,0Zm-296.994,-8.1c-0,-0.879 -0.508,-0.927 -2.008,-0.188c-1.104,0.543 -2.007,1.073 -2.007,1.176c-0,0.104 0.903,0.189 2.007,0.189c1.104,-0 2.008,-0.53 2.008,-1.177Zm67.584,-5.75c1.551,-1.489 -1.938,-3.197 -4.015,-1.965c-1.738,1.031 -0.65,2.936 1.675,2.936c0.731,0 1.783,-0.437 2.34,-0.971Zm-190.575,-0.39c-1.048,-0.749 -2.215,-1.178 -2.594,-0.953c-1.044,0.62 1.078,2.314 2.897,2.314c0.999,0 0.884,-0.512 -0.303,-1.361l-0,-0Zm72.301,-10.589c-0,-0.677 -1.017,-1.731 -2.259,-2.343c-2.394,-1.179 -2.938,-0.304 -1.344,2.161c1.124,1.738 3.603,1.863 3.603,0.182l-0,-0Zm140.485,-14.527c1.203,-0.714 -0.157,-2.109 -2.055,-2.109c-0.779,0 -1.417,0.603 -1.417,1.34c0,1.382 1.777,1.775 3.472,0.769Zm-27.562,-3.895c-0,-1.474 -0.632,-2.68 -1.404,-2.68c-1.83,-0 -3.58,3.295 -2.369,4.458c1.842,1.768 3.773,0.858 3.773,-1.778Zm-40.652,-2.128c-0,-1.229 -0.678,-2.482 -1.506,-2.786c-0.85,-0.311 -1.506,0.42 -1.506,1.681c0,1.229 0.678,2.482 1.506,2.786c0.85,0.312 1.506,-0.42 1.506,-1.681Zm29.36,-3.232c1.098,-1.054 -0.326,-2.68 -2.348,-2.68c-0.779,-0 -1.417,0.804 -1.417,1.786c0,1.884 2.191,2.404 3.765,0.894Zm-129.109,-0.503c1.035,-0.665 1.882,-1.94 1.882,-2.834c-0,-1.895 -4.04,-5.597 -6.108,-5.597c-1.973,0 -1.789,4.226 0.217,4.962c0.9,0.33 1.302,1.358 0.894,2.285c-0.944,2.14 0.67,2.754 3.115,1.184l-0,-0Zm-123.086,-10.972c-0,-0.865 -4.999,-3.712 -6.518,-3.712c-1.793,0 -1.076,1.62 1.355,3.063c2.572,1.526 5.163,1.852 5.163,0.649Zm179.589,-3.364c2.573,-1.527 -0.494,-9.281 -3.671,-9.281c-1.995,0 -1.472,6.637 0.659,8.366c1.058,0.858 2.413,1.27 3.012,0.915Z" style="fill:#bf1f42;fill-rule:nonzero;"/><g><path d="M444.805,250.292l-3.901,-35.36c-0.244,-2.723 -0.488,-5.436 -0.732,-8.139c-0.244,-2.703 -0.447,-5.416 -0.61,-8.139c-0.365,2.561 -0.884,5.274 -1.554,8.139c-0.671,2.866 -1.494,5.924 -2.469,9.175l-10.242,34.324l-19.082,-0l-10.242,-34.324c-1.016,-3.251 -1.85,-6.309 -2.5,-9.175c-0.65,-2.865 -1.158,-5.578 -1.524,-8.139c-0.203,2.764 -0.417,5.487 -0.64,8.17c-0.224,2.682 -0.457,5.385 -0.701,8.108l-3.902,35.36l-31.458,-0l15.241,-89.253l33.104,0l6.341,22.069c0.203,0.691 0.508,1.728 0.914,3.11c2.682,9.307 4.329,16.968 4.938,22.983l0.549,0c0.488,-3.78 1.219,-7.803 2.195,-12.071c0.975,-4.267 2.276,-9.063 3.901,-14.387l6.645,-21.704l33.043,0l14.144,89.253l-31.458,-0Z" style="fill:#ffea00;fill-rule:nonzero;"/><path d="M515.829,217.858l13.352,0l-2.744,-10.12c-1.341,-5.121 -2.255,-9.063 -2.743,-11.827c-0.488,-2.764 -0.793,-5.365 -0.915,-7.804l-0.548,0c-0.122,2.439 -0.427,5.04 -0.915,7.804c-0.487,2.764 -1.402,6.706 -2.743,11.827l-2.744,10.12Zm-42.553,32.434l31.824,-89.253l35.725,0l31.214,89.253l-34.506,-0l-2.865,-11.218l-24.203,0l-2.744,11.218l-34.445,-0Z" style="fill:#ffea00;fill-rule:nonzero;"/><path d="M576.977,250.292l0,-89.253l31.458,0l27.739,46.699c-0.366,-2.073 -0.62,-4.369 -0.762,-6.889c-0.142,-2.52 -0.213,-5.812 -0.213,-9.876l-0,-29.934l30.909,0l-0,89.253l-31.702,-0l-27.434,-46.334c0.325,1.992 0.569,4.136 0.731,6.432c0.163,2.296 0.244,4.867 0.244,7.712l0,32.19l-30.97,-0Z" style="fill:#ffea00;fill-rule:nonzero;"/><path d="M739.326,218.346l-13.961,0l0,-20.972l49.321,0c0.081,1.829 0.142,3.191 0.183,4.085c0.041,0.894 0.061,1.686 0.061,2.377c-0,5.121 -0.488,9.795 -1.463,14.022c-0.976,4.227 -2.398,7.966 -4.268,11.218c-4.552,7.641 -10.425,13.483 -17.619,17.527c-7.193,4.044 -15.363,6.066 -24.507,6.066c-6.747,0 -13.016,-1.128 -18.808,-3.383c-5.792,-2.256 -10.923,-5.579 -15.394,-9.968c-4.43,-4.39 -7.783,-9.409 -10.059,-15.058c-2.276,-5.65 -3.414,-11.787 -3.414,-18.412c0,-6.665 1.148,-12.833 3.445,-18.503c2.296,-5.669 5.639,-10.658 10.028,-14.966c4.43,-4.349 9.551,-7.662 15.363,-9.938c5.812,-2.276 12.092,-3.414 18.839,-3.414c9.144,0 17.273,2.002 24.385,6.005c7.113,4.004 12.925,9.866 17.436,17.589l-28.592,10.608c-1.504,-2.48 -3.313,-4.329 -5.426,-5.548c-2.113,-1.22 -4.532,-1.829 -7.255,-1.829c-4.755,-0 -8.545,1.808 -11.37,5.426c-2.824,3.617 -4.237,8.474 -4.237,14.57c0,6.3 1.423,11.187 4.268,14.662c2.845,3.475 6.868,5.213 12.071,5.213c3.089,-0 5.598,-0.651 7.529,-1.951c1.93,-1.301 3.079,-3.109 3.444,-5.426Z" style="fill:#ffea00;fill-rule:nonzero;"/><path d="M817.361,217.858l13.352,0l-2.744,-10.12c-1.341,-5.121 -2.255,-9.063 -2.743,-11.827c-0.488,-2.764 -0.793,-5.365 -0.915,-7.804l-0.548,0c-0.122,2.439 -0.427,5.04 -0.915,7.804c-0.487,2.764 -1.402,6.706 -2.743,11.827l-2.744,10.12Zm-42.553,32.434l31.824,-89.253l35.725,0l31.214,89.253l-34.506,-0l-2.865,-11.218l-24.204,0l-2.743,11.218l-34.445,-0Z" style="fill:#ffea00;fill-rule:nonzero;"/></g><g><path d="M355.074,331.515l6.683,0l-0,17.121l-6.683,-0l-0,-17.121Zm-10.376,0l6.683,0l-0,17.121l-6.683,-0l-0,-17.121Z" style="fill:#fff;fill-rule:nonzero;"/><path d="M363.191,375.4l7.08,-44.556l12.421,-0l-2.564,16.113l5.127,0l2.503,-16.113l12.451,-0l-7.08,44.556l-12.421,-0l2.747,-17.426l-5.066,-0l-2.747,17.426l-12.451,-0Z" style="fill:#fff;fill-rule:nonzero;"/><path d="M398.256,375.4l7.08,-44.556l22.064,-0l-1.709,10.803l-9.613,0l-0.946,5.676l8.698,0l-1.618,10.437l-8.697,0l-1.007,6.134l9.643,0l-1.831,11.506l-22.064,-0Z" style="fill:#fff;fill-rule:nonzero;"/><path d="M441.072,350.711l0.671,-0c1.893,-0 3.347,-0.595 4.364,-1.785c1.018,-1.191 1.526,-2.905 1.526,-5.143c0,-1.281 -0.325,-2.227 -0.976,-2.838c-0.651,-0.61 -1.658,-0.915 -3.021,-0.915c-0.082,-0 -0.219,0.01 -0.412,0.03c-0.194,0.02 -0.351,0.031 -0.473,0.031l-1.679,10.62Zm-16.388,24.689l7.08,-44.556l10.498,-0c6.592,-0 11.134,0.865 13.626,2.594c2.493,1.729 3.739,4.679 3.739,8.85c-0,3.642 -0.789,6.632 -2.365,8.972c-1.577,2.34 -3.851,3.886 -6.821,4.639l5.493,19.501l-13.183,-0l-2.808,-18.006l-2.808,18.006l-12.451,-0Z" style="fill:#fff;fill-rule:nonzero;"/><path d="M458.315,375.4l7.08,-44.556l22.064,-0l-1.709,10.803l-9.613,0l-0.946,5.676l8.697,0l-1.617,10.437l-8.698,0l-1.007,6.134l9.644,0l-1.831,11.506l-22.064,-0Z" style="fill:#fff;fill-rule:nonzero;"/><path d="M500.459,375.4l7.05,-44.556l12.451,-0l-7.08,44.556l-12.421,-0Z" style="fill:#fff;fill-rule:nonzero;"/><path d="M519.258,361.697c1.384,1.16 2.838,2.055 4.364,2.686c1.526,0.63 2.991,0.946 4.395,0.946c1.241,-0 2.227,-0.341 2.96,-1.023c0.732,-0.681 1.098,-1.612 1.098,-2.792c0,-1.017 -0.305,-2.029 -0.915,-3.036c-0.61,-1.008 -1.79,-2.345 -3.54,-4.014c-2.116,-2.054 -3.571,-3.865 -4.364,-5.432c-0.794,-1.566 -1.19,-3.296 -1.19,-5.188c-0,-4.252 1.348,-7.629 4.043,-10.132c2.696,-2.502 6.353,-3.753 10.971,-3.753c1.872,-0 3.652,0.208 5.341,0.625c1.689,0.418 3.408,1.063 5.157,1.938l-1.77,10.865c-1.342,-0.936 -2.65,-1.648 -3.921,-2.137c-1.272,-0.488 -2.487,-0.732 -3.647,-0.732c-1.038,-0 -1.856,0.269 -2.457,0.809c-0.6,0.539 -0.9,1.276 -0.9,2.212c0,1.262 1.15,3.032 3.449,5.31c0.284,0.285 0.508,0.509 0.671,0.672c2.319,2.278 3.845,4.231 4.578,5.859c0.732,1.628 1.098,3.509 1.098,5.646c0,4.76 -1.47,8.514 -4.41,11.261c-2.939,2.746 -6.963,4.12 -12.069,4.12c-2.177,-0 -4.237,-0.26 -6.18,-0.779c-1.943,-0.518 -3.576,-1.236 -4.898,-2.151l2.136,-11.78Z" style="fill:#fff;fill-rule:nonzero;"/><path d="M557.069,375.4l16.755,-44.556l14.678,-0l3.144,44.556l-12.573,-0l0.061,-6.562l-7.355,0l-1.953,6.562l-12.757,-0Zm17.334,-15.564l4.975,-0l0.152,-16.51l-5.127,16.51Z" style="fill:#fff;fill-rule:nonzero;"/><path d="M624.849,376.285c-4.659,-0 -8.306,-1.481 -10.941,-4.441c-2.634,-2.96 -3.952,-7.065 -3.952,-12.314c0,-4.13 0.534,-8.138 1.603,-12.024c1.068,-3.885 2.517,-7.171 4.348,-9.857c1.791,-2.563 3.861,-4.476 6.211,-5.737c2.349,-1.261 5.03,-1.892 8.041,-1.892c4.293,-0 7.701,1.505 10.223,4.516c2.523,3.012 3.785,7.111 3.785,12.299c-0,5.453 -0.85,10.503 -2.549,15.152c-1.698,4.649 -3.931,8.102 -6.698,10.361l4.242,5.188l-10.437,5.249l-3.876,-6.5Zm-2.38,-15.748c-0,1.669 0.223,2.884 0.671,3.647c0.448,0.763 1.16,1.145 2.136,1.145c0.875,-0 1.633,-0.346 2.274,-1.038c0.641,-0.692 1.215,-1.8 1.724,-3.326c0.671,-1.974 1.216,-4.359 1.633,-7.157c0.417,-2.797 0.625,-5.457 0.625,-7.98c0,-1.668 -0.213,-2.894 -0.641,-3.677c-0.427,-0.784 -1.088,-1.175 -1.983,-1.175c-0.956,-0 -1.765,0.34 -2.426,1.022c-0.662,0.682 -1.226,1.775 -1.694,3.281c-0.671,2.055 -1.226,4.496 -1.663,7.324c-0.438,2.828 -0.656,5.473 -0.656,7.934Z" style="fill:#fff;fill-rule:nonzero;"/><path d="M646.028,359.469l4.486,-28.625l12.512,-0l-4.76,29.816c-0.041,0.244 -0.072,0.467 -0.092,0.671c-0.02,0.203 -0.03,0.437 -0.03,0.702c-0,0.753 0.218,1.348 0.656,1.785c0.437,0.438 1.032,0.656 1.785,0.656c0.977,0 1.745,-0.315 2.304,-0.946c0.56,-0.631 0.941,-1.587 1.144,-2.868l4.731,-29.816l12.451,-0l-4.547,28.595l-0.092,0.458c-0.875,5.411 -2.207,9.185 -3.998,11.322c-1.424,1.709 -3.229,2.99 -5.416,3.845c-2.188,0.854 -4.776,1.282 -7.767,1.282c-4.68,-0 -8.148,-0.982 -10.407,-2.945c-2.258,-1.964 -3.387,-4.96 -3.387,-8.988c-0,-0.651 0.03,-1.363 0.091,-2.136c0.061,-0.773 0.173,-1.709 0.336,-2.808Z" style="fill:#fff;fill-rule:nonzero;"/><path d="M693.025,360.537c0,1.669 0.224,2.884 0.672,3.647c0.447,0.763 1.159,1.145 2.136,1.145c0.875,-0 1.633,-0.346 2.273,-1.038c0.641,-0.692 1.216,-1.8 1.725,-3.326c0.671,-1.974 1.215,-4.359 1.632,-7.157c0.417,-2.797 0.626,-5.457 0.626,-7.98c-0,-1.668 -0.214,-2.894 -0.641,-3.677c-0.427,-0.784 -1.088,-1.175 -1.984,-1.175c-0.956,-0 -1.765,0.34 -2.426,1.022c-0.661,0.682 -1.226,1.775 -1.693,3.281c-0.672,2.055 -1.226,4.496 -1.664,7.324c-0.437,2.828 -0.656,5.473 -0.656,7.934Zm1.496,15.748c-4.212,-0 -7.599,-1.526 -10.163,-4.578c-2.563,-3.052 -3.845,-7.111 -3.845,-12.177c-0,-4.13 0.534,-8.148 1.602,-12.054c1.068,-3.906 2.518,-7.182 4.349,-9.827c1.79,-2.563 3.86,-4.476 6.21,-5.737c2.35,-1.261 5.031,-1.892 8.042,-1.892c4.292,-0 7.7,1.5 10.223,4.501c2.523,3.001 3.784,7.085 3.784,12.253c0,4.15 -0.529,8.158 -1.587,12.024c-1.058,3.866 -2.512,7.151 -4.364,9.857c-1.729,2.543 -3.779,4.451 -6.149,5.722c-2.37,1.272 -5.071,1.908 -8.102,1.908Z" style="fill:#fff;fill-rule:nonzero;"/><path d="M732.332,375.4l-12.512,-0l5.249,-33.265l-7.416,0l1.8,-11.291l27.314,-0l-1.801,11.291l-7.385,0l-5.249,33.265Z" style="fill:#fff;fill-rule:nonzero;"/><path d="M743.715,375.4l7.08,-44.556l22.064,-0l-1.709,10.803l-9.613,0l-0.946,5.676l8.698,0l-1.618,10.437l-8.697,0l-1.007,6.134l9.643,0l-1.831,11.506l-22.064,-0Z" style="fill:#fff;fill-rule:nonzero;"/><path d="M785.341,375.4l7.08,-44.556l22.064,-0l-1.709,10.803l-9.674,0l-1.007,6.439l8.362,0l-1.618,10.498l-8.422,0l-2.686,16.816l-12.39,-0Z" style="fill:#fff;fill-rule:nonzero;"/><path d="M827.089,350.711l0.671,-0c1.892,-0 3.347,-0.595 4.364,-1.785c1.018,-1.191 1.526,-2.905 1.526,-5.143c0,-1.281 -0.325,-2.227 -0.976,-2.838c-0.651,-0.61 -1.658,-0.915 -3.022,-0.915c-0.081,-0 -0.218,0.01 -0.412,0.03c-0.193,0.02 -0.351,0.031 -0.473,0.031l-1.678,10.62Zm-16.388,24.689l7.08,-44.556l10.498,-0c6.592,-0 11.134,0.865 13.626,2.594c2.492,1.729 3.739,4.679 3.739,8.85c-0,3.642 -0.789,6.632 -2.366,8.972c-1.576,2.34 -3.85,3.886 -6.82,4.639l5.493,19.501l-13.184,-0l-2.807,-18.006l-2.808,18.006l-12.451,-0Z" style="fill:#fff;fill-rule:nonzero;"/><path d="M858.461,360.537c-0,1.669 0.224,2.884 0.671,3.647c0.448,0.763 1.16,1.145 2.137,1.145c0.874,-0 1.632,-0.346 2.273,-1.038c0.641,-0.692 1.216,-1.8 1.724,-3.326c0.672,-1.974 1.216,-4.359 1.633,-7.157c0.417,-2.797 0.626,-5.457 0.626,-7.98c-0,-1.668 -0.214,-2.894 -0.641,-3.677c-0.427,-0.784 -1.089,-1.175 -1.984,-1.175c-0.956,-0 -1.765,0.34 -2.426,1.022c-0.661,0.682 -1.226,1.775 -1.694,3.281c-0.671,2.055 -1.225,4.496 -1.663,7.324c-0.437,2.828 -0.656,5.473 -0.656,7.934Zm1.495,15.748c-4.211,-0 -7.599,-1.526 -10.162,-4.578c-2.563,-3.052 -3.845,-7.111 -3.845,-12.177c-0,-4.13 0.534,-8.148 1.602,-12.054c1.068,-3.906 2.518,-7.182 4.349,-9.827c1.79,-2.563 3.86,-4.476 6.21,-5.737c2.35,-1.261 5.03,-1.892 8.041,-1.892c4.293,-0 7.701,1.5 10.224,4.501c2.523,3.001 3.784,7.085 3.784,12.253c-0,4.15 -0.529,8.158 -1.587,12.024c-1.058,3.866 -2.513,7.151 -4.364,9.857c-1.729,2.543 -3.779,4.451 -6.149,5.722c-2.37,1.272 -5.071,1.908 -8.103,1.908Z" style="fill:#fff;fill-rule:nonzero;"/><path d="M895.57,342.349l-6.286,33.051l-10.712,-0l10.254,-44.556l14.557,-0l0.122,23.498l7.568,-23.498l14.496,-0l-3.815,44.556l-10.742,-0l4.059,-32.99l-10.559,32.99l-8.423,-0l-0.519,-33.051Z" style="fill:#fff;fill-rule:nonzero;"/><path d="M958.955,375.4l-12.512,-0l5.249,-33.265l-7.416,0l1.801,-11.291l27.313,-0l-1.8,11.291l-7.386,0l-5.249,33.265Z" style="fill:#fff;fill-rule:nonzero;"/><path d="M970.399,375.4l7.081,-44.556l12.42,-0l-2.563,16.113l5.127,0l2.502,-16.113l12.451,-0l-7.08,44.556l-12.42,-0l2.746,-17.426l-5.066,-0l-2.746,17.426l-12.452,-0Z" style="fill:#fff;fill-rule:nonzero;"/><path d="M1005.46,375.4l7.08,-44.556l22.064,-0l-1.709,10.803l-9.613,0l-0.946,5.676l8.698,0l-1.618,10.437l-8.697,0l-1.007,6.134l9.643,0l-1.831,11.506l-22.064,-0Z" style="fill:#fff;fill-rule:nonzero;"/><path d="M1062.96,342.349l-6.286,33.051l-10.712,-0l10.254,-44.556l14.557,-0l0.122,23.498l7.568,-23.498l14.496,-0l-3.815,44.556l-10.742,-0l4.059,-32.99l-10.559,32.99l-8.423,-0l-0.519,-33.051Z" style="fill:#fff;fill-rule:nonzero;"/><path d="M1089.2,375.4l16.755,-44.556l14.679,-0l3.143,44.556l-12.573,-0l0.061,-6.562l-7.355,0l-1.953,6.562l-12.757,-0Zm17.334,-15.564l4.975,-0l0.152,-16.51l-5.127,16.51Z" style="fill:#fff;fill-rule:nonzero;"/><path d="M1125.8,375.4l7.111,-44.556l11.505,-0l3.997,23.926l4.181,-23.926l10.437,-0l-6.988,44.556l-11.444,-0l-4.242,-23.072l-3.937,23.072l-10.62,-0Z" style="fill:#fff;fill-rule:nonzero;"/><path d="M1181.15,349.643l15.93,-0c-0.346,9.033 -2.075,15.731 -5.188,20.095c-3.113,4.365 -7.711,6.547 -13.794,6.547c-4.72,-0 -8.316,-1.45 -10.788,-4.349c-2.472,-2.899 -3.708,-7.096 -3.708,-12.589c0,-4.293 0.514,-8.382 1.541,-12.268c1.028,-3.886 2.467,-7.192 4.319,-9.918c1.607,-2.38 3.621,-4.176 6.042,-5.386c2.421,-1.211 5.198,-1.816 8.331,-1.816c3.907,-0 7.086,0.91 9.537,2.731c2.452,1.821 4.003,4.43 4.654,7.828l-11.444,4.242c-0.326,-1.404 -0.748,-2.386 -1.266,-2.945c-0.519,-0.56 -1.236,-0.839 -2.152,-0.839c-0.956,-0 -1.79,0.335 -2.502,1.007c-0.712,0.671 -1.323,1.709 -1.831,3.113c-0.692,1.973 -1.303,4.511 -1.832,7.614c-0.529,3.102 -0.793,5.773 -0.793,8.011c0,1.709 0.239,2.914 0.717,3.616c0.478,0.702 1.287,1.053 2.426,1.053c1.404,-0 2.528,-0.6 3.373,-1.801c0.844,-1.2 1.337,-2.909 1.48,-5.127l-4.242,0l1.19,-8.819Z" style="fill:#fff;fill-rule:nonzero;"/><path d="M1193.15,375.4l16.754,-44.556l14.679,-0l3.144,44.556l-12.574,-0l0.061,-6.562l-7.354,0l-1.953,6.562l-12.757,-0Zm17.334,-15.564l4.975,-0l0.152,-16.51l-5.127,16.51Z" style="fill:#fff;fill-rule:nonzero;"/><path d="M1242.8,331.515l6.684,0l-0,17.121l-6.684,-0l0,-17.121Zm-10.376,0l6.684,0l-0,17.121l-6.684,-0l0,-17.121Z" style="fill:#fff;fill-rule:nonzero;"/></g></svg>